{
  "accessors": [
    {
      "bufferView": 2,
      "componentType": 5126,
      "count": 378,
      "max": [
        0.02900063991546631,
        1.01503586769104,
        1.5233392715454102
      ],
      "min": [
        -0.029000580310821533,
        -0.9956644773483276,
        -1.523339867591858
      ],
      "type": "VEC3"
    },
    {
      "bufferView": 2,
      "byteOffset": 4536,
      "componentType": 5126,
      "count": 378,
      "max": [
        0.9999901652336121,
        1.0,
        1.0
      ],
      "min": [
        -0.9999946355819702,
        -1.0,
        -1.0
      ],
      "type": "VEC3"
    },
    {
      "bufferView": 3,
      "componentType": 5126,
      "count": 378,
      "max": [
        1.0,
        1.0,
        0.707111656665802,
        1.0
      ],
      "min": [
        -1.0,
        -1.0,
        -0.9999995231628418,
        -1.0
      ],
      "type": "VEC4"
    },
    {
      "bufferView": 1,
      "componentType": 5126,
      "count": 378,
      "max": [
        0.9694153070449829,
        0.930022120475769
      ],
      "min": [
        0.0,
        0.0
      ],
      "type": "VEC2"
    },
    {
      "bufferView": 1,
      "byteOffset": 3024,
      "componentType": 5126,
      "count": 378,
      "max": [
        0.9694153070449829,
        0.930022120475769
      ],
      "min": [
        0.0,
        0.0
      ],
      "type": "VEC2"
    },
    {
      "bufferView": 1,
      "byteOffset": 6048,
      "componentType": 5126,
      "count": 378,
      "max": [
        0.9694153070449829,
        0.930022120475769
      ],
      "min": [
        0.0,
        0.0
      ],
      "type": "VEC2"
    },
    {
      "bufferView": 0,
      "componentType": 5125,
      "count": 606,
      "type": "SCALAR"
    },
    {
      "bufferView": 2,
      "byteOffset": 9072,
      "componentType": 5126,
      "count": 4,
      "max": [
        0.0006449054926633835,
        0.8579370975494385,
        1.3126205205917358
      ],
      "min": [
        0.0006449054926633835,
        -0.8579369783401489,
        -1.312620759010315
      ],
      "type": "VEC3"
    },
    {
      "bufferView": 2,
      "byteOffset": 9120,
      "componentType": 5126,
      "count": 4,
      "max": [
        1.0,
        0.0,
        0.0
      ],
      "min": [
        1.0,
        0.0,
        0.0
      ],
      "type": "VEC3"
    },
    {
      "bufferView": 3,
      "byteOffset": 6048,
      "componentType": 5126,
      "count": 4,
      "max": [
        0.0,
        -0.9999999403953552,
        -0.00044602082925848663,
        1.0
      ],
      "min": [
        0.0,
        -1.0,
        -0.00044710072688758373,
        1.0
      ],
      "type": "VEC4"
    },
    {
      "bufferView": 1,
      "byteOffset": 9072,
      "componentType": 5126,
      "count": 4,
      "max": [
        0.10938012599945068,
        0.8953297138214111
      ],
      "min": [
        0.0,
        0.728028416633606
      ],
      "type": "VEC2"
    },
    {
      "bufferView": 1,
      "byteOffset": 9104,
      "componentType": 5126,
      "count": 4,
      "max": [
        0.10938012599945068,
        0.8953297138214111
      ],
      "min": [
        0.0,
        0.728028416633606
      ],
      "type": "VEC2"
    },
    {
      "bufferView": 1,
      "byteOffset": 9136,
      "componentType": 5126,
      "count": 4,
      "max": [
        0.10938012599945068,
        0.8953297138214111
      ],
      "min": [
        0.0,
        0.728028416633606
      ],
      "type": "VEC2"
    },
    {
      "bufferView": 0,
      "byteOffset": 2424,
      "componentType": 5125,
      "count": 6,
      "type": "SCALAR"
    },
    {
      "bufferView": 2,
      "byteOffset": 9168,
      "componentType": 5126,
      "count": 20,
      "max": [
        0.011298537254333496,
        1.0,
        0.13294517993927002
      ],
      "min": [
        -0.017114758491516113,
        -1.0,
        -0.13294506072998047
      ],
      "type": "VEC3"
    },
    {
      "bufferView": 2,
      "byteOffset": 9408,
      "componentType": 5126,
      "count": 20,
      "max": [
        0.9989772439002991,
        0.0,
        0.369342565536499
      ],
      "min": [
        0.9292927980422974,
        0.0,
        -0.3693438172340393
      ],
      "type": "VEC3"
    },
    {
      "bufferView": 3,
      "byteOffset": 6112,
      "componentType": 5126,
      "count": 20,
      "max": [
        0.36934253573417664,
        0.0,
        -0.9292928576469421,
        1.0
      ],
      "min": [
        -0.3693438470363617,
        -2.812451829674609e-25,
        -0.9989771842956543,
        1.0
      ],
      "type": "VEC4"
    },
    {
      "bufferView": 1,
      "byteOffset": 9168,
      "componentType": 5126,
      "count": 20,
      "max": [
        0.12633085250854492,
        0.8555300235748291
      ],
      "min": [
        0.10938011109828949,
        0.7280282974243164
      ],
      "type": "VEC2"
    },
    {
      "bufferView": 1,
      "byteOffset": 9328,
      "componentType": 5126,
      "count": 20,
      "max": [
        0.12633085250854492,
        0.8555300235748291
      ],
      "min": [
        0.10938011109828949,
        0.7280282974243164
      ],
      "type": "VEC2"
    },
    {
      "bufferView": 1,
      "byteOffset": 9488,
      "componentType": 5126,
      "count": 20,
      "max": [
        0.12633085250854492,
        0.8555300235748291
      ],
      "min": [
        0.10938011109828949,
        0.7280282974243164
      ],
      "type": "VEC2"
    },
    {
      "bufferView": 0,
      "byteOffset": 2448,
      "componentType": 5125,
      "count": 54,
      "type": "SCALAR"
    },
    {
      "bufferView": 2,
      "byteOffset": 9648,
      "componentType": 5126,
      "count": 56,
      "max": [
        0.007231235504150391,
        1.123274326324463,
        0.14933383464813232
      ],
      "min": [
        -0.24154949188232422,
        -1.123274326324463,
        -0.14933383464813232
      ],
      "type": "VEC3"
    },
    {
      "bufferView": 2,
      "byteOffset": 10320,
      "componentType": 5126,
      "count": 56,
      "max": [
        0.9989772439002991,
        1.0,
        1.0
      ],
      "min": [
        0.0,
        -1.0,
        -1.0
      ],
      "type": "VEC3"
    },
    {
      "bufferView": 3,
      "byteOffset": 6432,
      "componentType": 5126,
      "count": 56,
      "max": [
        1.0,
        2.3805453051514713e-13,
        2.1447433482535416e-06,
        1.0
      ],
      "min": [
        -1.0,
        -3.2000677064811245e-13,
        -0.9989772439002991,
        1.0
      ],
      "type": "VEC4"
    },
    {
      "bufferView": 1,
      "byteOffset": 9648,
      "componentType": 5126,
      "count": 56,
      "max": [
        0.969110369682312,
        0.8030731678009033
      ],
      "min": [
        0.2540415823459625,
        0.0
      ],
      "type": "VEC2"
    },
    {
      "bufferView": 1,
      "byteOffset": 10096,
      "componentType": 5126,
      "count": 56,
      "max": [
        0.969110369682312,
        0.8030731678009033
      ],
      "min": [
        0.2540415823459625,
        0.0
      ],
      "type": "VEC2"
    },
    {
      "bufferView": 1,
      "byteOffset": 10544,
      "componentType": 5126,
      "count": 56,
      "max": [
        0.969110369682312,
        0.8030731678009033
      ],
      "min": [
        0.2540415823459625,
        0.0
      ],
      "type": "VEC2"
    },
    {
      "bufferView": 0,
      "byteOffset": 2664,
      "componentType": 5125,
      "count": 144,
      "type": "SCALAR"
    },
    {
      "bufferView": 2,
      "byteOffset": 10992,
      "componentType": 5126,
      "count": 151,
      "max": [
        -0.24154949188232422,
        1.123274326324463,
        0.14933383464813232
      ],
      "min": [
        -2.48809814453125,
        -1.123274326324463,
        -2.3958821296691895
      ],
      "type": "VEC3"
    },
    {
      "bufferView": 2,
      "byteOffset": 12804,
      "componentType": 5126,
      "count": 151,
      "max": [
        1.0,
        1.0,
        1.0
      ],
      "min": [
        -1.0,
        -1.0,
        -1.0
      ],
      "type": "VEC3"
    },
    {
      "bufferView": 3,
      "byteOffset": 7328,
      "componentType": 5126,
      "count": 151,
      "max": [
        1.0,
        1.0,
        1.0,
        1.0
      ],
      "min": [
        -1.0,
        -1.0,
        -1.0,
        1.0
      ],
      "type": "VEC4"
    },
    {
      "bufferView": 1,
      "byteOffset": 10992,
      "componentType": 5126,
      "count": 151,
      "max": [
        0.9671179056167603,
        0.9887247085571289
      ],
      "min": [
        0.12816333770751953,
        0.0
      ],
      "type": "VEC2"
    },
    {
      "bufferView": 1,
      "byteOffset": 12200,
      "componentType": 5126,
      "count": 151,
      "max": [
        0.9671179056167603,
        0.9887247085571289
      ],
      "min": [
        0.12816333770751953,
        0.0
      ],
      "type": "VEC2"
    },
    {
      "bufferView": 1,
      "byteOffset": 13408,
      "componentType": 5126,
      "count": 151,
      "max": [
        0.9671179056167603,
        0.9887247085571289
      ],
      "min": [
        0.12816333770751953,
        0.0
      ],
      "type": "VEC2"
    },
    {
      "bufferView": 0,
      "byteOffset": 3240,
      "componentType": 5125,
      "count": 309,
      "type": "SCALAR"
    },
    {
      "bufferView": 2,
      "byteOffset": 14616,
      "componentType": 5126,
      "count": 72,
      "max": [
        -0.25867581367492676,
        1.1061480045318604,
        -0.6561053395271301
      ],
      "min": [
        -2.4709718227386475,
        -1.1061480045318604,
        -1.7611254453659058
      ],
      "type": "VEC3"
    },
    {
      "bufferView": 2,
      "byteOffset": 15480,
      "componentType": 5126,
      "count": 72,
      "max": [
        1.0,
        1.0,
        1.0
      ],
      "min": [
        -1.0,
        -1.0,
        -1.0
      ],
      "type": "VEC3"
    },
    {
      "bufferView": 3,
      "byteOffset": 9744,
      "componentType": 5126,
      "count": 72,
      "max": [
        1.0,
        0.0,
        1.0,
        1.0
      ],
      "min": [
        -1.0,
        0.0,
        -1.0,
        1.0
      ],
      "type": "VEC4"
    },
    {
      "bufferView": 1,
      "byteOffset": 14616,
      "componentType": 5126,
      "count": 72,
      "max": [
        0.9773163795471191,
        0.8512938022613525
      ],
      "min": [
        0.2713892459869385,
        0.0
      ],
      "type": "VEC2"
    },
    {
      "bufferView": 1,
      "byteOffset": 15192,
      "componentType": 5126,
      "count": 72,
      "max": [
        0.9773163795471191,
        0.8512938022613525
      ],
      "min": [
        0.2713892459869385,
        0.0
      ],
      "type": "VEC2"
    },
    {
      "bufferView": 1,
      "byteOffset": 15768,
      "componentType": 5126,
      "count": 72,
      "max": [
        0.9773163795471191,
        0.8512938022613525
      ],
      "min": [
        0.2713892459869385,
        0.0
      ],
      "type": "VEC2"
    },
    {
      "bufferView": 0,
      "byteOffset": 4476,
      "componentType": 5125,
      "count": 108,
      "type": "SCALAR"
    },
    {
      "bufferView": 2,
      "byteOffset": 16344,
      "componentType": 5126,
      "count": 148,
      "max": [
        -0.24154949188232422,
        1.123274326324463,
        -0.14933383464813232
      ],
      "min": [
        -0.25192713737487793,
        -1.123274326324463,
        -2.3958821296691895
      ],
      "type": "VEC3"
    },
    {
      "bufferView": 2,
      "byteOffset": 18120,
      "componentType": 5126,
      "count": 148,
      "max": [
        1.0,
        0.12109372019767761,
        0.7734706997871399
      ],
      "min": [
        0.6338319778442383,
        -0.12109370529651642,
        -0.7734623551368713
      ],
      "type": "VEC3"
    },
    {
      "bufferView": 3,
      "byteOffset": 10896,
      "componentType": 5126,
      "count": 148,
      "max": [
        0.7734708786010742,
        1.0,
        1.0,
        1.0
      ],
      "min": [
        -8.90142814569117e-07,
        -0.7446008920669556,
        -1.0,
        1.0
      ],
      "type": "VEC4"
    },
    {
      "bufferView": 1,
      "byteOffset": 16344,
      "componentType": 5126,
      "count": 148,
      "max": [
        0.9772630929946899,
        0.9405205845832825
      ],
      "min": [
        0.12633085250854492,
        0.0
      ],
      "type": "VEC2"
    },
    {
      "bufferView": 1,
      "byteOffset": 17528,
      "componentType": 5126,
      "count": 148,
      "max": [
        0.9772630929946899,
        0.9405205845832825
      ],
      "min": [
        0.12633085250854492,
        0.0
      ],
      "type": "VEC2"
    },
    {
      "bufferView": 1,
      "byteOffset": 18712,
      "componentType": 5126,
      "count": 148,
      "max": [
        0.9772630929946899,
        0.9405205845832825
      ],
      "min": [
        0.12633085250854492,
        0.0
      ],
      "type": "VEC2"
    },
    {
      "bufferView": 0,
      "byteOffset": 4908,
      "componentType": 5125,
      "count": 234,
      "type": "SCALAR"
    }
  ],
  "asset": {
    "extras": {
      "author": "AJ_AY (https://sketchfab.com/AJAY.K)",
      "license": "CC-BY-4.0 (http://creativecommons.org/licenses/by/4.0/)",
      "source": "https://sketchfab.com/3d-models/pepsi-fridge-indian-fridge-model-free-by-ajay-f4e2137d8296440f9703b430c6ab4124",
      "title": "Pepsi fridge indian Fridge Model Free By Ajay"
    },
    "generator": "Sketchfab-15.10.0",
    "version": "2.0"
  },
  "bufferViews": [
    {
      "buffer": 0,
      "byteLength": 5844,
      "name": "floatBufferViews",
      "target": 34963
    },
    {
      "buffer": 0,
      "byteLength": 19896,
      "byteOffset": 5844,
      "byteStride": 8,
      "name": "floatBufferViews",
      "target": 34962
    },
    {
      "buffer": 0,
      "byteLength": 19896,
      "byteOffset": 25740,
      "byteStride": 12,
      "name": "floatBufferViews",
      "target": 34962
    },
    {
      "buffer": 0,
      "byteLength": 13264,
      "byteOffset": 45636,
      "byteStride": 16,
      "name": "floatBufferViews",
      "target": 34962
    }
  ],
  "buffers": [
    {
      "byteLength": 58900,
      "uri": "tf.bin"
    }
  ],
  "extensionsUsed": [
    "KHR_materials_specular"
  ],
  "images": [
    {
      "uri": "textures/Material.008_baseColor.png"
    },
    {
      "uri": "textures/Material.008_metallicRoughness.png"
    },
    {
      "uri": "textures/Material.008_normal.png"
    },
    {
      "uri": "textures/Material.007_baseColor.png"
    },
    {
      "uri": "textures/Material.007_metallicRoughness.png"
    },
    {
      "uri": "textures/Material.007_normal.png"
    },
    {
      "uri": "textures/Material.003_baseColor.png"
    },
    {
      "uri": "textures/Material.003_metallicRoughness.png"
    },
    {
      "uri": "textures/Material.003_normal.png"
    },
    {
      "uri": "textures/Material.004_baseColor.png"
    },
    {
      "uri": "textures/Material.004_metallicRoughness.png"
    },
    {
      "uri": "textures/Material.004_normal.png"
    },
    {
      "uri": "textures/Material.005_baseColor.png"
    },
    {
      "uri": "textures/Material.005_metallicRoughness.png"
    },
    {
      "uri": "textures/Material.005_normal.png"
    },
    {
      "uri": "textures/Material.009_baseColor.png"
    },
    {
      "uri": "textures/Material.009_metallicRoughness.png"
    },
    {
      "uri": "textures/Material.009_normal.png"
    },
    {
      "uri": "textures/Material.002_baseColor.png"
    },
    {
      "uri": "textures/Material.002_metallicRoughness.png"
    },
    {
      "uri": "textures/Material.002_normal.png"
    }
  ],
  "materials": [
    {
      "doubleSided": true,
      "name": "Material.008",
      "normalTexture": {
        "index": 2
      },
      "pbrMetallicRoughness": {
        "baseColorTexture": {
          "index": 0
        },
        "metallicRoughnessTexture": {
          "index": 1
        }
      }
    },
    {
      "doubleSided": true,
      "extensions": {
        "KHR_materials_specular": {
          "specularColorFactor": [
            1.0,
            1.0,
            1.0
          ],
          "specularFactor": 0.8220803158638764
        }
      },
      "name": "Material.007",
      "normalTexture": {
        "index": 5
      },
      "pbrMetallicRoughness": {
        "baseColorTexture": {
          "index": 3
        },
        "metallicRoughnessTexture": {
          "index": 4
        }
      }
    },
    {
      "doubleSided": true,
      "name": "Material.003",
      "normalTexture": {
        "index": 8
      },
      "pbrMetallicRoughness": {
        "baseColorTexture": {
          "index": 6
        },
        "metallicRoughnessTexture": {
          "index": 7
        }
      }
    },
    {
      "doubleSided": true,
      "name": "Material.004",
      "normalTexture": {
        "index": 11
      },
      "pbrMetallicRoughness": {
        "baseColorTexture": {
          "index": 9
        },
        "metallicRoughnessTexture": {
          "index": 10
        }
      }
    },
    {
      "doubleSided": true,
      "name": "Material.005",
      "normalTexture": {
        "index": 14
      },
      "pbrMetallicRoughness": {
        "baseColorTexture": {
          "index": 12
        },
        "metallicRoughnessTexture": {
          "index": 13
        }
      }
    },
    {
      "doubleSided": true,
      "name": "Material.009",
      "normalTexture": {
        "index": 17
      },
      "pbrMetallicRoughness": {
        "baseColorTexture": {
          "index": 15
        },
        "metallicRoughnessTexture": {
          "index": 16
        }
      }
    },
    {
      "doubleSided": true,
      "name": "Material.002",
      "normalTexture": {
        "index": 20
      },
      "pbrMetallicRoughness": {
        "baseColorTexture": {
          "index": 18
        },
        "metallicRoughnessTexture": {
          "index": 19
        }
      }
    }
  ],
  "meshes": [
    {
      "name": "door_Material.008_0",
      "primitives": [
        {
          "attributes": {
            "NORMAL": 1,
            "POSITION": 0,
            "TANGENT": 2,
            "TEXCOORD_0": 3,
            "TEXCOORD_1": 4,
            "TEXCOORD_2": 5
          },
          "indices": 6,
          "material": 0,
          "mode": 4
        }
      ]
    },
    {
      "name": "door_Material.007_0",
      "primitives": [
        {
          "attributes": {
            "NORMAL": 8,
            "POSITION": 7,
            "TANGENT": 9,
            "TEXCOORD_0": 10,
            "TEXCOORD_1": 11,
            "TEXCOORD_2": 12
          },
          "indices": 13,
          "material": 1,
          "mode": 4
        }
      ]
    },
    {
      "name": "body_Material.003_0",
      "primitives": [
        {
          "attributes": {
            "NORMAL": 15,
            "POSITION": 14,
            "TANGENT": 16,
            "TEXCOORD_0": 17,
            "TEXCOORD_1": 18,
            "TEXCOORD_2": 19
          },
          "indices": 20,
          "material": 2,
          "mode": 4
        }
      ]
    },
    {
      "name": "body_Material.004_0",
      "primitives": [
        {
          "attributes": {
            "NORMAL": 22,
            "POSITION": 21,
            "TANGENT": 23,
            "TEXCOORD_0": 24,
            "TEXCOORD_1": 25,
            "TEXCOORD_2": 26
          },
          "indices": 27,
          "material": 3,
          "mode": 4
        }
      ]
    },
    {
      "name": "body_Material.005_0",
      "primitives": [
        {
          "attributes": {
            "NORMAL": 29,
            "POSITION": 28,
            "TANGENT": 30,
            "TEXCOORD_0": 31,
            "TEXCOORD_1": 32,
            "TEXCOORD_2": 33
          },
          "indices": 34,
          "material": 4,
          "mode": 4
        }
      ]
    },
    {
      "name": "body_Material.009_0",
      "primitives": [
        {
          "attributes": {
            "NORMAL": 36,
            "POSITION": 35,
            "TANGENT": 37,
            "TEXCOORD_0": 38,
            "TEXCOORD_1": 39,
            "TEXCOORD_2": 40
          },
          "indices": 41,
          "material": 5,
          "mode": 4
        }
      ]
    },
    {
      "name": "body_Material.002_0",
      "primitives": [
        {
          "attributes": {
            "NORMAL": 43,
            "POSITION": 42,
            "TANGENT": 44,
            "TEXCOORD_0": 45,
            "TEXCOORD_1": 46,
            "TEXCOORD_2": 47
          },
          "indices": 48,
          "material": 6,
          "mode": 4
        }
      ]
    }
  ],
  "nodes": [
    {
      "children": [
        1
      ],
      "matrix": [
        1.0,
        0.0,
        0.0,
        0.0,
        0.0,
        2.220446049250313e-16,
        -1.0,
        0.0,
        0.0,
        1.0,
        2.220446049250313e-16,
        0.0,
        0.0,
        0.0,
        0.0,
        1.0
      ],
      "name": "Sketchfab_model"
    },
    {
      "children": [
        2
      ],
      "matrix": [
        0.009999999776482582,
        0.0,
        0.0,
        0.0,
        0.0,
        0.0,
        0.009999999776482582,
        0.0,
        0.0,
        -0.009999999776482582,
        0.0,
        0.0,
        0.0,
        0.0,
        0.0,
        1.0
      ],
      "name": "bf80ab937707411da253a3eabe3c992c.fbx"
    },
    {
      "children": [
        3,
        6
      ],
      "name": "RootNode"
    },
    {
      "children": [
        4,
        5
      ],
      "matrix": [
        81.90921783447266,
        0.0,
        0.0,
        0.0,
        -0.0,
        -1.33447054180458e-05,
        -81.90921783447158,
        0.0,
        0.0,
        81.90921783447158,
        -1.33447054180458e-05,
        0.0,
        -349.4771728515625,
        264.1083679199219,
        -0.2449595332145691,
        1.0
      ],
      "name": "door"
    },
    {
      "mesh": 0,
      "name": "door_Material.008_0"
    },
    {
      "mesh": 1,
      "name": "door_Material.007_0"
    },
    {
      "children": [
        7,
        8,
        9,
        10,
        11
      ],
      "matrix": [
        72.92005920410156,
        0.0,
        0.0,
        0.0,
        -0.0,
        -1.1880185586824796e-05,
        -72.9200592041006,
        0.0,
        0.0,
        141.54461669921687,
        -2.3060545116893085e-05,
        0.0,
        -333.9770202636719,
        410.7636413574219,
        -0.02436109259724617,
        1.0
      ],
      "name": "body"
    },
    {
      "mesh": 2,
      "name": "body_Material.003_0"
    },
    {
      "mesh": 3,
      "name": "body_Material.004_0"
    },
    {
      "mesh": 4,
      "name": "body_Material.005_0"
    },
    {
      "mesh": 5,
      "name": "body_Material.009_0"
    },
    {
      "mesh": 6,
      "name": "body_Material.002_0"
    }
  ],
  "samplers": [
    {
      "magFilter": 9729,
      "minFilter": 9987,
      "wrapS": 10497,
      "wrapT": 10497
    }
  ],
  "scene": 0,
  "scenes": [
    {
      "name": "Sketchfab_Scene",
      "nodes": [
        0
      ]
    }
  ],
  "textures": [
    {
      "sampler": 0,
      "source": 0
    },
    {
      "sampler": 0,
      "source": 1
    },
    {
      "sampler": 0,
      "source": 2
    },
    {
      "sampler": 0,
      "source": 3
    },
    {
      "sampler": 0,
      "source": 4
    },
    {
      "sampler": 0,
      "source": 5
    },
    {
      "sampler": 0,
      "source": 6
    },
    {
      "sampler": 0,
      "source": 7
    },
    {
      "sampler": 0,
      "source": 8
    },
    {
      "sampler": 0,
      "source": 9
    },
    {
      "sampler": 0,
      "source": 10
    },
    {
      "sampler": 0,
      "source": 11
    },
    {
      "sampler": 0,
      "source": 12
    },
    {
      "sampler": 0,
      "source": 13
    },
    {
      "sampler": 0,
      "source": 14
    },
    {
      "sampler": 0,
      "source": 15
    },
    {
      "sampler": 0,
      "source": 16
    },
    {
      "sampler": 0,
      "source": 17
    },
    {
      "sampler": 0,
      "source": 18
    },
    {
      "sampler": 0,
      "source": 19
    },
    {
      "sampler": 0,
      "source": 20
    }
  ]
}
