{
	"asset":{
		"generator":"Khronos glTF Blender I/O v4.2.60",
		"version":"2.0"
	},
	"scene":0,
	"scenes":[
		{
			"name":"Scene",
			"nodes":[
				0,
				1,
				2,
				4,
				12,
				14,
				22,
				23,
				28,
				39,
				43,
				47,
				51,
				52,
				53,
				54,
				55,
				56,
				57,
				58,
				59,
				60,
				61,
				62,
				63,
				64,
				65,
				66
			]
		}
	],
	"nodes":[
		{
			"mesh":0,
			"name":"GreenLight",
			"translation":[
				0.4081968665122986,
				-0.8262662291526794,
				0.02096056565642357
			]
		},
		{
			"mesh":1,
			"name":"YellowLight",
			"translation":[
				0.4081968665122986,
				-1.0689643621444702,
				0.02096056565642357
			]
		},
		{
			"mesh":2,
			"name":"RedLight",
			"translation":[
				0.4081968665122986,
				-1.3085510730743408,
				0.02096056565642357
			]
		},
		{
			"mesh":3,
			"name":"Light_1.001"
		},
		{
			"children":[
				3
			],
			"mesh":4,
			"name":"FS_1.001"
		},
		{
			"mesh":5,
			"name":"hs_17.001"
		},
		{
			"mesh":6,
			"name":"pipe_1.001"
		},
		{
			"mesh":7,
			"name":"pipe_2.001"
		},
		{
			"mesh":8,
			"name":"pipe_3.001"
		},
		{
			"children":[
				5,
				6,
				7,
				8
			],
			"mesh":9,
			"name":"cube.001"
		},
		{
			"mesh":10,
			"name":"hs_16.001"
		},
		{
			"children":[
				9,
				10
			],
			"mesh":11,
			"name":"board.003"
		},
		{
			"children":[
				11
			],
			"mesh":12,
			"name":"FS_2.001"
		},
		{
			"mesh":13,
			"name":"board.002"
		},
		{
			"children":[
				13
			],
			"mesh":14,
			"name":"FS_3.001"
		},
		{
			"mesh":15,
			"name":"BEG_Light_1.006"
		},
		{
			"mesh":16,
			"name":"BEG_Light_2.006"
		},
		{
			"mesh":17,
			"name":"BEG_Light_3.007"
		},
		{
			"mesh":18,
			"name":"hs_18.001"
		},
		{
			"mesh":19,
			"name":"SS_1.002"
		},
		{
			"mesh":20,
			"name":"SS_2.002"
		},
		{
			"mesh":21,
			"name":"SS_3.002"
		},
		{
			"children":[
				15,
				16,
				17,
				18,
				19,
				20,
				21
			],
			"mesh":22,
			"name":"Lights_1.001"
		},
		{
			"name":"Lights_1.007",
			"rotation":[
				0.70710688829422,
				0,
				0,
				0.7071066498756409
			],
			"scale":[
				0.19791007041931152,
				0.19791007041931152,
				0.19791007041931152
			],
			"translation":[
				0,
				0,
				-0.12833285331726074
			]
		},
		{
			"mesh":23,
			"name":"BEG_Light_10"
		},
		{
			"mesh":24,
			"name":"BEG_Light_4"
		},
		{
			"mesh":25,
			"name":"BEG_Light_5"
		},
		{
			"mesh":26,
			"name":"BEG_Light_9"
		},
		{
			"children":[
				24,
				25,
				26,
				27
			],
			"mesh":27,
			"name":"Octagon_with_7.001"
		},
		{
			"mesh":28,
			"name":"nut_1.001"
		},
		{
			"mesh":29,
			"name":"nut_2.001"
		},
		{
			"mesh":30,
			"name":"nut_3.001"
		},
		{
			"mesh":31,
			"name":"nut_4.001"
		},
		{
			"mesh":32,
			"name":"SS_1.003"
		},
		{
			"mesh":33,
			"name":"SS_2.003"
		},
		{
			"mesh":34,
			"name":"SS_3.003"
		},
		{
			"mesh":35,
			"name":"st_1.001"
		},
		{
			"mesh":36,
			"name":"st_2.001"
		},
		{
			"mesh":37,
			"name":"st_3.001"
		},
		{
			"children":[
				29,
				30,
				31,
				32,
				33,
				34,
				35,
				36,
				37,
				38
			],
			"mesh":38,
			"name":"pole.001"
		},
		{
			"mesh":39,
			"name":"BEG_Light_1.004"
		},
		{
			"mesh":40,
			"name":"BEG_Light_2.004"
		},
		{
			"mesh":41,
			"name":"BEG_Light_3.004"
		},
		{
			"children":[
				40,
				41,
				42
			],
			"mesh":42,
			"name":"SLLL.001"
		},
		{
			"mesh":43,
			"name":"BEG_Light_1.005"
		},
		{
			"mesh":44,
			"name":"BEG_Light_2.005"
		},
		{
			"mesh":45,
			"name":"BEG_Light_3.005"
		},
		{
			"children":[
				44,
				45,
				46
			],
			"mesh":46,
			"name":"SLLM"
		},
		{
			"mesh":47,
			"name":"BEG_Light_1.003"
		},
		{
			"mesh":48,
			"name":"BEG_Light_2.007"
		},
		{
			"mesh":49,
			"name":"BEG_Light_3.003"
		},
		{
			"children":[
				48,
				49,
				50
			],
			"mesh":50,
			"name":"SLLT"
		},
		{
			"mesh":51,
			"name":"Stairs.001"
		},
		{
			"mesh":52,
			"name":"stand.001"
		},
		{
			"mesh":53,
			"name":"WhiteLight01",
			"translation":[
				0,
				0.718760073184967,
				0.7405408024787903
			]
		},
		{
			"mesh":54,
			"name":"WhiteLight02",
			"translation":[
				0,
				0.5507382154464722,
				0.5725189447402954
			]
		},
		{
			"mesh":55,
			"name":"WhiteLight03",
			"translation":[
				0,
				0.3827163875102997,
				0.4013855457305908
			]
		},
		{
			"mesh":56,
			"name":"WhiteLight07",
			"translation":[
				0,
				0,
				0.5600728392601013
			]
		},
		{
			"mesh":57,
			"name":"WhiteLight08",
			"translation":[
				0,
				-0.003111575497314334,
				0.796548068523407
			]
		},
		{
			"mesh":58,
			"name":"WhiteLight09",
			"translation":[
				0,
				0,
				1.0392463207244873
			]
		},
		{
			"mesh":59,
			"name":"WhiteLight13",
			"translation":[
				0,
				-0.7187602519989014,
				0.7405408024787903
			]
		},
		{
			"mesh":60,
			"name":"WhiteLight12",
			"translation":[
				0,
				-0.5538498759269714,
				0.5725189447402954
			]
		},
		{
			"mesh":61,
			"name":"WhiteLight11",
			"translation":[
				0,
				-0.38271647691726685,
				0.3982740640640259
			]
		},
		{
			"mesh":62,
			"name":"WhiteLight05"
		},
		{
			"mesh":63,
			"name":"WhiteLight10",
			"translation":[
				0,
				-0.18046793341636658,
				0.17735642194747925
			]
		},
		{
			"mesh":64,
			"name":"WhiteLight04",
			"translation":[
				0,
				0.17735642194747925,
				0.14312973618507385
			]
		},
		{
			"mesh":65,
			"name":"WhiteLight06",
			"translation":[
				0,
				0,
				0.239586740732193
			]
		}
	],
	"materials":[
		{
			"doubleSided":true,
			"name":"GreenLight",
			"pbrMetallicRoughness":{
				"baseColorFactor":[
					0,
					0.09084183722734451,
					0,
					1
				],
				"metallicFactor":0,
				"roughnessFactor":0.5
			}
		},
		{
			"doubleSided":true,
			"name":"YellowLight",
			"pbrMetallicRoughness":{
				"baseColorFactor":[
					0.09084117412567139,
					0.09084182977676392,
					0,
					1
				],
				"metallicFactor":0,
				"roughnessFactor":0.5
			}
		},
		{
			"doubleSided":true,
			"name":"RedLight",
			"pbrMetallicRoughness":{
				"baseColorFactor":[
					0.09084124863147736,
					0,
					0,
					1
				],
				"metallicFactor":0,
				"roughnessFactor":0.5
			}
		},
		{
			"doubleSided":true,
			"name":"Material.078",
			"pbrMetallicRoughness":{
				"baseColorFactor":[
					0,
					0,
					0,
					1
				],
				"metallicFactor":0.5039370059967041,
				"roughnessFactor":0.36000001430511475
			}
		},
		{
			"doubleSided":true,
			"name":"Material.005",
			"pbrMetallicRoughness":{
				"baseColorFactor":[
					0,
					0,
					0,
					1
				],
				"metallicFactor":0.5039370059967041,
				"roughnessFactor":0.36000001430511475
			}
		},
		{
			"doubleSided":true,
			"name":"Material.007",
			"pbrMetallicRoughness":{
				"baseColorFactor":[
					0.3771159052848816,
					0.3771159052848816,
					0.3771159052848816,
					1
				],
				"metallicFactor":0,
				"roughnessFactor":0.5
			}
		},
		{
			"doubleSided":true,
			"name":"Material.006",
			"pbrMetallicRoughness":{
				"baseColorFactor":[
					0.17434632778167725,
					0.17434632778167725,
					0.17434632778167725,
					1
				],
				"metallicFactor":0
			}
		},
		{
			"doubleSided":true,
			"name":"WhiteLight",
			"pbrMetallicRoughness":{
				"baseColorFactor":[
					0.1328674554824829,
					0.1328684538602829,
					0.13286839425563812,
					1
				],
				"metallicFactor":0,
				"roughnessFactor":0.5
			}
		}
	],
	"meshes":[
		{
			"name":"GreenLight",
			"primitives":[
				{
					"attributes":{
						"POSITION":0,
						"NORMAL":1,
						"TEXCOORD_0":2
					},
					"indices":3,
					"material":0
				}
			]
		},
		{
			"name":"YellowLight",
			"primitives":[
				{
					"attributes":{
						"POSITION":4,
						"NORMAL":5,
						"TEXCOORD_0":6
					},
					"indices":3,
					"material":1
				}
			]
		},
		{
			"name":"RedLight",
			"primitives":[
				{
					"attributes":{
						"POSITION":7,
						"NORMAL":8,
						"TEXCOORD_0":9
					},
					"indices":3,
					"material":2
				}
			]
		},
		{
			"name":"Mesh.084",
			"primitives":[
				{
					"attributes":{
						"POSITION":10,
						"NORMAL":11,
						"TEXCOORD_0":12
					},
					"indices":13,
					"material":3
				}
			]
		},
		{
			"name":"Mesh.083",
			"primitives":[
				{
					"attributes":{
						"POSITION":14,
						"NORMAL":15,
						"TEXCOORD_0":16
					},
					"indices":17,
					"material":3
				}
			]
		},
		{
			"name":"Mesh.082",
			"primitives":[
				{
					"attributes":{
						"POSITION":18,
						"NORMAL":19,
						"TEXCOORD_0":20
					},
					"indices":21,
					"material":3
				}
			]
		},
		{
			"name":"Mesh.080",
			"primitives":[
				{
					"attributes":{
						"POSITION":22,
						"NORMAL":23,
						"TEXCOORD_0":24
					},
					"indices":25,
					"material":3
				}
			]
		},
		{
			"name":"Mesh.079",
			"primitives":[
				{
					"attributes":{
						"POSITION":26,
						"NORMAL":27,
						"TEXCOORD_0":28
					},
					"indices":25,
					"material":3
				}
			]
		},
		{
			"name":"Mesh.081",
			"primitives":[
				{
					"attributes":{
						"POSITION":29,
						"NORMAL":30,
						"TEXCOORD_0":31
					},
					"indices":25,
					"material":3
				}
			]
		},
		{
			"name":"Mesh.078",
			"primitives":[
				{
					"attributes":{
						"POSITION":32,
						"NORMAL":33,
						"TEXCOORD_0":34
					},
					"indices":35,
					"material":3
				}
			]
		},
		{
			"name":"Mesh.077",
			"primitives":[
				{
					"attributes":{
						"POSITION":36,
						"NORMAL":37,
						"TEXCOORD_0":38
					},
					"indices":39,
					"material":3
				}
			]
		},
		{
			"name":"Mesh.076",
			"primitives":[
				{
					"attributes":{
						"POSITION":40,
						"NORMAL":41,
						"TEXCOORD_0":42
					},
					"indices":43,
					"material":3
				}
			]
		},
		{
			"name":"Mesh.075",
			"primitives":[
				{
					"attributes":{
						"POSITION":44,
						"NORMAL":45,
						"TEXCOORD_0":46
					},
					"indices":47,
					"material":3
				}
			]
		},
		{
			"name":"Mesh.074",
			"primitives":[
				{
					"attributes":{
						"POSITION":48,
						"NORMAL":49,
						"TEXCOORD_0":50
					},
					"indices":51,
					"material":3
				}
			]
		},
		{
			"name":"Mesh.073",
			"primitives":[
				{
					"attributes":{
						"POSITION":52,
						"NORMAL":53,
						"TEXCOORD_0":54
					},
					"indices":55,
					"material":3
				}
			]
		},
		{
			"name":"Mesh.066",
			"primitives":[
				{
					"attributes":{
						"POSITION":56,
						"NORMAL":57,
						"TEXCOORD_0":58
					},
					"indices":59,
					"material":3
				}
			]
		},
		{
			"name":"Mesh.067",
			"primitives":[
				{
					"attributes":{
						"POSITION":60,
						"NORMAL":61,
						"TEXCOORD_0":62
					},
					"indices":63,
					"material":3
				}
			]
		},
		{
			"name":"Mesh.068",
			"primitives":[
				{
					"attributes":{
						"POSITION":64,
						"NORMAL":65,
						"TEXCOORD_0":66
					},
					"indices":67,
					"material":3
				}
			]
		},
		{
			"name":"Mesh.072",
			"primitives":[
				{
					"attributes":{
						"POSITION":68,
						"NORMAL":69,
						"TEXCOORD_0":70
					},
					"indices":71,
					"material":3
				}
			]
		},
		{
			"name":"Mesh.069",
			"primitives":[
				{
					"attributes":{
						"POSITION":72,
						"NORMAL":73,
						"TEXCOORD_0":74
					},
					"indices":75,
					"material":3
				}
			]
		},
		{
			"name":"Mesh.070",
			"primitives":[
				{
					"attributes":{
						"POSITION":76,
						"NORMAL":77,
						"TEXCOORD_0":78
					},
					"indices":75,
					"material":3
				}
			]
		},
		{
			"name":"Mesh.071",
			"primitives":[
				{
					"attributes":{
						"POSITION":79,
						"NORMAL":80,
						"TEXCOORD_0":81
					},
					"indices":75,
					"material":3
				}
			]
		},
		{
			"name":"Mesh.065",
			"primitives":[
				{
					"attributes":{
						"POSITION":82,
						"NORMAL":83,
						"TEXCOORD_0":84
					},
					"indices":85,
					"material":3
				}
			]
		},
		{
			"name":"Mesh.027",
			"primitives":[
				{
					"attributes":{
						"POSITION":86,
						"NORMAL":87,
						"TEXCOORD_0":88
					},
					"indices":89,
					"material":3
				}
			]
		},
		{
			"name":"Mesh.028",
			"primitives":[
				{
					"attributes":{
						"POSITION":90,
						"NORMAL":91,
						"TEXCOORD_0":92
					},
					"indices":93,
					"material":3
				}
			]
		},
		{
			"name":"Mesh.034",
			"primitives":[
				{
					"attributes":{
						"POSITION":94,
						"NORMAL":95,
						"TEXCOORD_0":96
					},
					"indices":97,
					"material":3
				}
			]
		},
		{
			"name":"Mesh.031",
			"primitives":[
				{
					"attributes":{
						"POSITION":98,
						"NORMAL":99,
						"TEXCOORD_0":100
					},
					"indices":101,
					"material":3
				}
			]
		},
		{
			"name":"Mesh.026",
			"primitives":[
				{
					"attributes":{
						"POSITION":102,
						"NORMAL":103,
						"TEXCOORD_0":104
					},
					"indices":105,
					"material":3
				}
			]
		},
		{
			"name":"Mesh.086",
			"primitives":[
				{
					"attributes":{
						"POSITION":106,
						"NORMAL":107,
						"TEXCOORD_0":108
					},
					"indices":109,
					"material":3
				}
			]
		},
		{
			"name":"Mesh.087",
			"primitives":[
				{
					"attributes":{
						"POSITION":110,
						"NORMAL":111,
						"TEXCOORD_0":112
					},
					"indices":113,
					"material":4
				}
			]
		},
		{
			"name":"Mesh.088",
			"primitives":[
				{
					"attributes":{
						"POSITION":114,
						"NORMAL":115,
						"TEXCOORD_0":116
					},
					"indices":113,
					"material":4
				}
			]
		},
		{
			"name":"Mesh.089",
			"primitives":[
				{
					"attributes":{
						"POSITION":117,
						"NORMAL":118,
						"TEXCOORD_0":119
					},
					"indices":109,
					"material":3
				}
			]
		},
		{
			"name":"Mesh.092",
			"primitives":[
				{
					"attributes":{
						"POSITION":120,
						"NORMAL":121,
						"TEXCOORD_0":122
					},
					"indices":123,
					"material":3
				}
			]
		},
		{
			"name":"Mesh.091",
			"primitives":[
				{
					"attributes":{
						"POSITION":124,
						"NORMAL":125,
						"TEXCOORD_0":126
					},
					"indices":127,
					"material":3
				}
			]
		},
		{
			"name":"Mesh.093",
			"primitives":[
				{
					"attributes":{
						"POSITION":128,
						"NORMAL":129,
						"TEXCOORD_0":130
					},
					"indices":131,
					"material":3
				}
			]
		},
		{
			"name":"Mesh.090",
			"primitives":[
				{
					"attributes":{
						"POSITION":132,
						"NORMAL":133,
						"TEXCOORD_0":134
					},
					"indices":135,
					"material":3
				}
			]
		},
		{
			"name":"Mesh.095",
			"primitives":[
				{
					"attributes":{
						"POSITION":136,
						"NORMAL":137,
						"TEXCOORD_0":138
					},
					"indices":135,
					"material":3
				}
			]
		},
		{
			"name":"Mesh.094",
			"primitives":[
				{
					"attributes":{
						"POSITION":139,
						"NORMAL":140,
						"TEXCOORD_0":141
					},
					"indices":135,
					"material":3
				}
			]
		},
		{
			"name":"Mesh.085",
			"primitives":[
				{
					"attributes":{
						"POSITION":142,
						"NORMAL":143,
						"TEXCOORD_0":144
					},
					"indices":145,
					"material":5
				}
			]
		},
		{
			"name":"Mesh.018",
			"primitives":[
				{
					"attributes":{
						"POSITION":146,
						"NORMAL":147,
						"TEXCOORD_0":148
					},
					"indices":149,
					"material":3
				}
			]
		},
		{
			"name":"Mesh.019",
			"primitives":[
				{
					"attributes":{
						"POSITION":150,
						"NORMAL":151,
						"TEXCOORD_0":152
					},
					"indices":153,
					"material":3
				}
			]
		},
		{
			"name":"Mesh.020",
			"primitives":[
				{
					"attributes":{
						"POSITION":154,
						"NORMAL":155,
						"TEXCOORD_0":156
					},
					"indices":157,
					"material":3
				}
			]
		},
		{
			"name":"Mesh.017",
			"primitives":[
				{
					"attributes":{
						"POSITION":158,
						"NORMAL":159,
						"TEXCOORD_0":160
					},
					"indices":161,
					"material":3
				}
			]
		},
		{
			"name":"Mesh.022",
			"primitives":[
				{
					"attributes":{
						"POSITION":162,
						"NORMAL":163,
						"TEXCOORD_0":164
					},
					"indices":165,
					"material":3
				}
			]
		},
		{
			"name":"Mesh.023",
			"primitives":[
				{
					"attributes":{
						"POSITION":166,
						"NORMAL":167,
						"TEXCOORD_0":168
					},
					"indices":169,
					"material":3
				}
			]
		},
		{
			"name":"Mesh.025",
			"primitives":[
				{
					"attributes":{
						"POSITION":170,
						"NORMAL":171,
						"TEXCOORD_0":172
					},
					"indices":173,
					"material":3
				}
			]
		},
		{
			"name":"Mesh.021",
			"primitives":[
				{
					"attributes":{
						"POSITION":174,
						"NORMAL":175,
						"TEXCOORD_0":176
					},
					"indices":177,
					"material":3
				}
			]
		},
		{
			"name":"Mesh.013",
			"primitives":[
				{
					"attributes":{
						"POSITION":178,
						"NORMAL":179,
						"TEXCOORD_0":180
					},
					"indices":181,
					"material":3
				}
			]
		},
		{
			"name":"Mesh.014",
			"primitives":[
				{
					"attributes":{
						"POSITION":182,
						"NORMAL":183,
						"TEXCOORD_0":184
					},
					"indices":185,
					"material":3
				}
			]
		},
		{
			"name":"Mesh.015",
			"primitives":[
				{
					"attributes":{
						"POSITION":186,
						"NORMAL":187,
						"TEXCOORD_0":188
					},
					"indices":189,
					"material":3
				}
			]
		},
		{
			"name":"Mesh.012",
			"primitives":[
				{
					"attributes":{
						"POSITION":190,
						"NORMAL":191,
						"TEXCOORD_0":192
					},
					"indices":193,
					"material":3
				}
			]
		},
		{
			"name":"Mesh.097",
			"primitives":[
				{
					"attributes":{
						"POSITION":194,
						"NORMAL":195,
						"TEXCOORD_0":196
					},
					"indices":197,
					"material":3
				}
			]
		},
		{
			"name":"Mesh.096",
			"primitives":[
				{
					"attributes":{
						"POSITION":198,
						"NORMAL":199,
						"TEXCOORD_0":200
					},
					"indices":201,
					"material":6
				}
			]
		},
		{
			"name":"WhiteLight01",
			"primitives":[
				{
					"attributes":{
						"POSITION":202,
						"NORMAL":203,
						"TEXCOORD_0":204
					},
					"indices":3,
					"material":7
				}
			]
		},
		{
			"name":"WhiteLight02",
			"primitives":[
				{
					"attributes":{
						"POSITION":205,
						"NORMAL":206,
						"TEXCOORD_0":207
					},
					"indices":3,
					"material":7
				}
			]
		},
		{
			"name":"WhiteLight03",
			"primitives":[
				{
					"attributes":{
						"POSITION":208,
						"NORMAL":209,
						"TEXCOORD_0":210
					},
					"indices":3,
					"material":7
				}
			]
		},
		{
			"name":"WhiteLight07",
			"primitives":[
				{
					"attributes":{
						"POSITION":211,
						"NORMAL":212,
						"TEXCOORD_0":213
					},
					"indices":3,
					"material":7
				}
			]
		},
		{
			"name":"WhiteLight08",
			"primitives":[
				{
					"attributes":{
						"POSITION":214,
						"NORMAL":215,
						"TEXCOORD_0":216
					},
					"indices":3,
					"material":7
				}
			]
		},
		{
			"name":"WhiteLight09",
			"primitives":[
				{
					"attributes":{
						"POSITION":217,
						"NORMAL":218,
						"TEXCOORD_0":219
					},
					"indices":3,
					"material":7
				}
			]
		},
		{
			"name":"WhiteLight13",
			"primitives":[
				{
					"attributes":{
						"POSITION":220,
						"NORMAL":221,
						"TEXCOORD_0":222
					},
					"indices":3,
					"material":7
				}
			]
		},
		{
			"name":"WhiteLight12",
			"primitives":[
				{
					"attributes":{
						"POSITION":223,
						"NORMAL":224,
						"TEXCOORD_0":225
					},
					"indices":3,
					"material":7
				}
			]
		},
		{
			"name":"WhiteLight11",
			"primitives":[
				{
					"attributes":{
						"POSITION":226,
						"NORMAL":227,
						"TEXCOORD_0":228
					},
					"indices":3,
					"material":7
				}
			]
		},
		{
			"name":"WhiteLight05",
			"primitives":[
				{
					"attributes":{
						"POSITION":229,
						"NORMAL":230,
						"TEXCOORD_0":231
					},
					"indices":3,
					"material":7
				}
			]
		},
		{
			"name":"WhiteLight10",
			"primitives":[
				{
					"attributes":{
						"POSITION":232,
						"NORMAL":233,
						"TEXCOORD_0":234
					},
					"indices":3,
					"material":7
				}
			]
		},
		{
			"name":"WhiteLight04",
			"primitives":[
				{
					"attributes":{
						"POSITION":235,
						"NORMAL":236,
						"TEXCOORD_0":237
					},
					"indices":3,
					"material":7
				}
			]
		},
		{
			"name":"WhiteLight06",
			"primitives":[
				{
					"attributes":{
						"POSITION":238,
						"NORMAL":239,
						"TEXCOORD_0":240
					},
					"indices":3,
					"material":7
				}
			]
		}
	],
	"accessors":[
		{
			"bufferView":0,
			"componentType":5126,
			"count":258,
			"max":[
				0.18267376720905304,
				5.192005157470703,
				-0.12921571731567383
			],
			"min":[
				0.14866092801094055,
				5.043905258178711,
				-0.2773158550262451
			],
			"type":"VEC3"
		},
		{
			"bufferView":1,
			"componentType":5126,
			"count":258,
			"type":"VEC3"
		},
		{
			"bufferView":2,
			"componentType":5126,
			"count":258,
			"type":"VEC2"
		},
		{
			"bufferView":3,
			"componentType":5123,
			"count":384,
			"type":"SCALAR"
		},
		{
			"bufferView":4,
			"componentType":5126,
			"count":258,
			"max":[
				0.18267376720905304,
				5.192005157470703,
				-0.12921571731567383
			],
			"min":[
				0.14866092801094055,
				5.043905258178711,
				-0.2773158550262451
			],
			"type":"VEC3"
		},
		{
			"bufferView":5,
			"componentType":5126,
			"count":258,
			"type":"VEC3"
		},
		{
			"bufferView":6,
			"componentType":5126,
			"count":258,
			"type":"VEC2"
		},
		{
			"bufferView":7,
			"componentType":5126,
			"count":258,
			"max":[
				0.18267376720905304,
				5.192005157470703,
				-0.12921571731567383
			],
			"min":[
				0.14866092801094055,
				5.043905258178711,
				-0.2773158550262451
			],
			"type":"VEC3"
		},
		{
			"bufferView":8,
			"componentType":5126,
			"count":258,
			"type":"VEC3"
		},
		{
			"bufferView":9,
			"componentType":5126,
			"count":258,
			"type":"VEC2"
		},
		{
			"bufferView":10,
			"componentType":5126,
			"count":416,
			"max":[
				0.299211710691452,
				1.8607145547866821,
				-0.07706976681947708
			],
			"min":[
				0.09042467176914215,
				1.6534217596054077,
				-0.2843626141548157
			],
			"type":"VEC3"
		},
		{
			"bufferView":11,
			"componentType":5126,
			"count":416,
			"type":"VEC3"
		},
		{
			"bufferView":12,
			"componentType":5126,
			"count":416,
			"type":"VEC2"
		},
		{
			"bufferView":13,
			"componentType":5123,
			"count":684,
			"type":"SCALAR"
		},
		{
			"bufferView":14,
			"componentType":5126,
			"count":192,
			"max":[
				0.16606298089027405,
				1.6624177694320679,
				-0.08192809671163559
			],
			"min":[
				-0.09878816455602646,
				1.593666434288025,
				-0.2795044779777527
			],
			"type":"VEC3"
		},
		{
			"bufferView":15,
			"componentType":5126,
			"count":192,
			"type":"VEC3"
		},
		{
			"bufferView":16,
			"componentType":5126,
			"count":192,
			"type":"VEC2"
		},
		{
			"bufferView":17,
			"componentType":5123,
			"count":300,
			"type":"SCALAR"
		},
		{
			"bufferView":18,
			"componentType":5126,
			"count":24,
			"max":[
				0.5481274127960205,
				3.0857441425323486,
				-0.04453557729721069
			],
			"min":[
				0.5461483597755432,
				2.955859422683716,
				-0.3168940246105194
			],
			"type":"VEC3"
		},
		{
			"bufferView":19,
			"componentType":5126,
			"count":24,
			"type":"VEC3"
		},
		{
			"bufferView":20,
			"componentType":5126,
			"count":24,
			"type":"VEC2"
		},
		{
			"bufferView":21,
			"componentType":5123,
			"count":36,
			"type":"SCALAR"
		},
		{
			"bufferView":22,
			"componentType":5126,
			"count":150,
			"max":[
				0.5937052369117737,
				2.90834903717041,
				-0.14129512012004852
			],
			"min":[
				0.5481274127960205,
				2.8280229568481445,
				-0.22162126004695892
			],
			"type":"VEC3"
		},
		{
			"bufferView":23,
			"componentType":5126,
			"count":150,
			"type":"VEC3"
		},
		{
			"bufferView":24,
			"componentType":5126,
			"count":150,
			"type":"VEC2"
		},
		{
			"bufferView":25,
			"componentType":5123,
			"count":288,
			"type":"SCALAR"
		},
		{
			"bufferView":26,
			"componentType":5126,
			"count":150,
			"max":[
				0.5937052369117737,
				2.78761625289917,
				-0.2004382610321045
			],
			"min":[
				0.5481274127960205,
				2.7072901725769043,
				-0.2807644009590149
			],
			"type":"VEC3"
		},
		{
			"bufferView":27,
			"componentType":5126,
			"count":150,
			"type":"VEC3"
		},
		{
			"bufferView":28,
			"componentType":5126,
			"count":150,
			"type":"VEC2"
		},
		{
			"bufferView":29,
			"componentType":5126,
			"count":150,
			"max":[
				0.5937052369117737,
				2.78761625289917,
				-0.0821206197142601
			],
			"min":[
				0.5481274127960205,
				2.7072901725769043,
				-0.1624467521905899
			],
			"type":"VEC3"
		},
		{
			"bufferView":30,
			"componentType":5126,
			"count":150,
			"type":"VEC3"
		},
		{
			"bufferView":31,
			"componentType":5126,
			"count":150,
			"type":"VEC2"
		},
		{
			"bufferView":32,
			"componentType":5126,
			"count":106,
			"max":[
				0.5481273531913757,
				2.955859899520874,
				-0.04453602060675621
			],
			"min":[
				0.31053733825683594,
				2.591191053390503,
				-0.3168945610523224
			],
			"type":"VEC3"
		},
		{
			"bufferView":33,
			"componentType":5126,
			"count":106,
			"type":"VEC3"
		},
		{
			"bufferView":34,
			"componentType":5126,
			"count":106,
			"type":"VEC2"
		},
		{
			"bufferView":35,
			"componentType":5123,
			"count":180,
			"type":"SCALAR"
		},
		{
			"bufferView":36,
			"componentType":5126,
			"count":26,
			"max":[
				0.5101436376571655,
				2.4938693046569824,
				0.017194479703903198
			],
			"min":[
				0.5081643462181091,
				2.2959587574005127,
				-0.3786257207393646
			],
			"type":"VEC3"
		},
		{
			"bufferView":37,
			"componentType":5126,
			"count":26,
			"type":"VEC3"
		},
		{
			"bufferView":38,
			"componentType":5126,
			"count":26,
			"type":"VEC2"
		},
		{
			"bufferView":39,
			"componentType":5123,
			"count":36,
			"type":"SCALAR"
		},
		{
			"bufferView":40,
			"componentType":5126,
			"count":383,
			"max":[
				0.5091542601585388,
				2.5911920070648193,
				-0.07107439637184143
			],
			"min":[
				0.09878819435834885,
				2.150808572769165,
				-0.29035791754722595
			],
			"type":"VEC3"
		},
		{
			"bufferView":41,
			"componentType":5126,
			"count":383,
			"type":"VEC3"
		},
		{
			"bufferView":42,
			"componentType":5126,
			"count":383,
			"type":"VEC2"
		},
		{
			"bufferView":43,
			"componentType":5123,
			"count":600,
			"type":"SCALAR"
		},
		{
			"bufferView":44,
			"componentType":5126,
			"count":128,
			"max":[
				0.09878817200660706,
				2.3991622924804688,
				-0.08192775398492813
			],
			"min":[
				-0.09878815710544586,
				2.1616694927215576,
				-0.2795061469078064
			],
			"type":"VEC3"
		},
		{
			"bufferView":45,
			"componentType":5126,
			"count":128,
			"type":"VEC3"
		},
		{
			"bufferView":46,
			"componentType":5126,
			"count":128,
			"type":"VEC2"
		},
		{
			"bufferView":47,
			"componentType":5123,
			"count":192,
			"type":"SCALAR"
		},
		{
			"bufferView":48,
			"componentType":5126,
			"count":377,
			"max":[
				0.5263081192970276,
				3.4222218990325928,
				-0.051837436854839325
			],
			"min":[
				0.09878819435834885,
				2.9609062671661377,
				-0.3095948100090027
			],
			"type":"VEC3"
		},
		{
			"bufferView":49,
			"componentType":5126,
			"count":377,
			"type":"VEC3"
		},
		{
			"bufferView":50,
			"componentType":5126,
			"count":377,
			"type":"VEC2"
		},
		{
			"bufferView":51,
			"componentType":5123,
			"count":600,
			"type":"SCALAR"
		},
		{
			"bufferView":52,
			"componentType":5126,
			"count":254,
			"max":[
				0.09878817200660706,
				3.2092599868774414,
				0.0843336209654808
			],
			"min":[
				-0.12021034210920334,
				2.9717674255371094,
				-0.445766806602478
			],
			"type":"VEC3"
		},
		{
			"bufferView":53,
			"componentType":5126,
			"count":254,
			"type":"VEC3"
		},
		{
			"bufferView":54,
			"componentType":5126,
			"count":254,
			"type":"VEC2"
		},
		{
			"bufferView":55,
			"componentType":5123,
			"count":372,
			"type":"SCALAR"
		},
		{
			"bufferView":56,
			"componentType":5126,
			"count":257,
			"max":[
				0.837134838104248,
				4.383212089538574,
				-0.08484090864658356
			],
			"min":[
				0.5447172522544861,
				4.191462516784668,
				-0.27659010887145996
			],
			"type":"VEC3"
		},
		{
			"bufferView":57,
			"componentType":5126,
			"count":257,
			"type":"VEC3"
		},
		{
			"bufferView":58,
			"componentType":5126,
			"count":257,
			"type":"VEC2"
		},
		{
			"bufferView":59,
			"componentType":5123,
			"count":468,
			"type":"SCALAR"
		},
		{
			"bufferView":60,
			"componentType":5126,
			"count":255,
			"max":[
				0.837134838104248,
				4.14352560043335,
				-0.08484097570180893
			],
			"min":[
				0.5447172522544861,
				3.9517757892608643,
				-0.2765901982784271
			],
			"type":"VEC3"
		},
		{
			"bufferView":61,
			"componentType":5126,
			"count":255,
			"type":"VEC3"
		},
		{
			"bufferView":62,
			"componentType":5126,
			"count":255,
			"type":"VEC2"
		},
		{
			"bufferView":63,
			"componentType":5123,
			"count":468,
			"type":"SCALAR"
		},
		{
			"bufferView":64,
			"componentType":5126,
			"count":245,
			"max":[
				0.837134838104248,
				3.903839111328125,
				-0.08484096825122833
			],
			"min":[
				0.5447172522544861,
				3.7120895385742188,
				-0.27659016847610474
			],
			"type":"VEC3"
		},
		{
			"bufferView":65,
			"componentType":5126,
			"count":245,
			"type":"VEC3"
		},
		{
			"bufferView":66,
			"componentType":5126,
			"count":245,
			"type":"VEC2"
		},
		{
			"bufferView":67,
			"componentType":5123,
			"count":468,
			"type":"SCALAR"
		},
		{
			"bufferView":68,
			"componentType":5126,
			"count":24,
			"max":[
				0.5914493799209595,
				3.3091013431549072,
				0.004550478421151638
			],
			"min":[
				0.5894702076911926,
				3.0857441425323486,
				-0.3659821152687073
			],
			"type":"VEC3"
		},
		{
			"bufferView":69,
			"componentType":5126,
			"count":24,
			"type":"VEC3"
		},
		{
			"bufferView":70,
			"componentType":5126,
			"count":24,
			"type":"VEC2"
		},
		{
			"bufferView":71,
			"componentType":5123,
			"count":36,
			"type":"SCALAR"
		},
		{
			"bufferView":72,
			"componentType":5126,
			"count":50,
			"max":[
				0.4770258665084839,
				3.4737038612365723,
				-0.32560107111930847
			],
			"min":[
				0.4501403570175171,
				3.2838332653045654,
				-0.3524866998195648
			],
			"type":"VEC3"
		},
		{
			"bufferView":73,
			"componentType":5126,
			"count":50,
			"type":"VEC3"
		},
		{
			"bufferView":74,
			"componentType":5126,
			"count":50,
			"type":"VEC2"
		},
		{
			"bufferView":75,
			"componentType":5123,
			"count":96,
			"type":"SCALAR"
		},
		{
			"bufferView":76,
			"componentType":5126,
			"count":50,
			"max":[
				0.4770258665084839,
				3.4737038612365723,
				-0.008944912813603878
			],
			"min":[
				0.4501403570175171,
				3.2838332653045654,
				-0.035830508917570114
			],
			"type":"VEC3"
		},
		{
			"bufferView":77,
			"componentType":5126,
			"count":50,
			"type":"VEC3"
		},
		{
			"bufferView":78,
			"componentType":5126,
			"count":50,
			"type":"VEC2"
		},
		{
			"bufferView":79,
			"componentType":5126,
			"count":50,
			"max":[
				0.3016672432422638,
				3.4737038612365723,
				-0.16727302968502045
			],
			"min":[
				0.274781733751297,
				3.2838332653045654,
				-0.19415859878063202
			],
			"type":"VEC3"
		},
		{
			"bufferView":80,
			"componentType":5126,
			"count":50,
			"type":"VEC3"
		},
		{
			"bufferView":81,
			"componentType":5126,
			"count":50,
			"type":"VEC2"
		},
		{
			"bufferView":82,
			"componentType":5126,
			"count":863,
			"max":[
				0.5914492607116699,
				4.527023792266846,
				0.05897130072116852
			],
			"min":[
				0.24865874648094177,
				3.3091001510620117,
				-0.42040181159973145
			],
			"type":"VEC3"
		},
		{
			"bufferView":83,
			"componentType":5126,
			"count":863,
			"type":"VEC3"
		},
		{
			"bufferView":84,
			"componentType":5126,
			"count":863,
			"type":"VEC2"
		},
		{
			"bufferView":85,
			"componentType":5123,
			"count":1560,
			"type":"SCALAR"
		},
		{
			"bufferView":86,
			"componentType":5126,
			"count":259,
			"max":[
				0.4349004030227661,
				5.0346245765686035,
				0.06981302052736282
			],
			"min":[
				0.14248283207416534,
				4.842895030975342,
				-0.12191595882177353
			],
			"type":"VEC3"
		},
		{
			"bufferView":87,
			"componentType":5126,
			"count":259,
			"type":"VEC3"
		},
		{
			"bufferView":88,
			"componentType":5126,
			"count":259,
			"type":"VEC2"
		},
		{
			"bufferView":89,
			"componentType":5123,
			"count":468,
			"type":"SCALAR"
		},
		{
			"bufferView":90,
			"componentType":5126,
			"count":255,
			"max":[
				0.4349004924297333,
				5.213830947875977,
				-0.10739189386367798
			],
			"min":[
				0.14248289167881012,
				5.022083282470703,
				-0.2991393208503723
			],
			"type":"VEC3"
		},
		{
			"bufferView":91,
			"componentType":5126,
			"count":255,
			"type":"VEC3"
		},
		{
			"bufferView":92,
			"componentType":5126,
			"count":255,
			"type":"VEC2"
		},
		{
			"bufferView":93,
			"componentType":5123,
			"count":468,
			"type":"SCALAR"
		},
		{
			"bufferView":94,
			"componentType":5126,
			"count":253,
			"max":[
				0.4349004924297333,
				5.2138800621032715,
				0.13286052644252777
			],
			"min":[
				0.14248289167881012,
				5.022130489349365,
				-0.058888670057058334
			],
			"type":"VEC3"
		},
		{
			"bufferView":95,
			"componentType":5126,
			"count":253,
			"type":"VEC3"
		},
		{
			"bufferView":96,
			"componentType":5126,
			"count":253,
			"type":"VEC2"
		},
		{
			"bufferView":97,
			"componentType":5123,
			"count":468,
			"type":"SCALAR"
		},
		{
			"bufferView":98,
			"componentType":5126,
			"count":257,
			"max":[
				0.4349004328250885,
				5.391999244689941,
				0.03390560299158096
			],
			"min":[
				0.14248284697532654,
				5.200249671936035,
				-0.15784358978271484
			],
			"type":"VEC3"
		},
		{
			"bufferView":99,
			"componentType":5126,
			"count":257,
			"type":"VEC3"
		},
		{
			"bufferView":100,
			"componentType":5126,
			"count":257,
			"type":"VEC2"
		},
		{
			"bufferView":101,
			"componentType":5123,
			"count":468,
			"type":"SCALAR"
		},
		{
			"bufferView":102,
			"componentType":5126,
			"count":98,
			"max":[
				0.14248283207416534,
				5.473062515258789,
				0.17433932423591614
			],
			"min":[
				-0.22759659588336945,
				4.762949466705322,
				-0.5357697010040283
			],
			"type":"VEC3"
		},
		{
			"bufferView":103,
			"componentType":5126,
			"count":98,
			"type":"VEC3"
		},
		{
			"bufferView":104,
			"componentType":5126,
			"count":98,
			"type":"VEC2"
		},
		{
			"bufferView":105,
			"componentType":5123,
			"count":192,
			"type":"SCALAR"
		},
		{
			"bufferView":106,
			"componentType":5126,
			"count":117,
			"max":[
				0.13098323345184326,
				0.661275327205658,
				-0.25973501801490784
			],
			"min":[
				0.07528766989707947,
				0.6177595853805542,
				-0.3079688549041748
			],
			"type":"VEC3"
		},
		{
			"bufferView":107,
			"componentType":5126,
			"count":117,
			"type":"VEC3"
		},
		{
			"bufferView":108,
			"componentType":5126,
			"count":117,
			"type":"VEC2"
		},
		{
			"bufferView":109,
			"componentType":5123,
			"count":198,
			"type":"SCALAR"
		},
		{
			"bufferView":110,
			"componentType":5126,
			"count":117,
			"max":[
				0.13098323345184326,
				0.6612752079963684,
				-0.05346433445811272
			],
			"min":[
				0.07528764754533768,
				0.6177594661712646,
				-0.10169796645641327
			],
			"type":"VEC3"
		},
		{
			"bufferView":111,
			"componentType":5126,
			"count":117,
			"type":"VEC3"
		},
		{
			"bufferView":112,
			"componentType":5126,
			"count":117,
			"type":"VEC2"
		},
		{
			"bufferView":113,
			"componentType":5123,
			"count":198,
			"type":"SCALAR"
		},
		{
			"bufferView":114,
			"componentType":5126,
			"count":117,
			"max":[
				-0.07528769224882126,
				0.6612752079963684,
				-0.05346433445811272
			],
			"min":[
				-0.13098324835300446,
				0.6177594661712646,
				-0.10169796645641327
			],
			"type":"VEC3"
		},
		{
			"bufferView":115,
			"componentType":5126,
			"count":117,
			"type":"VEC3"
		},
		{
			"bufferView":116,
			"componentType":5126,
			"count":117,
			"type":"VEC2"
		},
		{
			"bufferView":117,
			"componentType":5126,
			"count":117,
			"max":[
				-0.07528769224882126,
				0.661275327205658,
				-0.25973501801490784
			],
			"min":[
				-0.13098324835300446,
				0.6177595853805542,
				-0.3079688549041748
			],
			"type":"VEC3"
		},
		{
			"bufferView":118,
			"componentType":5126,
			"count":117,
			"type":"VEC3"
		},
		{
			"bufferView":119,
			"componentType":5126,
			"count":117,
			"type":"VEC2"
		},
		{
			"bufferView":120,
			"componentType":5126,
			"count":64,
			"max":[
				0.05697180703282356,
				4.8003034591674805,
				-0.3256005644798279
			],
			"min":[
				0.030086291953921318,
				4.501471042633057,
				-0.35248616337776184
			],
			"type":"VEC3"
		},
		{
			"bufferView":121,
			"componentType":5126,
			"count":64,
			"type":"VEC3"
		},
		{
			"bufferView":122,
			"componentType":5126,
			"count":64,
			"type":"VEC2"
		},
		{
			"bufferView":123,
			"componentType":5123,
			"count":96,
			"type":"SCALAR"
		},
		{
			"bufferView":124,
			"componentType":5126,
			"count":55,
			"max":[
				0.05697180703282356,
				4.8003034591674805,
				-0.008944430388510227
			],
			"min":[
				0.030086291953921318,
				4.501471042633057,
				-0.0358300544321537
			],
			"type":"VEC3"
		},
		{
			"bufferView":125,
			"componentType":5126,
			"count":55,
			"type":"VEC3"
		},
		{
			"bufferView":126,
			"componentType":5126,
			"count":55,
			"type":"VEC2"
		},
		{
			"bufferView":127,
			"componentType":5123,
			"count":96,
			"type":"SCALAR"
		},
		{
			"bufferView":128,
			"componentType":5126,
			"count":65,
			"max":[
				-0.11838679760694504,
				4.8003034591674805,
				-0.16727253794670105
			],
			"min":[
				-0.14527229964733124,
				4.501471042633057,
				-0.194158136844635
			],
			"type":"VEC3"
		},
		{
			"bufferView":129,
			"componentType":5126,
			"count":65,
			"type":"VEC3"
		},
		{
			"bufferView":130,
			"componentType":5126,
			"count":65,
			"type":"VEC2"
		},
		{
			"bufferView":131,
			"componentType":5123,
			"count":96,
			"type":"SCALAR"
		},
		{
			"bufferView":132,
			"componentType":5126,
			"count":62,
			"max":[
				0.17139530181884766,
				4.565039157867432,
				0.0045509543269872665
			],
			"min":[
				-0.17139530181884766,
				4.538825511932373,
				-0.3659815192222595
			],
			"type":"VEC3"
		},
		{
			"bufferView":133,
			"componentType":5126,
			"count":62,
			"type":"VEC3"
		},
		{
			"bufferView":134,
			"componentType":5126,
			"count":62,
			"type":"VEC2"
		},
		{
			"bufferView":135,
			"componentType":5123,
			"count":108,
			"type":"SCALAR"
		},
		{
			"bufferView":136,
			"componentType":5126,
			"count":62,
			"max":[
				0.17139530181884766,
				4.683502197265625,
				0.004550954792648554
			],
			"min":[
				-0.17139530181884766,
				4.657288074493408,
				-0.3659815490245819
			],
			"type":"VEC3"
		},
		{
			"bufferView":137,
			"componentType":5126,
			"count":62,
			"type":"VEC3"
		},
		{
			"bufferView":138,
			"componentType":5126,
			"count":62,
			"type":"VEC2"
		},
		{
			"bufferView":139,
			"componentType":5126,
			"count":62,
			"max":[
				0.17139530181884766,
				4.762949466705322,
				0.004550955258309841
			],
			"min":[
				-0.17139530181884766,
				4.7367353439331055,
				-0.3659815192222595
			],
			"type":"VEC3"
		},
		{
			"bufferView":140,
			"componentType":5126,
			"count":62,
			"type":"VEC3"
		},
		{
			"bufferView":141,
			"componentType":5126,
			"count":62,
			"type":"VEC2"
		},
		{
			"bufferView":142,
			"componentType":5126,
			"count":510,
			"max":[
				0.1927560567855835,
				4.736734867095947,
				0.012039815075695515
			],
			"min":[
				-0.1927560567855835,
				0.5937302708625793,
				-0.37347227334976196
			],
			"type":"VEC3"
		},
		{
			"bufferView":143,
			"componentType":5126,
			"count":510,
			"type":"VEC3"
		},
		{
			"bufferView":144,
			"componentType":5126,
			"count":510,
			"type":"VEC2"
		},
		{
			"bufferView":145,
			"componentType":5123,
			"count":936,
			"type":"SCALAR"
		},
		{
			"bufferView":146,
			"componentType":5126,
			"count":255,
			"max":[
				0.4349004924297333,
				4.494177341461182,
				0.6348581314086914
			],
			"min":[
				0.14248289167881012,
				4.302427768707275,
				0.4431089162826538
			],
			"type":"VEC3"
		},
		{
			"bufferView":147,
			"componentType":5126,
			"count":255,
			"type":"VEC3"
		},
		{
			"bufferView":148,
			"componentType":5126,
			"count":255,
			"type":"VEC2"
		},
		{
			"bufferView":149,
			"componentType":5123,
			"count":468,
			"type":"SCALAR"
		},
		{
			"bufferView":150,
			"componentType":5126,
			"count":247,
			"max":[
				0.4349004626274109,
				4.663661003112793,
				0.4653742015361786
			],
			"min":[
				0.14248287677764893,
				4.471911430358887,
				0.273624986410141
			],
			"type":"VEC3"
		},
		{
			"bufferView":151,
			"componentType":5126,
			"count":247,
			"type":"VEC3"
		},
		{
			"bufferView":152,
			"componentType":5126,
			"count":247,
			"type":"VEC2"
		},
		{
			"bufferView":153,
			"componentType":5123,
			"count":468,
			"type":"SCALAR"
		},
		{
			"bufferView":154,
			"componentType":5126,
			"count":247,
			"max":[
				0.43490052223205566,
				4.833145618438721,
				0.2958901822566986
			],
			"min":[
				0.14248287677764893,
				4.6413960456848145,
				0.1041409969329834
			],
			"type":"VEC3"
		},
		{
			"bufferView":155,
			"componentType":5126,
			"count":247,
			"type":"VEC3"
		},
		{
			"bufferView":156,
			"componentType":5126,
			"count":247,
			"type":"VEC2"
		},
		{
			"bufferView":157,
			"componentType":5123,
			"count":468,
			"type":"SCALAR"
		},
		{
			"bufferView":158,
			"componentType":5126,
			"count":232,
			"max":[
				0.14248289167881012,
				4.950746059417725,
				0.7699928283691406
			],
			"min":[
				-0.07895269989967346,
				4.167294502258301,
				-0.013458958826959133
			],
			"type":"VEC3"
		},
		{
			"bufferView":159,
			"componentType":5126,
			"count":232,
			"type":"VEC3"
		},
		{
			"bufferView":160,
			"componentType":5126,
			"count":232,
			"type":"VEC2"
		},
		{
			"bufferView":161,
			"componentType":5123,
			"count":558,
			"type":"SCALAR"
		},
		{
			"bufferView":162,
			"componentType":5126,
			"count":255,
			"max":[
				0.4349004924297333,
				5.213877201080322,
				0.9329690933227539
			],
			"min":[
				0.14248289167881012,
				5.022127628326416,
				0.7412199378013611
			],
			"type":"VEC3"
		},
		{
			"bufferView":163,
			"componentType":5126,
			"count":255,
			"type":"VEC3"
		},
		{
			"bufferView":164,
			"componentType":5126,
			"count":255,
			"type":"VEC2"
		},
		{
			"bufferView":165,
			"componentType":5123,
			"count":468,
			"type":"SCALAR"
		},
		{
			"bufferView":166,
			"componentType":5126,
			"count":251,
			"max":[
				0.4349004924297333,
				5.213877201080322,
				0.693282425403595
			],
			"min":[
				0.14248289167881012,
				5.022127628326416,
				0.5015332102775574
			],
			"type":"VEC3"
		},
		{
			"bufferView":167,
			"componentType":5126,
			"count":251,
			"type":"VEC3"
		},
		{
			"bufferView":168,
			"componentType":5126,
			"count":251,
			"type":"VEC2"
		},
		{
			"bufferView":169,
			"componentType":5123,
			"count":468,
			"type":"SCALAR"
		},
		{
			"bufferView":170,
			"componentType":5126,
			"count":255,
			"max":[
				0.4349004924297333,
				5.2138776779174805,
				0.4535961151123047
			],
			"min":[
				0.14248289167881012,
				5.022128105163574,
				0.2618469297885895
			],
			"type":"VEC3"
		},
		{
			"bufferView":171,
			"componentType":5126,
			"count":255,
			"type":"VEC3"
		},
		{
			"bufferView":172,
			"componentType":5126,
			"count":255,
			"type":"VEC2"
		},
		{
			"bufferView":173,
			"componentType":5123,
			"count":468,
			"type":"SCALAR"
		},
		{
			"bufferView":174,
			"componentType":5126,
			"count":231,
			"max":[
				0.14248289167881012,
				5.3112921714782715,
				1.0442497730255127
			],
			"min":[
				-0.07895269989967346,
				4.924713134765625,
				0.1743391752243042
			],
			"type":"VEC3"
		},
		{
			"bufferView":175,
			"componentType":5126,
			"count":231,
			"type":"VEC3"
		},
		{
			"bufferView":176,
			"componentType":5126,
			"count":231,
			"type":"VEC2"
		},
		{
			"bufferView":177,
			"componentType":5123,
			"count":558,
			"type":"SCALAR"
		},
		{
			"bufferView":178,
			"componentType":5126,
			"count":255,
			"max":[
				0.4349004924297333,
				5.9335784912109375,
				0.634861171245575
			],
			"min":[
				0.14248289167881012,
				5.741828918457031,
				0.44311201572418213
			],
			"type":"VEC3"
		},
		{
			"bufferView":179,
			"componentType":5126,
			"count":255,
			"type":"VEC3"
		},
		{
			"bufferView":180,
			"componentType":5126,
			"count":255,
			"type":"VEC2"
		},
		{
			"bufferView":181,
			"componentType":5123,
			"count":468,
			"type":"SCALAR"
		},
		{
			"bufferView":182,
			"componentType":5126,
			"count":255,
			"max":[
				0.4349004626274109,
				5.764094352722168,
				0.4653772711753845
			],
			"min":[
				0.14248289167881012,
				5.572344779968262,
				0.2736280560493469
			],
			"type":"VEC3"
		},
		{
			"bufferView":183,
			"componentType":5126,
			"count":255,
			"type":"VEC3"
		},
		{
			"bufferView":184,
			"componentType":5126,
			"count":255,
			"type":"VEC2"
		},
		{
			"bufferView":185,
			"componentType":5123,
			"count":468,
			"type":"SCALAR"
		},
		{
			"bufferView":186,
			"componentType":5126,
			"count":245,
			"max":[
				0.4349004924297333,
				5.594610691070557,
				0.2958930730819702
			],
			"min":[
				0.14248289167881012,
				5.40286111831665,
				0.10414388030767441
			],
			"type":"VEC3"
		},
		{
			"bufferView":187,
			"componentType":5126,
			"count":245,
			"type":"VEC3"
		},
		{
			"bufferView":188,
			"componentType":5126,
			"count":245,
			"type":"VEC2"
		},
		{
			"bufferView":189,
			"componentType":5123,
			"count":468,
			"type":"SCALAR"
		},
		{
			"bufferView":190,
			"componentType":5126,
			"count":231,
			"max":[
				0.14248289167881012,
				6.0687127113342285,
				0.769996166229248
			],
			"min":[
				-0.07895269989967346,
				5.285261154174805,
				-0.013455823995172977
			],
			"type":"VEC3"
		},
		{
			"bufferView":191,
			"componentType":5126,
			"count":231,
			"type":"VEC3"
		},
		{
			"bufferView":192,
			"componentType":5126,
			"count":231,
			"type":"VEC2"
		},
		{
			"bufferView":193,
			"componentType":5123,
			"count":558,
			"type":"SCALAR"
		},
		{
			"bufferView":194,
			"componentType":5126,
			"count":1027,
			"max":[
				0.090498186647892,
				4.824095249176025,
				0.1945720762014389
			],
			"min":[
				-1.2171382904052734,
				-0.7915269732475281,
				-0.5560036897659302
			],
			"type":"VEC3"
		},
		{
			"bufferView":195,
			"componentType":5126,
			"count":1027,
			"type":"VEC3"
		},
		{
			"bufferView":196,
			"componentType":5126,
			"count":1027,
			"type":"VEC2"
		},
		{
			"bufferView":197,
			"componentType":5123,
			"count":2400,
			"type":"SCALAR"
		},
		{
			"bufferView":198,
			"componentType":5126,
			"count":24,
			"max":[
				0.37593889236450195,
				0.5937303304672241,
				0.19522231817245483
			],
			"min":[
				-0.37593889236450195,
				-1.125369095689166e-07,
				-0.5566555261611938
			],
			"type":"VEC3"
		},
		{
			"bufferView":199,
			"componentType":5126,
			"count":24,
			"type":"VEC3"
		},
		{
			"bufferView":200,
			"componentType":5126,
			"count":24,
			"type":"VEC2"
		},
		{
			"bufferView":201,
			"componentType":5123,
			"count":36,
			"type":"SCALAR"
		},
		{
			"bufferView":202,
			"componentType":5126,
			"count":258,
			"max":[
				0.18267376720905304,
				5.192005157470703,
				-0.12921571731567383
			],
			"min":[
				0.14866092801094055,
				5.043905258178711,
				-0.2773158550262451
			],
			"type":"VEC3"
		},
		{
			"bufferView":203,
			"componentType":5126,
			"count":258,
			"type":"VEC3"
		},
		{
			"bufferView":204,
			"componentType":5126,
			"count":258,
			"type":"VEC2"
		},
		{
			"bufferView":205,
			"componentType":5126,
			"count":258,
			"max":[
				0.18267376720905304,
				5.192005157470703,
				-0.12921571731567383
			],
			"min":[
				0.14866092801094055,
				5.043905258178711,
				-0.2773158550262451
			],
			"type":"VEC3"
		},
		{
			"bufferView":206,
			"componentType":5126,
			"count":258,
			"type":"VEC3"
		},
		{
			"bufferView":207,
			"componentType":5126,
			"count":258,
			"type":"VEC2"
		},
		{
			"bufferView":208,
			"componentType":5126,
			"count":258,
			"max":[
				0.18267376720905304,
				5.192005157470703,
				-0.12921571731567383
			],
			"min":[
				0.14866092801094055,
				5.043905258178711,
				-0.2773158550262451
			],
			"type":"VEC3"
		},
		{
			"bufferView":209,
			"componentType":5126,
			"count":258,
			"type":"VEC3"
		},
		{
			"bufferView":210,
			"componentType":5126,
			"count":258,
			"type":"VEC2"
		},
		{
			"bufferView":211,
			"componentType":5126,
			"count":258,
			"max":[
				0.18267376720905304,
				5.192005157470703,
				-0.12921571731567383
			],
			"min":[
				0.14866092801094055,
				5.043905258178711,
				-0.2773158550262451
			],
			"type":"VEC3"
		},
		{
			"bufferView":212,
			"componentType":5126,
			"count":258,
			"type":"VEC3"
		},
		{
			"bufferView":213,
			"componentType":5126,
			"count":258,
			"type":"VEC2"
		},
		{
			"bufferView":214,
			"componentType":5126,
			"count":258,
			"max":[
				0.18267376720905304,
				5.192005157470703,
				-0.12921571731567383
			],
			"min":[
				0.14866092801094055,
				5.043905258178711,
				-0.2773158550262451
			],
			"type":"VEC3"
		},
		{
			"bufferView":215,
			"componentType":5126,
			"count":258,
			"type":"VEC3"
		},
		{
			"bufferView":216,
			"componentType":5126,
			"count":258,
			"type":"VEC2"
		},
		{
			"bufferView":217,
			"componentType":5126,
			"count":258,
			"max":[
				0.18267376720905304,
				5.192005157470703,
				-0.12921571731567383
			],
			"min":[
				0.14866092801094055,
				5.043905258178711,
				-0.2773158550262451
			],
			"type":"VEC3"
		},
		{
			"bufferView":218,
			"componentType":5126,
			"count":258,
			"type":"VEC3"
		},
		{
			"bufferView":219,
			"componentType":5126,
			"count":258,
			"type":"VEC2"
		},
		{
			"bufferView":220,
			"componentType":5126,
			"count":258,
			"max":[
				0.18267376720905304,
				5.192005157470703,
				-0.12921571731567383
			],
			"min":[
				0.14866092801094055,
				5.043905258178711,
				-0.2773158550262451
			],
			"type":"VEC3"
		},
		{
			"bufferView":221,
			"componentType":5126,
			"count":258,
			"type":"VEC3"
		},
		{
			"bufferView":222,
			"componentType":5126,
			"count":258,
			"type":"VEC2"
		},
		{
			"bufferView":223,
			"componentType":5126,
			"count":258,
			"max":[
				0.18267376720905304,
				5.192005157470703,
				-0.12921571731567383
			],
			"min":[
				0.14866092801094055,
				5.043905258178711,
				-0.2773158550262451
			],
			"type":"VEC3"
		},
		{
			"bufferView":224,
			"componentType":5126,
			"count":258,
			"type":"VEC3"
		},
		{
			"bufferView":225,
			"componentType":5126,
			"count":258,
			"type":"VEC2"
		},
		{
			"bufferView":226,
			"componentType":5126,
			"count":258,
			"max":[
				0.18267376720905304,
				5.192005157470703,
				-0.12921571731567383
			],
			"min":[
				0.14866092801094055,
				5.043905258178711,
				-0.2773158550262451
			],
			"type":"VEC3"
		},
		{
			"bufferView":227,
			"componentType":5126,
			"count":258,
			"type":"VEC3"
		},
		{
			"bufferView":228,
			"componentType":5126,
			"count":258,
			"type":"VEC2"
		},
		{
			"bufferView":229,
			"componentType":5126,
			"count":258,
			"max":[
				0.18267376720905304,
				5.192005157470703,
				-0.12921571731567383
			],
			"min":[
				0.14866092801094055,
				5.043905258178711,
				-0.2773158550262451
			],
			"type":"VEC3"
		},
		{
			"bufferView":230,
			"componentType":5126,
			"count":258,
			"type":"VEC3"
		},
		{
			"bufferView":231,
			"componentType":5126,
			"count":258,
			"type":"VEC2"
		},
		{
			"bufferView":232,
			"componentType":5126,
			"count":258,
			"max":[
				0.18267376720905304,
				5.192005157470703,
				-0.12921571731567383
			],
			"min":[
				0.14866092801094055,
				5.043905258178711,
				-0.2773158550262451
			],
			"type":"VEC3"
		},
		{
			"bufferView":233,
			"componentType":5126,
			"count":258,
			"type":"VEC3"
		},
		{
			"bufferView":234,
			"componentType":5126,
			"count":258,
			"type":"VEC2"
		},
		{
			"bufferView":235,
			"componentType":5126,
			"count":258,
			"max":[
				0.18267376720905304,
				5.192005157470703,
				-0.12921571731567383
			],
			"min":[
				0.14866092801094055,
				5.043905258178711,
				-0.2773158550262451
			],
			"type":"VEC3"
		},
		{
			"bufferView":236,
			"componentType":5126,
			"count":258,
			"type":"VEC3"
		},
		{
			"bufferView":237,
			"componentType":5126,
			"count":258,
			"type":"VEC2"
		},
		{
			"bufferView":238,
			"componentType":5126,
			"count":258,
			"max":[
				0.18267376720905304,
				5.192005157470703,
				-0.12921571731567383
			],
			"min":[
				0.14866092801094055,
				5.043905258178711,
				-0.2773158550262451
			],
			"type":"VEC3"
		},
		{
			"bufferView":239,
			"componentType":5126,
			"count":258,
			"type":"VEC3"
		},
		{
			"bufferView":240,
			"componentType":5126,
			"count":258,
			"type":"VEC2"
		}
	],
	"bufferViews":[
		{
			"buffer":0,
			"byteLength":3096,
			"byteOffset":0,
			"target":34962
		},
		{
			"buffer":0,
			"byteLength":3096,
			"byteOffset":3096,
			"target":34962
		},
		{
			"buffer":0,
			"byteLength":2064,
			"byteOffset":6192,
			"target":34962
		},
		{
			"buffer":0,
			"byteLength":768,
			"byteOffset":8256,
			"target":34963
		},
		{
			"buffer":0,
			"byteLength":3096,
			"byteOffset":9024,
			"target":34962
		},
		{
			"buffer":0,
			"byteLength":3096,
			"byteOffset":12120,
			"target":34962
		},
		{
			"buffer":0,
			"byteLength":2064,
			"byteOffset":15216,
			"target":34962
		},
		{
			"buffer":0,
			"byteLength":3096,
			"byteOffset":17280,
			"target":34962
		},
		{
			"buffer":0,
			"byteLength":3096,
			"byteOffset":20376,
			"target":34962
		},
		{
			"buffer":0,
			"byteLength":2064,
			"byteOffset":23472,
			"target":34962
		},
		{
			"buffer":0,
			"byteLength":4992,
			"byteOffset":25536,
			"target":34962
		},
		{
			"buffer":0,
			"byteLength":4992,
			"byteOffset":30528,
			"target":34962
		},
		{
			"buffer":0,
			"byteLength":3328,
			"byteOffset":35520,
			"target":34962
		},
		{
			"buffer":0,
			"byteLength":1368,
			"byteOffset":38848,
			"target":34963
		},
		{
			"buffer":0,
			"byteLength":2304,
			"byteOffset":40216,
			"target":34962
		},
		{
			"buffer":0,
			"byteLength":2304,
			"byteOffset":42520,
			"target":34962
		},
		{
			"buffer":0,
			"byteLength":1536,
			"byteOffset":44824,
			"target":34962
		},
		{
			"buffer":0,
			"byteLength":600,
			"byteOffset":46360,
			"target":34963
		},
		{
			"buffer":0,
			"byteLength":288,
			"byteOffset":46960,
			"target":34962
		},
		{
			"buffer":0,
			"byteLength":288,
			"byteOffset":47248,
			"target":34962
		},
		{
			"buffer":0,
			"byteLength":192,
			"byteOffset":47536,
			"target":34962
		},
		{
			"buffer":0,
			"byteLength":72,
			"byteOffset":47728,
			"target":34963
		},
		{
			"buffer":0,
			"byteLength":1800,
			"byteOffset":47800,
			"target":34962
		},
		{
			"buffer":0,
			"byteLength":1800,
			"byteOffset":49600,
			"target":34962
		},
		{
			"buffer":0,
			"byteLength":1200,
			"byteOffset":51400,
			"target":34962
		},
		{
			"buffer":0,
			"byteLength":576,
			"byteOffset":52600,
			"target":34963
		},
		{
			"buffer":0,
			"byteLength":1800,
			"byteOffset":53176,
			"target":34962
		},
		{
			"buffer":0,
			"byteLength":1800,
			"byteOffset":54976,
			"target":34962
		},
		{
			"buffer":0,
			"byteLength":1200,
			"byteOffset":56776,
			"target":34962
		},
		{
			"buffer":0,
			"byteLength":1800,
			"byteOffset":57976,
			"target":34962
		},
		{
			"buffer":0,
			"byteLength":1800,
			"byteOffset":59776,
			"target":34962
		},
		{
			"buffer":0,
			"byteLength":1200,
			"byteOffset":61576,
			"target":34962
		},
		{
			"buffer":0,
			"byteLength":1272,
			"byteOffset":62776,
			"target":34962
		},
		{
			"buffer":0,
			"byteLength":1272,
			"byteOffset":64048,
			"target":34962
		},
		{
			"buffer":0,
			"byteLength":848,
			"byteOffset":65320,
			"target":34962
		},
		{
			"buffer":0,
			"byteLength":360,
			"byteOffset":66168,
			"target":34963
		},
		{
			"buffer":0,
			"byteLength":312,
			"byteOffset":66528,
			"target":34962
		},
		{
			"buffer":0,
			"byteLength":312,
			"byteOffset":66840,
			"target":34962
		},
		{
			"buffer":0,
			"byteLength":208,
			"byteOffset":67152,
			"target":34962
		},
		{
			"buffer":0,
			"byteLength":72,
			"byteOffset":67360,
			"target":34963
		},
		{
			"buffer":0,
			"byteLength":4596,
			"byteOffset":67432,
			"target":34962
		},
		{
			"buffer":0,
			"byteLength":4596,
			"byteOffset":72028,
			"target":34962
		},
		{
			"buffer":0,
			"byteLength":3064,
			"byteOffset":76624,
			"target":34962
		},
		{
			"buffer":0,
			"byteLength":1200,
			"byteOffset":79688,
			"target":34963
		},
		{
			"buffer":0,
			"byteLength":1536,
			"byteOffset":80888,
			"target":34962
		},
		{
			"buffer":0,
			"byteLength":1536,
			"byteOffset":82424,
			"target":34962
		},
		{
			"buffer":0,
			"byteLength":1024,
			"byteOffset":83960,
			"target":34962
		},
		{
			"buffer":0,
			"byteLength":384,
			"byteOffset":84984,
			"target":34963
		},
		{
			"buffer":0,
			"byteLength":4524,
			"byteOffset":85368,
			"target":34962
		},
		{
			"buffer":0,
			"byteLength":4524,
			"byteOffset":89892,
			"target":34962
		},
		{
			"buffer":0,
			"byteLength":3016,
			"byteOffset":94416,
			"target":34962
		},
		{
			"buffer":0,
			"byteLength":1200,
			"byteOffset":97432,
			"target":34963
		},
		{
			"buffer":0,
			"byteLength":3048,
			"byteOffset":98632,
			"target":34962
		},
		{
			"buffer":0,
			"byteLength":3048,
			"byteOffset":101680,
			"target":34962
		},
		{
			"buffer":0,
			"byteLength":2032,
			"byteOffset":104728,
			"target":34962
		},
		{
			"buffer":0,
			"byteLength":744,
			"byteOffset":106760,
			"target":34963
		},
		{
			"buffer":0,
			"byteLength":3084,
			"byteOffset":107504,
			"target":34962
		},
		{
			"buffer":0,
			"byteLength":3084,
			"byteOffset":110588,
			"target":34962
		},
		{
			"buffer":0,
			"byteLength":2056,
			"byteOffset":113672,
			"target":34962
		},
		{
			"buffer":0,
			"byteLength":936,
			"byteOffset":115728,
			"target":34963
		},
		{
			"buffer":0,
			"byteLength":3060,
			"byteOffset":116664,
			"target":34962
		},
		{
			"buffer":0,
			"byteLength":3060,
			"byteOffset":119724,
			"target":34962
		},
		{
			"buffer":0,
			"byteLength":2040,
			"byteOffset":122784,
			"target":34962
		},
		{
			"buffer":0,
			"byteLength":936,
			"byteOffset":124824,
			"target":34963
		},
		{
			"buffer":0,
			"byteLength":2940,
			"byteOffset":125760,
			"target":34962
		},
		{
			"buffer":0,
			"byteLength":2940,
			"byteOffset":128700,
			"target":34962
		},
		{
			"buffer":0,
			"byteLength":1960,
			"byteOffset":131640,
			"target":34962
		},
		{
			"buffer":0,
			"byteLength":936,
			"byteOffset":133600,
			"target":34963
		},
		{
			"buffer":0,
			"byteLength":288,
			"byteOffset":134536,
			"target":34962
		},
		{
			"buffer":0,
			"byteLength":288,
			"byteOffset":134824,
			"target":34962
		},
		{
			"buffer":0,
			"byteLength":192,
			"byteOffset":135112,
			"target":34962
		},
		{
			"buffer":0,
			"byteLength":72,
			"byteOffset":135304,
			"target":34963
		},
		{
			"buffer":0,
			"byteLength":600,
			"byteOffset":135376,
			"target":34962
		},
		{
			"buffer":0,
			"byteLength":600,
			"byteOffset":135976,
			"target":34962
		},
		{
			"buffer":0,
			"byteLength":400,
			"byteOffset":136576,
			"target":34962
		},
		{
			"buffer":0,
			"byteLength":192,
			"byteOffset":136976,
			"target":34963
		},
		{
			"buffer":0,
			"byteLength":600,
			"byteOffset":137168,
			"target":34962
		},
		{
			"buffer":0,
			"byteLength":600,
			"byteOffset":137768,
			"target":34962
		},
		{
			"buffer":0,
			"byteLength":400,
			"byteOffset":138368,
			"target":34962
		},
		{
			"buffer":0,
			"byteLength":600,
			"byteOffset":138768,
			"target":34962
		},
		{
			"buffer":0,
			"byteLength":600,
			"byteOffset":139368,
			"target":34962
		},
		{
			"buffer":0,
			"byteLength":400,
			"byteOffset":139968,
			"target":34962
		},
		{
			"buffer":0,
			"byteLength":10356,
			"byteOffset":140368,
			"target":34962
		},
		{
			"buffer":0,
			"byteLength":10356,
			"byteOffset":150724,
			"target":34962
		},
		{
			"buffer":0,
			"byteLength":6904,
			"byteOffset":161080,
			"target":34962
		},
		{
			"buffer":0,
			"byteLength":3120,
			"byteOffset":167984,
			"target":34963
		},
		{
			"buffer":0,
			"byteLength":3108,
			"byteOffset":171104,
			"target":34962
		},
		{
			"buffer":0,
			"byteLength":3108,
			"byteOffset":174212,
			"target":34962
		},
		{
			"buffer":0,
			"byteLength":2072,
			"byteOffset":177320,
			"target":34962
		},
		{
			"buffer":0,
			"byteLength":936,
			"byteOffset":179392,
			"target":34963
		},
		{
			"buffer":0,
			"byteLength":3060,
			"byteOffset":180328,
			"target":34962
		},
		{
			"buffer":0,
			"byteLength":3060,
			"byteOffset":183388,
			"target":34962
		},
		{
			"buffer":0,
			"byteLength":2040,
			"byteOffset":186448,
			"target":34962
		},
		{
			"buffer":0,
			"byteLength":936,
			"byteOffset":188488,
			"target":34963
		},
		{
			"buffer":0,
			"byteLength":3036,
			"byteOffset":189424,
			"target":34962
		},
		{
			"buffer":0,
			"byteLength":3036,
			"byteOffset":192460,
			"target":34962
		},
		{
			"buffer":0,
			"byteLength":2024,
			"byteOffset":195496,
			"target":34962
		},
		{
			"buffer":0,
			"byteLength":936,
			"byteOffset":197520,
			"target":34963
		},
		{
			"buffer":0,
			"byteLength":3084,
			"byteOffset":198456,
			"target":34962
		},
		{
			"buffer":0,
			"byteLength":3084,
			"byteOffset":201540,
			"target":34962
		},
		{
			"buffer":0,
			"byteLength":2056,
			"byteOffset":204624,
			"target":34962
		},
		{
			"buffer":0,
			"byteLength":936,
			"byteOffset":206680,
			"target":34963
		},
		{
			"buffer":0,
			"byteLength":1176,
			"byteOffset":207616,
			"target":34962
		},
		{
			"buffer":0,
			"byteLength":1176,
			"byteOffset":208792,
			"target":34962
		},
		{
			"buffer":0,
			"byteLength":784,
			"byteOffset":209968,
			"target":34962
		},
		{
			"buffer":0,
			"byteLength":384,
			"byteOffset":210752,
			"target":34963
		},
		{
			"buffer":0,
			"byteLength":1404,
			"byteOffset":211136,
			"target":34962
		},
		{
			"buffer":0,
			"byteLength":1404,
			"byteOffset":212540,
			"target":34962
		},
		{
			"buffer":0,
			"byteLength":936,
			"byteOffset":213944,
			"target":34962
		},
		{
			"buffer":0,
			"byteLength":396,
			"byteOffset":214880,
			"target":34963
		},
		{
			"buffer":0,
			"byteLength":1404,
			"byteOffset":215276,
			"target":34962
		},
		{
			"buffer":0,
			"byteLength":1404,
			"byteOffset":216680,
			"target":34962
		},
		{
			"buffer":0,
			"byteLength":936,
			"byteOffset":218084,
			"target":34962
		},
		{
			"buffer":0,
			"byteLength":396,
			"byteOffset":219020,
			"target":34963
		},
		{
			"buffer":0,
			"byteLength":1404,
			"byteOffset":219416,
			"target":34962
		},
		{
			"buffer":0,
			"byteLength":1404,
			"byteOffset":220820,
			"target":34962
		},
		{
			"buffer":0,
			"byteLength":936,
			"byteOffset":222224,
			"target":34962
		},
		{
			"buffer":0,
			"byteLength":1404,
			"byteOffset":223160,
			"target":34962
		},
		{
			"buffer":0,
			"byteLength":1404,
			"byteOffset":224564,
			"target":34962
		},
		{
			"buffer":0,
			"byteLength":936,
			"byteOffset":225968,
			"target":34962
		},
		{
			"buffer":0,
			"byteLength":768,
			"byteOffset":226904,
			"target":34962
		},
		{
			"buffer":0,
			"byteLength":768,
			"byteOffset":227672,
			"target":34962
		},
		{
			"buffer":0,
			"byteLength":512,
			"byteOffset":228440,
			"target":34962
		},
		{
			"buffer":0,
			"byteLength":192,
			"byteOffset":228952,
			"target":34963
		},
		{
			"buffer":0,
			"byteLength":660,
			"byteOffset":229144,
			"target":34962
		},
		{
			"buffer":0,
			"byteLength":660,
			"byteOffset":229804,
			"target":34962
		},
		{
			"buffer":0,
			"byteLength":440,
			"byteOffset":230464,
			"target":34962
		},
		{
			"buffer":0,
			"byteLength":192,
			"byteOffset":230904,
			"target":34963
		},
		{
			"buffer":0,
			"byteLength":780,
			"byteOffset":231096,
			"target":34962
		},
		{
			"buffer":0,
			"byteLength":780,
			"byteOffset":231876,
			"target":34962
		},
		{
			"buffer":0,
			"byteLength":520,
			"byteOffset":232656,
			"target":34962
		},
		{
			"buffer":0,
			"byteLength":192,
			"byteOffset":233176,
			"target":34963
		},
		{
			"buffer":0,
			"byteLength":744,
			"byteOffset":233368,
			"target":34962
		},
		{
			"buffer":0,
			"byteLength":744,
			"byteOffset":234112,
			"target":34962
		},
		{
			"buffer":0,
			"byteLength":496,
			"byteOffset":234856,
			"target":34962
		},
		{
			"buffer":0,
			"byteLength":216,
			"byteOffset":235352,
			"target":34963
		},
		{
			"buffer":0,
			"byteLength":744,
			"byteOffset":235568,
			"target":34962
		},
		{
			"buffer":0,
			"byteLength":744,
			"byteOffset":236312,
			"target":34962
		},
		{
			"buffer":0,
			"byteLength":496,
			"byteOffset":237056,
			"target":34962
		},
		{
			"buffer":0,
			"byteLength":744,
			"byteOffset":237552,
			"target":34962
		},
		{
			"buffer":0,
			"byteLength":744,
			"byteOffset":238296,
			"target":34962
		},
		{
			"buffer":0,
			"byteLength":496,
			"byteOffset":239040,
			"target":34962
		},
		{
			"buffer":0,
			"byteLength":6120,
			"byteOffset":239536,
			"target":34962
		},
		{
			"buffer":0,
			"byteLength":6120,
			"byteOffset":245656,
			"target":34962
		},
		{
			"buffer":0,
			"byteLength":4080,
			"byteOffset":251776,
			"target":34962
		},
		{
			"buffer":0,
			"byteLength":1872,
			"byteOffset":255856,
			"target":34963
		},
		{
			"buffer":0,
			"byteLength":3060,
			"byteOffset":257728,
			"target":34962
		},
		{
			"buffer":0,
			"byteLength":3060,
			"byteOffset":260788,
			"target":34962
		},
		{
			"buffer":0,
			"byteLength":2040,
			"byteOffset":263848,
			"target":34962
		},
		{
			"buffer":0,
			"byteLength":936,
			"byteOffset":265888,
			"target":34963
		},
		{
			"buffer":0,
			"byteLength":2964,
			"byteOffset":266824,
			"target":34962
		},
		{
			"buffer":0,
			"byteLength":2964,
			"byteOffset":269788,
			"target":34962
		},
		{
			"buffer":0,
			"byteLength":1976,
			"byteOffset":272752,
			"target":34962
		},
		{
			"buffer":0,
			"byteLength":936,
			"byteOffset":274728,
			"target":34963
		},
		{
			"buffer":0,
			"byteLength":2964,
			"byteOffset":275664,
			"target":34962
		},
		{
			"buffer":0,
			"byteLength":2964,
			"byteOffset":278628,
			"target":34962
		},
		{
			"buffer":0,
			"byteLength":1976,
			"byteOffset":281592,
			"target":34962
		},
		{
			"buffer":0,
			"byteLength":936,
			"byteOffset":283568,
			"target":34963
		},
		{
			"buffer":0,
			"byteLength":2784,
			"byteOffset":284504,
			"target":34962
		},
		{
			"buffer":0,
			"byteLength":2784,
			"byteOffset":287288,
			"target":34962
		},
		{
			"buffer":0,
			"byteLength":1856,
			"byteOffset":290072,
			"target":34962
		},
		{
			"buffer":0,
			"byteLength":1116,
			"byteOffset":291928,
			"target":34963
		},
		{
			"buffer":0,
			"byteLength":3060,
			"byteOffset":293044,
			"target":34962
		},
		{
			"buffer":0,
			"byteLength":3060,
			"byteOffset":296104,
			"target":34962
		},
		{
			"buffer":0,
			"byteLength":2040,
			"byteOffset":299164,
			"target":34962
		},
		{
			"buffer":0,
			"byteLength":936,
			"byteOffset":301204,
			"target":34963
		},
		{
			"buffer":0,
			"byteLength":3012,
			"byteOffset":302140,
			"target":34962
		},
		{
			"buffer":0,
			"byteLength":3012,
			"byteOffset":305152,
			"target":34962
		},
		{
			"buffer":0,
			"byteLength":2008,
			"byteOffset":308164,
			"target":34962
		},
		{
			"buffer":0,
			"byteLength":936,
			"byteOffset":310172,
			"target":34963
		},
		{
			"buffer":0,
			"byteLength":3060,
			"byteOffset":311108,
			"target":34962
		},
		{
			"buffer":0,
			"byteLength":3060,
			"byteOffset":314168,
			"target":34962
		},
		{
			"buffer":0,
			"byteLength":2040,
			"byteOffset":317228,
			"target":34962
		},
		{
			"buffer":0,
			"byteLength":936,
			"byteOffset":319268,
			"target":34963
		},
		{
			"buffer":0,
			"byteLength":2772,
			"byteOffset":320204,
			"target":34962
		},
		{
			"buffer":0,
			"byteLength":2772,
			"byteOffset":322976,
			"target":34962
		},
		{
			"buffer":0,
			"byteLength":1848,
			"byteOffset":325748,
			"target":34962
		},
		{
			"buffer":0,
			"byteLength":1116,
			"byteOffset":327596,
			"target":34963
		},
		{
			"buffer":0,
			"byteLength":3060,
			"byteOffset":328712,
			"target":34962
		},
		{
			"buffer":0,
			"byteLength":3060,
			"byteOffset":331772,
			"target":34962
		},
		{
			"buffer":0,
			"byteLength":2040,
			"byteOffset":334832,
			"target":34962
		},
		{
			"buffer":0,
			"byteLength":936,
			"byteOffset":336872,
			"target":34963
		},
		{
			"buffer":0,
			"byteLength":3060,
			"byteOffset":337808,
			"target":34962
		},
		{
			"buffer":0,
			"byteLength":3060,
			"byteOffset":340868,
			"target":34962
		},
		{
			"buffer":0,
			"byteLength":2040,
			"byteOffset":343928,
			"target":34962
		},
		{
			"buffer":0,
			"byteLength":936,
			"byteOffset":345968,
			"target":34963
		},
		{
			"buffer":0,
			"byteLength":2940,
			"byteOffset":346904,
			"target":34962
		},
		{
			"buffer":0,
			"byteLength":2940,
			"byteOffset":349844,
			"target":34962
		},
		{
			"buffer":0,
			"byteLength":1960,
			"byteOffset":352784,
			"target":34962
		},
		{
			"buffer":0,
			"byteLength":936,
			"byteOffset":354744,
			"target":34963
		},
		{
			"buffer":0,
			"byteLength":2772,
			"byteOffset":355680,
			"target":34962
		},
		{
			"buffer":0,
			"byteLength":2772,
			"byteOffset":358452,
			"target":34962
		},
		{
			"buffer":0,
			"byteLength":1848,
			"byteOffset":361224,
			"target":34962
		},
		{
			"buffer":0,
			"byteLength":1116,
			"byteOffset":363072,
			"target":34963
		},
		{
			"buffer":0,
			"byteLength":12324,
			"byteOffset":364188,
			"target":34962
		},
		{
			"buffer":0,
			"byteLength":12324,
			"byteOffset":376512,
			"target":34962
		},
		{
			"buffer":0,
			"byteLength":8216,
			"byteOffset":388836,
			"target":34962
		},
		{
			"buffer":0,
			"byteLength":4800,
			"byteOffset":397052,
			"target":34963
		},
		{
			"buffer":0,
			"byteLength":288,
			"byteOffset":401852,
			"target":34962
		},
		{
			"buffer":0,
			"byteLength":288,
			"byteOffset":402140,
			"target":34962
		},
		{
			"buffer":0,
			"byteLength":192,
			"byteOffset":402428,
			"target":34962
		},
		{
			"buffer":0,
			"byteLength":72,
			"byteOffset":402620,
			"target":34963
		},
		{
			"buffer":0,
			"byteLength":3096,
			"byteOffset":402692,
			"target":34962
		},
		{
			"buffer":0,
			"byteLength":3096,
			"byteOffset":405788,
			"target":34962
		},
		{
			"buffer":0,
			"byteLength":2064,
			"byteOffset":408884,
			"target":34962
		},
		{
			"buffer":0,
			"byteLength":3096,
			"byteOffset":410948,
			"target":34962
		},
		{
			"buffer":0,
			"byteLength":3096,
			"byteOffset":414044,
			"target":34962
		},
		{
			"buffer":0,
			"byteLength":2064,
			"byteOffset":417140,
			"target":34962
		},
		{
			"buffer":0,
			"byteLength":3096,
			"byteOffset":419204,
			"target":34962
		},
		{
			"buffer":0,
			"byteLength":3096,
			"byteOffset":422300,
			"target":34962
		},
		{
			"buffer":0,
			"byteLength":2064,
			"byteOffset":425396,
			"target":34962
		},
		{
			"buffer":0,
			"byteLength":3096,
			"byteOffset":427460,
			"target":34962
		},
		{
			"buffer":0,
			"byteLength":3096,
			"byteOffset":430556,
			"target":34962
		},
		{
			"buffer":0,
			"byteLength":2064,
			"byteOffset":433652,
			"target":34962
		},
		{
			"buffer":0,
			"byteLength":3096,
			"byteOffset":435716,
			"target":34962
		},
		{
			"buffer":0,
			"byteLength":3096,
			"byteOffset":438812,
			"target":34962
		},
		{
			"buffer":0,
			"byteLength":2064,
			"byteOffset":441908,
			"target":34962
		},
		{
			"buffer":0,
			"byteLength":3096,
			"byteOffset":443972,
			"target":34962
		},
		{
			"buffer":0,
			"byteLength":3096,
			"byteOffset":447068,
			"target":34962
		},
		{
			"buffer":0,
			"byteLength":2064,
			"byteOffset":450164,
			"target":34962
		},
		{
			"buffer":0,
			"byteLength":3096,
			"byteOffset":452228,
			"target":34962
		},
		{
			"buffer":0,
			"byteLength":3096,
			"byteOffset":455324,
			"target":34962
		},
		{
			"buffer":0,
			"byteLength":2064,
			"byteOffset":458420,
			"target":34962
		},
		{
			"buffer":0,
			"byteLength":3096,
			"byteOffset":460484,
			"target":34962
		},
		{
			"buffer":0,
			"byteLength":3096,
			"byteOffset":463580,
			"target":34962
		},
		{
			"buffer":0,
			"byteLength":2064,
			"byteOffset":466676,
			"target":34962
		},
		{
			"buffer":0,
			"byteLength":3096,
			"byteOffset":468740,
			"target":34962
		},
		{
			"buffer":0,
			"byteLength":3096,
			"byteOffset":471836,
			"target":34962
		},
		{
			"buffer":0,
			"byteLength":2064,
			"byteOffset":474932,
			"target":34962
		},
		{
			"buffer":0,
			"byteLength":3096,
			"byteOffset":476996,
			"target":34962
		},
		{
			"buffer":0,
			"byteLength":3096,
			"byteOffset":480092,
			"target":34962
		},
		{
			"buffer":0,
			"byteLength":2064,
			"byteOffset":483188,
			"target":34962
		},
		{
			"buffer":0,
			"byteLength":3096,
			"byteOffset":485252,
			"target":34962
		},
		{
			"buffer":0,
			"byteLength":3096,
			"byteOffset":488348,
			"target":34962
		},
		{
			"buffer":0,
			"byteLength":2064,
			"byteOffset":491444,
			"target":34962
		},
		{
			"buffer":0,
			"byteLength":3096,
			"byteOffset":493508,
			"target":34962
		},
		{
			"buffer":0,
			"byteLength":3096,
			"byteOffset":496604,
			"target":34962
		},
		{
			"buffer":0,
			"byteLength":2064,
			"byteOffset":499700,
			"target":34962
		},
		{
			"buffer":0,
			"byteLength":3096,
			"byteOffset":501764,
			"target":34962
		},
		{
			"buffer":0,
			"byteLength":3096,
			"byteOffset":504860,
			"target":34962
		},
		{
			"buffer":0,
			"byteLength":2064,
			"byteOffset":507956,
			"target":34962
		}
	],
	"buffers":[
		{
			"byteLength":510020,
			"uri":"home-signal.bin"
		}
	]
}
