{
	"asset":{
		"generator":"Khronos glTF Blender I/O v4.2.60",
		"version":"2.0"
	},
	"extensionsUsed":[
		"KHR_materials_specular"
	],
	"scene":0,
	"scenes":[
		{
			"name":"Scene",
			"nodes":[
				0,
				1,
				2,
				3,
				4,
				5,
				6,
				7,
				8,
				9,
				10,
				11,
				12,
				13,
				14,
				15,
				16,
				17,
				18,
				19,
				20,
				21,
				22,
				23,
				24,
				25,
				26,
				27,
				28,
				29,
				30,
				31,
				32,
				33,
				34,
				35,
				36,
				37,
				38,
				39,
				40,
				41,
				42,
				43,
				44
			]
		}
	],
	"nodes":[
		{
			"mesh":0,
			"name":"object_0",
			"scale":[
				0.009999999776482582,
				0.009999999776482582,
				0.009999999776482582
			]
		},
		{
			"mesh":1,
			"name":"object_1",
			"scale":[
				0.009999999776482582,
				0.009999999776482582,
				0.009999999776482582
			]
		},
		{
			"mesh":2,
			"name":"object_2",
			"scale":[
				0.009999999776482582,
				0.009999999776482582,
				0.009999999776482582
			]
		},
		{
			"mesh":3,
			"name":"object_3",
			"scale":[
				0.009999999776482582,
				0.009999999776482582,
				0.009999999776482582
			]
		},
		{
			"mesh":4,
			"name":"object_4",
			"scale":[
				0.009999999776482582,
				0.009999999776482582,
				0.009999999776482582
			]
		},
		{
			"mesh":5,
			"name":"object_5",
			"scale":[
				0.009999999776482582,
				0.009999999776482582,
				0.009999999776482582
			]
		},
		{
			"mesh":6,
			"name":"object_6",
			"scale":[
				0.009999999776482582,
				0.009999999776482582,
				0.009999999776482582
			]
		},
		{
			"mesh":7,
			"name":"object_7",
			"scale":[
				0.009999999776482582,
				0.009999999776482582,
				0.009999999776482582
			]
		},
		{
			"mesh":8,
			"name":"object_8",
			"scale":[
				0.009999999776482582,
				0.009999999776482582,
				0.009999999776482582
			]
		},
		{
			"mesh":9,
			"name":"object_9",
			"scale":[
				0.009999999776482582,
				0.009999999776482582,
				0.009999999776482582
			]
		},
		{
			"mesh":10,
			"name":"object_10",
			"scale":[
				0.009999999776482582,
				0.009999999776482582,
				0.009999999776482582
			]
		},
		{
			"mesh":11,
			"name":"object_11",
			"scale":[
				0.009999999776482582,
				0.009999999776482582,
				0.009999999776482582
			]
		},
		{
			"mesh":12,
			"name":"object_12",
			"scale":[
				0.009999999776482582,
				0.009999999776482582,
				0.009999999776482582
			]
		},
		{
			"mesh":13,
			"name":"object_13",
			"scale":[
				0.009999999776482582,
				0.009999999776482582,
				0.009999999776482582
			]
		},
		{
			"mesh":14,
			"name":"object_14",
			"scale":[
				0.009999999776482582,
				0.009999999776482582,
				0.009999999776482582
			]
		},
		{
			"mesh":15,
			"name":"object_15",
			"scale":[
				0.009999999776482582,
				0.009999999776482582,
				0.009999999776482582
			]
		},
		{
			"mesh":16,
			"name":"object_16",
			"scale":[
				0.009999999776482582,
				0.009999999776482582,
				0.009999999776482582
			]
		},
		{
			"mesh":17,
			"name":"object_17",
			"scale":[
				0.009999999776482582,
				0.009999999776482582,
				0.009999999776482582
			]
		},
		{
			"mesh":18,
			"name":"object_18",
			"scale":[
				0.009999999776482582,
				0.009999999776482582,
				0.009999999776482582
			]
		},
		{
			"mesh":19,
			"name":"object_19",
			"scale":[
				0.009999999776482582,
				0.009999999776482582,
				0.009999999776482582
			]
		},
		{
			"mesh":20,
			"name":"object_20",
			"scale":[
				0.009999999776482582,
				0.009999999776482582,
				0.009999999776482582
			]
		},
		{
			"mesh":21,
			"name":"object_21",
			"scale":[
				0.009999999776482582,
				0.009999999776482582,
				0.009999999776482582
			]
		},
		{
			"mesh":22,
			"name":"object_22",
			"scale":[
				0.009999999776482582,
				0.009999999776482582,
				0.009999999776482582
			]
		},
		{
			"mesh":23,
			"name":"object_23",
			"scale":[
				0.009999999776482582,
				0.009999999776482582,
				0.009999999776482582
			]
		},
		{
			"mesh":24,
			"name":"object_24",
			"scale":[
				0.009999999776482582,
				0.009999999776482582,
				0.009999999776482582
			]
		},
		{
			"mesh":25,
			"name":"object_25",
			"scale":[
				0.009999999776482582,
				0.009999999776482582,
				0.009999999776482582
			]
		},
		{
			"mesh":26,
			"name":"object_26",
			"scale":[
				0.009999999776482582,
				0.009999999776482582,
				0.009999999776482582
			]
		},
		{
			"mesh":27,
			"name":"object_27",
			"scale":[
				0.009999999776482582,
				0.009999999776482582,
				0.009999999776482582
			]
		},
		{
			"mesh":28,
			"name":"object_28",
			"scale":[
				0.009999999776482582,
				0.009999999776482582,
				0.009999999776482582
			]
		},
		{
			"mesh":29,
			"name":"object_29",
			"scale":[
				0.009999999776482582,
				0.009999999776482582,
				0.009999999776482582
			]
		},
		{
			"mesh":30,
			"name":"object_30",
			"scale":[
				0.009999999776482582,
				0.009999999776482582,
				0.009999999776482582
			]
		},
		{
			"mesh":31,
			"name":"object_31",
			"scale":[
				0.009999999776482582,
				0.009999999776482582,
				0.009999999776482582
			]
		},
		{
			"mesh":32,
			"name":"object_32",
			"scale":[
				0.009999999776482582,
				0.009999999776482582,
				0.009999999776482582
			]
		},
		{
			"mesh":33,
			"name":"object_33",
			"scale":[
				0.009999999776482582,
				0.009999999776482582,
				0.009999999776482582
			]
		},
		{
			"mesh":34,
			"name":"object_34",
			"scale":[
				0.009999999776482582,
				0.009999999776482582,
				0.009999999776482582
			]
		},
		{
			"mesh":35,
			"name":"object_35",
			"scale":[
				0.009999999776482582,
				0.009999999776482582,
				0.009999999776482582
			]
		},
		{
			"mesh":36,
			"name":"object_36",
			"scale":[
				0.009999999776482582,
				0.009999999776482582,
				0.009999999776482582
			]
		},
		{
			"mesh":37,
			"name":"object_37",
			"scale":[
				0.009999999776482582,
				0.009999999776482582,
				0.009999999776482582
			]
		},
		{
			"mesh":38,
			"name":"object_38",
			"scale":[
				0.009999999776482582,
				0.009999999776482582,
				0.009999999776482582
			]
		},
		{
			"mesh":39,
			"name":"object_39",
			"scale":[
				0.009999999776482582,
				0.009999999776482582,
				0.009999999776482582
			]
		},
		{
			"mesh":40,
			"name":"object_40",
			"scale":[
				0.009999999776482582,
				0.009999999776482582,
				0.009999999776482582
			]
		},
		{
			"mesh":41,
			"name":"object_41",
			"scale":[
				0.009999999776482582,
				0.009999999776482582,
				0.009999999776482582
			]
		},
		{
			"mesh":42,
			"name":"object_42",
			"scale":[
				0.009999999776482582,
				0.009999999776482582,
				0.009999999776482582
			]
		},
		{
			"mesh":43,
			"name":"object_43",
			"scale":[
				0.009999999776482582,
				0.009999999776482582,
				0.009999999776482582
			]
		},
		{
			"mesh":44,
			"name":"object_44",
			"scale":[
				0.009999999776482582,
				0.009999999776482582,
				0.009999999776482582
			]
		}
	],
	"materials":[
		{
			"doubleSided":true,
			"name":"object_0",
			"pbrMetallicRoughness":{
				"baseColorFactor":[
					0.68668133020401,
					0.6444805860519409,
					0,
					1
				],
				"metallicFactor":0,
				"roughnessFactor":0.8500000238418579
			}
		},
		{
			"doubleSided":true,
			"name":"object_1",
			"pbrMetallicRoughness":{
				"baseColorFactor":[
					0,
					0,
					0,
					1
				],
				"metallicFactor":0,
				"roughnessFactor":0.8500000238418579
			}
		},
		{
			"doubleSided":true,
			"name":"object_2",
			"pbrMetallicRoughness":{
				"baseColorTexture":{
					"index":0
				},
				"metallicFactor":0,
				"roughnessFactor":0.8500000238418579
			}
		},
		{
			"doubleSided":true,
			"name":"object_3",
			"pbrMetallicRoughness":{
				"baseColorTexture":{
					"index":1
				},
				"metallicFactor":0,
				"roughnessFactor":0.8500000238418579
			}
		},
		{
			"doubleSided":true,
			"name":"object_4",
			"pbrMetallicRoughness":{
				"baseColorTexture":{
					"index":2
				},
				"metallicFactor":0,
				"roughnessFactor":0.8500000238418579
			}
		},
		{
			"doubleSided":true,
			"name":"object_5",
			"pbrMetallicRoughness":{
				"baseColorTexture":{
					"index":3
				},
				"metallicFactor":0,
				"roughnessFactor":0.8500000238418579
			}
		},
		{
			"doubleSided":true,
			"name":"object_6",
			"pbrMetallicRoughness":{
				"baseColorFactor":[
					0.9046551585197449,
					0.9473071694374084,
					1,
					1
				],
				"metallicFactor":0,
				"roughnessFactor":0.8500000238418579
			}
		},
		{
			"doubleSided":true,
			"name":"object_7",
			"pbrMetallicRoughness":{
				"baseColorFactor":[
					0.2704960107803345,
					0.29177096486091614,
					0.3231433928012848,
					1
				],
				"metallicFactor":0,
				"roughnessFactor":0.8500000238418579
			}
		},
		{
			"doubleSided":true,
			"name":"object_8",
			"pbrMetallicRoughness":{
				"baseColorTexture":{
					"index":4
				},
				"metallicFactor":0,
				"roughnessFactor":0
			}
		},
		{
			"doubleSided":true,
			"name":"object_9",
			"pbrMetallicRoughness":{
				"baseColorTexture":{
					"index":5
				},
				"metallicFactor":0,
				"roughnessFactor":0.8500000238418579
			}
		},
		{
			"doubleSided":true,
			"name":"object_10",
			"pbrMetallicRoughness":{
				"baseColorFactor":[
					0.2704960107803345,
					0.29177096486091614,
					0.3231433928012848,
					1
				],
				"metallicFactor":0,
				"roughnessFactor":0.8500000238418579
			}
		},
		{
			"doubleSided":true,
			"name":"object_11",
			"pbrMetallicRoughness":{
				"baseColorTexture":{
					"index":6
				},
				"metallicFactor":0,
				"roughnessFactor":0.8500000238418579
			}
		},
		{
			"doubleSided":true,
			"name":"object_12",
			"pbrMetallicRoughness":{
				"baseColorFactor":[
					0.010960021056234837,
					0.010960102081298828,
					0.010960097424685955,
					1
				],
				"metallicFactor":0,
				"roughnessFactor":0.8500000238418579
			}
		},
		{
			"doubleSided":true,
			"name":"object_13",
			"pbrMetallicRoughness":{
				"baseColorTexture":{
					"index":7
				},
				"metallicFactor":0,
				"roughnessFactor":0.8500000238418579
			}
		},
		{
			"doubleSided":true,
			"name":"object_14",
			"pbrMetallicRoughness":{
				"baseColorTexture":{
					"index":8
				},
				"metallicFactor":0,
				"roughnessFactor":0.8500000238418579
			}
		},
		{
			"doubleSided":true,
			"name":"object_15",
			"pbrMetallicRoughness":{
				"baseColorFactor":[
					0.2654016613960266,
					0.2654016613960266,
					0.2654016613960266,
					1
				],
				"metallicFactor":0,
				"roughnessFactor":0.8500000238418579
			}
		},
		{
			"doubleSided":true,
			"name":"object_16",
			"pbrMetallicRoughness":{
				"baseColorTexture":{
					"index":9
				},
				"metallicFactor":0,
				"roughnessFactor":0.8500000238418579
			}
		},
		{
			"doubleSided":true,
			"name":"object_17",
			"pbrMetallicRoughness":{
				"baseColorFactor":[
					0.3139863908290863,
					0.5520119071006775,
					0.47353172302246094,
					1
				],
				"metallicFactor":0,
				"roughnessFactor":0
			}
		},
		{
			"doubleSided":true,
			"name":"object_18",
			"pbrMetallicRoughness":{
				"baseColorFactor":[
					0.22322645783424377,
					0.23455075919628143,
					0.250158429145813,
					1
				],
				"metallicFactor":0,
				"roughnessFactor":0.8500000238418579
			}
		},
		{
			"doubleSided":true,
			"name":"object_19",
			"pbrMetallicRoughness":{
				"baseColorFactor":[
					0.5971980094909668,
					0.644480288028717,
					0.7156939506530762,
					1
				],
				"metallicFactor":0,
				"roughnessFactor":0.8500000238418579
			}
		},
		{
			"doubleSided":true,
			"name":"object_20",
			"pbrMetallicRoughness":{
				"baseColorTexture":{
					"index":10
				},
				"metallicFactor":0,
				"roughnessFactor":0.8500000238418579
			}
		},
		{
			"doubleSided":true,
			"name":"object_21",
			"pbrMetallicRoughness":{
				"baseColorTexture":{
					"index":11
				},
				"metallicFactor":0,
				"roughnessFactor":0.8500000238418579
			}
		},
		{
			"doubleSided":true,
			"name":"object_22",
			"pbrMetallicRoughness":{
				"baseColorTexture":{
					"index":12
				},
				"metallicFactor":0,
				"roughnessFactor":0.8500000238418579
			}
		},
		{
			"doubleSided":true,
			"name":"object_23",
			"pbrMetallicRoughness":{
				"baseColorTexture":{
					"index":13
				},
				"metallicFactor":0,
				"roughnessFactor":0.8500000238418579
			}
		},
		{
			"doubleSided":true,
			"name":"object_24",
			"pbrMetallicRoughness":{
				"baseColorTexture":{
					"index":14
				},
				"metallicFactor":0,
				"roughnessFactor":0.8500000238418579
			}
		},
		{
			"doubleSided":true,
			"name":"object_25",
			"pbrMetallicRoughness":{
				"baseColorTexture":{
					"index":15
				},
				"metallicFactor":0,
				"roughnessFactor":0.8500000238418579
			}
		},
		{
			"doubleSided":true,
			"name":"object_26",
			"pbrMetallicRoughness":{
				"baseColorTexture":{
					"index":16
				},
				"metallicFactor":0,
				"roughnessFactor":0.8500000238418579
			}
		},
		{
			"doubleSided":true,
			"name":"object_27",
			"pbrMetallicRoughness":{
				"baseColorTexture":{
					"index":17
				},
				"metallicFactor":0,
				"roughnessFactor":0.8500000238418579
			}
		},
		{
			"doubleSided":true,
			"name":"object_28",
			"pbrMetallicRoughness":{
				"baseColorTexture":{
					"index":18
				},
				"metallicFactor":0,
				"roughnessFactor":0.8500000238418579
			}
		},
		{
			"doubleSided":true,
			"name":"object_29",
			"pbrMetallicRoughness":{
				"baseColorFactor":[
					0.05951087921857834,
					0.039546266198158264,
					0.04518624395132065,
					1
				],
				"metallicFactor":0,
				"roughnessFactor":0.8500000238418579
			}
		},
		{
			"doubleSided":true,
			"name":"object_30",
			"pbrMetallicRoughness":{
				"baseColorFactor":[
					0.7990982532501221,
					0.7454051971435547,
					0,
					1
				],
				"metallicFactor":0,
				"roughnessFactor":0.8500000238418579
			}
		},
		{
			"doubleSided":true,
			"name":"object_31",
			"pbrMetallicRoughness":{
				"baseColorFactor":[
					0.7990989089012146,
					0,
					0.00030354337650351226,
					1
				],
				"metallicFactor":0,
				"roughnessFactor":0.8500000238418579
			}
		},
		{
			"doubleSided":true,
			"name":"object_32",
			"pbrMetallicRoughness":{
				"baseColorTexture":{
					"index":19
				},
				"metallicFactor":0,
				"roughnessFactor":0.8500000238418579
			}
		},
		{
			"doubleSided":true,
			"name":"object_33",
			"pbrMetallicRoughness":{
				"baseColorTexture":{
					"index":20
				},
				"metallicFactor":0,
				"roughnessFactor":0.8500000238418579
			}
		},
		{
			"doubleSided":true,
			"name":"object_34",
			"pbrMetallicRoughness":{
				"baseColorFactor":[
					0.20863547921180725,
					0.22696606814861298,
					0.2422812134027481,
					1
				],
				"metallicFactor":0,
				"roughnessFactor":0.8500000238418579
			}
		},
		{
			"doubleSided":true,
			"name":"object_35",
			"pbrMetallicRoughness":{
				"baseColorTexture":{
					"index":21
				},
				"metallicFactor":0,
				"roughnessFactor":0.8500000238418579
			}
		},
		{
			"doubleSided":true,
			"name":"object_36",
			"pbrMetallicRoughness":{
				"baseColorTexture":{
					"index":22
				},
				"metallicFactor":0,
				"roughnessFactor":0.8500000238418579
			}
		},
		{
			"doubleSided":true,
			"name":"object_37",
			"pbrMetallicRoughness":{
				"baseColorTexture":{
					"index":23
				},
				"metallicFactor":0,
				"roughnessFactor":0.8500000238418579
			}
		},
		{
			"doubleSided":true,
			"name":"object_38",
			"pbrMetallicRoughness":{
				"baseColorTexture":{
					"index":24
				},
				"metallicFactor":0,
				"roughnessFactor":0.8500000238418579
			}
		},
		{
			"doubleSided":true,
			"extensions":{
				"KHR_materials_specular":{
					"specularColorFactor":[
						2.0,
						2.0,
						2.0
					]
				}
			},
			"name":"object_39",
			"pbrMetallicRoughness":{
				"baseColorTexture":{
					"index":25
				},
				"metallicFactor":0,
				"roughnessFactor":0.8500000238418579
			}
		},
		{
			"doubleSided":true,
			"name":"object_40",
			"pbrMetallicRoughness":{
				"baseColorTexture":{
					"index":26
				},
				"metallicFactor":0,
				"roughnessFactor":0.8500000238418579
			}
		},
		{
			"doubleSided":true,
			"name":"object_41",
			"pbrMetallicRoughness":{
				"baseColorTexture":{
					"index":27
				},
				"metallicFactor":0,
				"roughnessFactor":0.8500000238418579
			}
		},
		{
			"doubleSided":true,
			"name":"object_42.001",
			"pbrMetallicRoughness":{
				"baseColorTexture":{
					"index":28
				},
				"metallicFactor":0,
				"roughnessFactor":0.8500000238418579
			}
		},
		{
			"doubleSided":true,
			"name":"object_43",
			"pbrMetallicRoughness":{
				"baseColorTexture":{
					"index":29
				},
				"metallicFactor":0,
				"roughnessFactor":0.8500000238418579
			}
		},
		{
			"doubleSided":true,
			"name":"object_42",
			"pbrMetallicRoughness":{
				"baseColorTexture":{
					"index":30
				},
				"metallicFactor":0,
				"roughnessFactor":0.8500000238418579
			}
		}
	],
	"meshes":[
		{
			"name":"Mesh",
			"primitives":[
				{
					"attributes":{
						"POSITION":0,
						"NORMAL":1,
						"TEXCOORD_0":2
					},
					"indices":3,
					"material":0
				}
			]
		},
		{
			"name":"Mesh.001",
			"primitives":[
				{
					"attributes":{
						"POSITION":4,
						"NORMAL":5,
						"TEXCOORD_0":6
					},
					"indices":7,
					"material":1
				}
			]
		},
		{
			"name":"Mesh.002",
			"primitives":[
				{
					"attributes":{
						"POSITION":8,
						"NORMAL":9,
						"TEXCOORD_0":10
					},
					"indices":11,
					"material":2
				}
			]
		},
		{
			"name":"Mesh.003",
			"primitives":[
				{
					"attributes":{
						"POSITION":12,
						"NORMAL":13,
						"TEXCOORD_0":14
					},
					"indices":15,
					"material":3
				}
			]
		},
		{
			"name":"Mesh.004",
			"primitives":[
				{
					"attributes":{
						"POSITION":16,
						"NORMAL":17,
						"TEXCOORD_0":18
					},
					"indices":19,
					"material":4
				}
			]
		},
		{
			"name":"Mesh.005",
			"primitives":[
				{
					"attributes":{
						"POSITION":20,
						"NORMAL":21,
						"TEXCOORD_0":22
					},
					"indices":23,
					"material":5
				}
			]
		},
		{
			"name":"Mesh.006",
			"primitives":[
				{
					"attributes":{
						"POSITION":24,
						"NORMAL":25,
						"TEXCOORD_0":26
					},
					"indices":27,
					"material":6
				}
			]
		},
		{
			"name":"Mesh.007",
			"primitives":[
				{
					"attributes":{
						"POSITION":28,
						"NORMAL":29,
						"TEXCOORD_0":30
					},
					"indices":31,
					"material":7
				}
			]
		},
		{
			"name":"Mesh.008",
			"primitives":[
				{
					"attributes":{
						"POSITION":32,
						"NORMAL":33,
						"TEXCOORD_0":34
					},
					"indices":35,
					"material":8
				}
			]
		},
		{
			"name":"Mesh.009",
			"primitives":[
				{
					"attributes":{
						"POSITION":36,
						"NORMAL":37,
						"TEXCOORD_0":38
					},
					"indices":39,
					"material":9
				}
			]
		},
		{
			"name":"Mesh.010",
			"primitives":[
				{
					"attributes":{
						"POSITION":40,
						"NORMAL":41,
						"TEXCOORD_0":42
					},
					"indices":43,
					"material":10
				}
			]
		},
		{
			"name":"Mesh.011",
			"primitives":[
				{
					"attributes":{
						"POSITION":44,
						"NORMAL":45,
						"TEXCOORD_0":46
					},
					"indices":47,
					"material":11
				}
			]
		},
		{
			"name":"Mesh.012",
			"primitives":[
				{
					"attributes":{
						"POSITION":48,
						"NORMAL":49,
						"TEXCOORD_0":50
					},
					"indices":51,
					"material":12
				}
			]
		},
		{
			"name":"Mesh.013",
			"primitives":[
				{
					"attributes":{
						"POSITION":52,
						"NORMAL":53,
						"TEXCOORD_0":54
					},
					"indices":55,
					"material":13
				}
			]
		},
		{
			"name":"Mesh.014",
			"primitives":[
				{
					"attributes":{
						"POSITION":56,
						"NORMAL":57,
						"TEXCOORD_0":58
					},
					"indices":59,
					"material":14
				}
			]
		},
		{
			"name":"Mesh.015",
			"primitives":[
				{
					"attributes":{
						"POSITION":60,
						"NORMAL":61,
						"TEXCOORD_0":62
					},
					"indices":63,
					"material":15
				}
			]
		},
		{
			"name":"Mesh.016",
			"primitives":[
				{
					"attributes":{
						"POSITION":64,
						"NORMAL":65,
						"TEXCOORD_0":66
					},
					"indices":67,
					"material":16
				}
			]
		},
		{
			"name":"Mesh.017",
			"primitives":[
				{
					"attributes":{
						"POSITION":68,
						"NORMAL":69,
						"TEXCOORD_0":70
					},
					"indices":71,
					"material":17
				}
			]
		},
		{
			"name":"Mesh.018",
			"primitives":[
				{
					"attributes":{
						"POSITION":72,
						"NORMAL":73,
						"TEXCOORD_0":74
					},
					"indices":75,
					"material":18
				}
			]
		},
		{
			"name":"Mesh.019",
			"primitives":[
				{
					"attributes":{
						"POSITION":76,
						"NORMAL":77,
						"TEXCOORD_0":78
					},
					"indices":79,
					"material":19
				}
			]
		},
		{
			"name":"Mesh.020",
			"primitives":[
				{
					"attributes":{
						"POSITION":80,
						"NORMAL":81,
						"TEXCOORD_0":82
					},
					"indices":83,
					"material":20
				}
			]
		},
		{
			"name":"Mesh.021",
			"primitives":[
				{
					"attributes":{
						"POSITION":84,
						"NORMAL":85,
						"TEXCOORD_0":86
					},
					"indices":87,
					"material":21
				}
			]
		},
		{
			"name":"Mesh.022",
			"primitives":[
				{
					"attributes":{
						"POSITION":88,
						"NORMAL":89,
						"TEXCOORD_0":90
					},
					"indices":91,
					"material":22
				}
			]
		},
		{
			"name":"Mesh.023",
			"primitives":[
				{
					"attributes":{
						"POSITION":92,
						"NORMAL":93,
						"TEXCOORD_0":94
					},
					"indices":95,
					"material":23
				}
			]
		},
		{
			"name":"Mesh.024",
			"primitives":[
				{
					"attributes":{
						"POSITION":96,
						"NORMAL":97,
						"TEXCOORD_0":98
					},
					"indices":99,
					"material":24
				}
			]
		},
		{
			"name":"Mesh.025",
			"primitives":[
				{
					"attributes":{
						"POSITION":100,
						"NORMAL":101,
						"TEXCOORD_0":102
					},
					"indices":103,
					"material":25
				}
			]
		},
		{
			"name":"Mesh.026",
			"primitives":[
				{
					"attributes":{
						"POSITION":104,
						"NORMAL":105,
						"TEXCOORD_0":106
					},
					"indices":107,
					"material":26
				}
			]
		},
		{
			"name":"Mesh.027",
			"primitives":[
				{
					"attributes":{
						"POSITION":108,
						"NORMAL":109,
						"TEXCOORD_0":110
					},
					"indices":111,
					"material":27
				}
			]
		},
		{
			"name":"Mesh.028",
			"primitives":[
				{
					"attributes":{
						"POSITION":112,
						"NORMAL":113,
						"TEXCOORD_0":114
					},
					"indices":111,
					"material":28
				}
			]
		},
		{
			"name":"Mesh.029",
			"primitives":[
				{
					"attributes":{
						"POSITION":115,
						"NORMAL":116,
						"TEXCOORD_0":117
					},
					"indices":118,
					"material":29
				}
			]
		},
		{
			"name":"Mesh.030",
			"primitives":[
				{
					"attributes":{
						"POSITION":119,
						"NORMAL":120,
						"TEXCOORD_0":121
					},
					"indices":122,
					"material":30
				}
			]
		},
		{
			"name":"Mesh.031",
			"primitives":[
				{
					"attributes":{
						"POSITION":123,
						"NORMAL":124,
						"TEXCOORD_0":125
					},
					"indices":126,
					"material":31
				}
			]
		},
		{
			"name":"Mesh.032",
			"primitives":[
				{
					"attributes":{
						"POSITION":127,
						"NORMAL":128,
						"TEXCOORD_0":129
					},
					"indices":130,
					"material":32
				}
			]
		},
		{
			"name":"Mesh.033",
			"primitives":[
				{
					"attributes":{
						"POSITION":131,
						"NORMAL":132,
						"TEXCOORD_0":133
					},
					"indices":134,
					"material":33
				}
			]
		},
		{
			"name":"Mesh.034",
			"primitives":[
				{
					"attributes":{
						"POSITION":135,
						"NORMAL":136,
						"TEXCOORD_0":137
					},
					"indices":138,
					"material":34
				}
			]
		},
		{
			"name":"Mesh.035",
			"primitives":[
				{
					"attributes":{
						"POSITION":139,
						"NORMAL":140,
						"TEXCOORD_0":141
					},
					"indices":142,
					"material":35
				}
			]
		},
		{
			"name":"Mesh.036",
			"primitives":[
				{
					"attributes":{
						"POSITION":143,
						"NORMAL":144,
						"TEXCOORD_0":145
					},
					"indices":146,
					"material":36
				}
			]
		},
		{
			"name":"Mesh.037",
			"primitives":[
				{
					"attributes":{
						"POSITION":147,
						"NORMAL":148,
						"TEXCOORD_0":149
					},
					"indices":150,
					"material":37
				}
			]
		},
		{
			"name":"Mesh.038",
			"primitives":[
				{
					"attributes":{
						"POSITION":151,
						"NORMAL":152,
						"TEXCOORD_0":153
					},
					"indices":154,
					"material":38
				}
			]
		},
		{
			"name":"Mesh.039",
			"primitives":[
				{
					"attributes":{
						"POSITION":155,
						"NORMAL":156,
						"TEXCOORD_0":157
					},
					"indices":158,
					"material":39
				}
			]
		},
		{
			"name":"Mesh.040",
			"primitives":[
				{
					"attributes":{
						"POSITION":159,
						"NORMAL":160,
						"TEXCOORD_0":161
					},
					"indices":162,
					"material":40
				}
			]
		},
		{
			"name":"Mesh.041",
			"primitives":[
				{
					"attributes":{
						"POSITION":163,
						"NORMAL":164,
						"TEXCOORD_0":165
					},
					"indices":166,
					"material":41
				}
			]
		},
		{
			"name":"Mesh.042",
			"primitives":[
				{
					"attributes":{
						"POSITION":167,
						"NORMAL":168,
						"TEXCOORD_0":169
					},
					"indices":170,
					"material":42
				}
			]
		},
		{
			"name":"Mesh.043",
			"primitives":[
				{
					"attributes":{
						"POSITION":171,
						"NORMAL":172,
						"TEXCOORD_0":173
					},
					"indices":174,
					"material":43
				}
			]
		},
		{
			"name":"Mesh.044",
			"primitives":[
				{
					"attributes":{
						"POSITION":175,
						"NORMAL":176,
						"TEXCOORD_0":177
					},
					"indices":178,
					"material":44
				}
			]
		}
	],
	"textures":[
		{
			"sampler":0,
			"source":0
		},
		{
			"sampler":0,
			"source":1
		},
		{
			"sampler":0,
			"source":2
		},
		{
			"sampler":0,
			"source":3
		},
		{
			"sampler":0,
			"source":4
		},
		{
			"sampler":0,
			"source":5
		},
		{
			"sampler":0,
			"source":6
		},
		{
			"sampler":0,
			"source":7
		},
		{
			"sampler":0,
			"source":8
		},
		{
			"sampler":0,
			"source":9
		},
		{
			"sampler":0,
			"source":10
		},
		{
			"sampler":0,
			"source":11
		},
		{
			"sampler":0,
			"source":12
		},
		{
			"sampler":0,
			"source":13
		},
		{
			"sampler":0,
			"source":14
		},
		{
			"sampler":0,
			"source":15
		},
		{
			"sampler":0,
			"source":16
		},
		{
			"sampler":0,
			"source":17
		},
		{
			"sampler":0,
			"source":18
		},
		{
			"sampler":0,
			"source":19
		},
		{
			"sampler":0,
			"source":20
		},
		{
			"sampler":0,
			"source":21
		},
		{
			"sampler":0,
			"source":22
		},
		{
			"sampler":0,
			"source":23
		},
		{
			"sampler":0,
			"source":24
		},
		{
			"sampler":0,
			"source":25
		},
		{
			"sampler":0,
			"source":26
		},
		{
			"sampler":0,
			"source":27
		},
		{
			"sampler":0,
			"source":28
		},
		{
			"sampler":0,
			"source":29
		},
		{
			"sampler":0,
			"source":30
		}
	],
	"images":[
		{
			"mimeType":"image/png",
			"name":"RGB_047d892e977f4e0bacd02208389a7638_bumpers",
			"uri":"RGB_047d892e977f4e0bacd02208389a7638_bumpers.png"
		},
		{
			"mimeType":"image/png",
			"name":"RGB_ee8151d9c6294da59d56f887e2dd8cdc_Cabin2",
			"uri":"RGB_ee8151d9c6294da59d56f887e2dd8cdc_Cabin2.png"
		},
		{
			"mimeType":"image/png",
			"name":"RGB_ef2d9b58e11649f6ab048708c5992412_Controlerfull",
			"uri":"RGB_ef2d9b58e11649f6ab048708c5992412_Controlerfull.png"
		},
		{
			"mimeType":"image/png",
			"name":"RGB_bb0db94e8ff1424eb4366dc2f750c863_handel",
			"uri":"RGB_bb0db94e8ff1424eb4366dc2f750c863_handel.png"
		},
		{
			"mimeType":"image/png",
			"name":"RGB_ac741951b959451799830acd1860cc96_exowindow",
			"uri":"RGB_ac741951b959451799830acd1860cc96_exowindow.png"
		},
		{
			"mimeType":"image/png",
			"name":"RGB_ca7bf548065946499fbb2b5a99bdb002_Fstand",
			"uri":"RGB_ca7bf548065946499fbb2b5a99bdb002_Fstand.png"
		},
		{
			"mimeType":"image/png",
			"name":"RGB_c0bd4150b7914630b9a04052894444d5_Fstand2",
			"uri":"RGB_c0bd4150b7914630b9a04052894444d5_Fstand2.png"
		},
		{
			"mimeType":"image/png",
			"name":"RGB_b6cac0a28aae4b3a932f21501eab826d_exowindow1",
			"uri":"RGB_b6cac0a28aae4b3a932f21501eab826d_exowindow1.png"
		},
		{
			"mimeType":"image/png",
			"name":"RGB_066269ced87441cb93817ad373d32e1c_topbox",
			"uri":"RGB_066269ced87441cb93817ad373d32e1c_topbox.png"
		},
		{
			"mimeType":"image/png",
			"name":"RGB_0f4cb6d37318487f93532d6cedb7e150_simpleminibox",
			"uri":"RGB_0f4cb6d37318487f93532d6cedb7e150_simpleminibox.png"
		},
		{
			"mimeType":"image/png",
			"name":"RGB_617b7685c4d7446d8115fa0145e4012d_squerpipe",
			"uri":"RGB_617b7685c4d7446d8115fa0145e4012d_squerpipe.png"
		},
		{
			"mimeType":"image/png",
			"name":"RGB_4f44fc35b6ee4bbe8957a1cbfa3776a5_toplight",
			"uri":"RGB_4f44fc35b6ee4bbe8957a1cbfa3776a5_toplight.png"
		},
		{
			"mimeType":"image/png",
			"name":"RGB_396e7c9a3b8240a2a9be9c77196489e2_seet",
			"uri":"RGB_396e7c9a3b8240a2a9be9c77196489e2_seet.png"
		},
		{
			"mimeType":"image/png",
			"name":"RGB_f4bf4474579f4eb58bfe1135590e5184_break",
			"uri":"RGB_f4bf4474579f4eb58bfe1135590e5184_break.png"
		},
		{
			"mimeType":"image/png",
			"name":"RGB_d6a75174a4b1451db6d2473f9ffae54c_horn2",
			"uri":"RGB_d6a75174a4b1451db6d2473f9ffae54c_horn2.png"
		},
		{
			"mimeType":"image/png",
			"name":"RGB_52d0da81dfd1492f9fba21d69724c40a_horn",
			"uri":"RGB_52d0da81dfd1492f9fba21d69724c40a_horn.png"
		},
		{
			"mimeType":"image/png",
			"name":"RGB_0145cd50e1a54226b4388a23e51d5d9a_headlight1",
			"uri":"RGB_0145cd50e1a54226b4388a23e51d5d9a_headlight1.png"
		},
		{
			"mimeType":"image/png",
			"name":"RGB_f7fc2eac28b34f73a2fe0b492e493110_lightside1",
			"uri":"RGB_f7fc2eac28b34f73a2fe0b492e493110_lightside1.png"
		},
		{
			"mimeType":"image/png",
			"name":"RGB_226ffd27939d401a8c2586e2df3e427e_redlight2",
			"uri":"RGB_226ffd27939d401a8c2586e2df3e427e_redlight2.png"
		},
		{
			"mimeType":"image/png",
			"name":"RGB_8f4fc16e269444fe8c84cec148dd060d_pipe1",
			"uri":"RGB_8f4fc16e269444fe8c84cec148dd060d_pipe1.png"
		},
		{
			"mimeType":"image/png",
			"name":"RGB_abe459b9c994442294d07510805b3348_pipe2",
			"uri":"RGB_abe459b9c994442294d07510805b3348_pipe2.png"
		},
		{
			"mimeType":"image/png",
			"name":"RGB_26bc19ed04064657864f8b5c484fcbf6_FAN1_",
			"uri":"RGB_26bc19ed04064657864f8b5c484fcbf6_FAN1_.png"
		},
		{
			"mimeType":"image/png",
			"name":"RGB_7745531138d94f1184d73ea88f1aa541_meaterbox",
			"uri":"RGB_7745531138d94f1184d73ea88f1aa541_meaterbox.png"
		},
		{
			"mimeType":"image/png",
			"name":"RGB_1234255b5bf34c4ab1b43dd5695f3edf_Moter",
			"uri":"RGB_1234255b5bf34c4ab1b43dd5695f3edf_Moter.png"
		},
		{
			"mimeType":"image/png",
			"name":"RGB_0ff24f64642e4f86a53291b3e8e53ec4_Moter1",
			"uri":"RGB_0ff24f64642e4f86a53291b3e8e53ec4_Moter1.png"
		},
		{
			"mimeType":"image/png",
			"name":"RGB_767ed7f2fa5e4469ab40903ac829486c_doorpng",
			"uri":"RGB_767ed7f2fa5e4469ab40903ac829486c_doorpng.png"
		},
		{
			"mimeType":"image/png",
			"name":"RGB_4f7b5130632243a49e44911004732fa5_spring",
			"uri":"RGB_4f7b5130632243a49e44911004732fa5_spring.png"
		},
		{
			"mimeType":"image/png",
			"name":"RGB_1976848f0e2a45c3a391b2e351850a8b_bigspring",
			"uri":"RGB_1976848f0e2a45c3a391b2e351850a8b_bigspring.png"
		},
		{
			"mimeType":"image/png",
			"name":"RGB_c894db085150469083925816bd30e0a5_longsuspensen",
			"uri":"RGB_c894db085150469083925816bd30e0a5_longsuspensen.png"
		},
		{
			"mimeType":"image/png",
			"name":"RGB_daf3025394f74e9882447fd60727c0ad_wheel_002wheel1_002wheel1_",
			"uri":"RGB_daf3025394f74e9882447fd60727c0ad_wheel_002wheel1_002wheel1_.png"
		},
		{
			"mimeType":"image/png",
			"name":"RGB_77b38dc1723c42499cfde26459e27055_Wap7Bodycolour",
			"uri":"RGB_77b38dc1723c42499cfde26459e27055_Wap7Bodycolour.png"
		}
	],
	"accessors":[
		{
			"bufferView":0,
			"componentType":5126,
			"count":944,
			"max":[
				0.8411538600921631,
				3.3845624923706055,
				4.215941905975342
			],
			"min":[
				-0.8030441403388977,
				2.242863416671753,
				-4.101778507232666
			],
			"type":"VEC3"
		},
		{
			"bufferView":1,
			"componentType":5126,
			"count":944,
			"type":"VEC3"
		},
		{
			"bufferView":2,
			"componentType":5126,
			"count":944,
			"type":"VEC2"
		},
		{
			"bufferView":3,
			"componentType":5123,
			"count":5448,
			"type":"SCALAR"
		},
		{
			"bufferView":4,
			"componentType":5126,
			"count":19521,
			"max":[
				0.9871718883514404,
				2.0253453254699707,
				5.955667495727539
			],
			"min":[
				-0.9646471738815308,
				0.007470294367522001,
				-5.823380470275879
			],
			"type":"VEC3"
		},
		{
			"bufferView":5,
			"componentType":5126,
			"count":19521,
			"type":"VEC3"
		},
		{
			"bufferView":6,
			"componentType":5126,
			"count":19521,
			"type":"VEC2"
		},
		{
			"bufferView":7,
			"componentType":5123,
			"count":102912,
			"type":"SCALAR"
		},
		{
			"bufferView":8,
			"componentType":5126,
			"count":896,
			"max":[
				0.8184177875518799,
				0.7628942131996155,
				6.180039882659912
			],
			"min":[
				-0.7958941459655762,
				0.44372329115867615,
				-6.04778528213501
			],
			"type":"VEC3"
		},
		{
			"bufferView":9,
			"componentType":5126,
			"count":896,
			"type":"VEC3"
		},
		{
			"bufferView":10,
			"componentType":5126,
			"count":896,
			"type":"VEC2"
		},
		{
			"bufferView":11,
			"componentType":5123,
			"count":4560,
			"type":"SCALAR"
		},
		{
			"bufferView":12,
			"componentType":5126,
			"count":328,
			"max":[
				0.8907848596572876,
				2.095705986022949,
				5.77641487121582
			],
			"min":[
				-0.8678431510925293,
				0.9442693591117859,
				-5.642561435699463
			],
			"type":"VEC3"
		},
		{
			"bufferView":13,
			"componentType":5126,
			"count":328,
			"type":"VEC3"
		},
		{
			"bufferView":14,
			"componentType":5126,
			"count":328,
			"type":"VEC2"
		},
		{
			"bufferView":15,
			"componentType":5123,
			"count":1248,
			"type":"SCALAR"
		},
		{
			"bufferView":16,
			"componentType":5126,
			"count":4912,
			"max":[
				0.8749397993087769,
				1.6189601421356201,
				5.689361572265625
			],
			"min":[
				-0.8497671484947205,
				0.958625316619873,
				-5.558188438415527
			],
			"type":"VEC3"
		},
		{
			"bufferView":17,
			"componentType":5126,
			"count":4912,
			"type":"VEC3"
		},
		{
			"bufferView":18,
			"componentType":5126,
			"count":4912,
			"type":"VEC2"
		},
		{
			"bufferView":19,
			"componentType":5123,
			"count":25176,
			"type":"SCALAR"
		},
		{
			"bufferView":20,
			"componentType":5126,
			"count":320,
			"max":[
				0.9446948766708374,
				1.751675009727478,
				5.115424633026123
			],
			"min":[
				-0.9221691489219666,
				0.9820073843002319,
				-4.9831671714782715
			],
			"type":"VEC3"
		},
		{
			"bufferView":21,
			"componentType":5126,
			"count":320,
			"type":"VEC3"
		},
		{
			"bufferView":22,
			"componentType":5126,
			"count":320,
			"type":"VEC2"
		},
		{
			"bufferView":23,
			"componentType":5123,
			"count":1824,
			"type":"SCALAR"
		},
		{
			"bufferView":24,
			"componentType":5126,
			"count":3552,
			"max":[
				0.9249598979949951,
				2.2723100185394287,
				6.0651936531066895
			],
			"min":[
				-0.9027801752090454,
				0.9009882807731628,
				-5.932934284210205
			],
			"type":"VEC3"
		},
		{
			"bufferView":25,
			"componentType":5126,
			"count":3552,
			"type":"VEC3"
		},
		{
			"bufferView":26,
			"componentType":5126,
			"count":3552,
			"type":"VEC2"
		},
		{
			"bufferView":27,
			"componentType":5123,
			"count":20976,
			"type":"SCALAR"
		},
		{
			"bufferView":28,
			"componentType":5126,
			"count":3304,
			"max":[
				0.8999488353729248,
				2.5505502223968506,
				6.0795979499816895
			],
			"min":[
				-0.8588471412658691,
				0.4862547814846039,
				-5.947333335876465
			],
			"type":"VEC3"
		},
		{
			"bufferView":29,
			"componentType":5126,
			"count":3304,
			"type":"VEC3"
		},
		{
			"bufferView":30,
			"componentType":5126,
			"count":3304,
			"type":"VEC2"
		},
		{
			"bufferView":31,
			"componentType":5123,
			"count":19416,
			"type":"SCALAR"
		},
		{
			"bufferView":32,
			"componentType":5126,
			"count":136,
			"max":[
				0.9307798147201538,
				1.996534824371338,
				1.6024603843688965
			],
			"min":[
				-0.9082551598548889,
				1.4413968324661255,
				1.1828293800354004
			],
			"type":"VEC3"
		},
		{
			"bufferView":33,
			"componentType":5126,
			"count":136,
			"type":"VEC3"
		},
		{
			"bufferView":34,
			"componentType":5126,
			"count":136,
			"type":"VEC2"
		},
		{
			"bufferView":35,
			"componentType":5123,
			"count":792,
			"type":"SCALAR"
		},
		{
			"bufferView":36,
			"componentType":5126,
			"count":48,
			"max":[
				0.6863468885421753,
				0.9004232287406921,
				6.05964469909668
			],
			"min":[
				-0.663823127746582,
				0.867882251739502,
				-5.927363395690918
			],
			"type":"VEC3"
		},
		{
			"bufferView":37,
			"componentType":5126,
			"count":48,
			"type":"VEC3"
		},
		{
			"bufferView":38,
			"componentType":5126,
			"count":48,
			"type":"VEC2"
		},
		{
			"bufferView":39,
			"componentType":5123,
			"count":144,
			"type":"SCALAR"
		},
		{
			"bufferView":40,
			"componentType":5126,
			"count":224,
			"max":[
				0.7121518850326538,
				1.4194082021713257,
				5.854533672332764
			],
			"min":[
				-0.6855931282043457,
				1.1547422409057617,
				-5.7222442626953125
			],
			"type":"VEC3"
		},
		{
			"bufferView":41,
			"componentType":5126,
			"count":224,
			"type":"VEC3"
		},
		{
			"bufferView":42,
			"componentType":5126,
			"count":224,
			"type":"VEC2"
		},
		{
			"bufferView":43,
			"componentType":5123,
			"count":1200,
			"type":"SCALAR"
		},
		{
			"bufferView":44,
			"componentType":5126,
			"count":96,
			"max":[
				0.744682788848877,
				0.9826672077178955,
				5.990957736968994
			],
			"min":[
				-0.7221581935882568,
				0.9014503359794617,
				-5.8586955070495605
			],
			"type":"VEC3"
		},
		{
			"bufferView":45,
			"componentType":5126,
			"count":96,
			"type":"VEC3"
		},
		{
			"bufferView":46,
			"componentType":5126,
			"count":96,
			"type":"VEC2"
		},
		{
			"bufferView":47,
			"componentType":5123,
			"count":480,
			"type":"SCALAR"
		},
		{
			"bufferView":48,
			"componentType":5126,
			"count":4622,
			"max":[
				0.9423078298568726,
				2.5659537315368652,
				6.280595779418945
			],
			"min":[
				-0.9197851419448853,
				0.07188872247934341,
				-6.146846294403076
			],
			"type":"VEC3"
		},
		{
			"bufferView":49,
			"componentType":5126,
			"count":4622,
			"type":"VEC3"
		},
		{
			"bufferView":50,
			"componentType":5126,
			"count":4622,
			"type":"VEC2"
		},
		{
			"bufferView":51,
			"componentType":5123,
			"count":26292,
			"type":"SCALAR"
		},
		{
			"bufferView":52,
			"componentType":5126,
			"count":160,
			"max":[
				0.9300248622894287,
				2.0003254413604736,
				-2.6276185512542725
			],
			"min":[
				-0.9075011610984802,
				1.3540774583816528,
				-3.4124836921691895
			],
			"type":"VEC3"
		},
		{
			"bufferView":53,
			"componentType":5126,
			"count":160,
			"type":"VEC3"
		},
		{
			"bufferView":54,
			"componentType":5126,
			"count":160,
			"type":"VEC2"
		},
		{
			"bufferView":55,
			"componentType":5123,
			"count":936,
			"type":"SCALAR"
		},
		{
			"bufferView":56,
			"componentType":5126,
			"count":248,
			"max":[
				0.6804478168487549,
				2.3565306663513184,
				0.8420243263244629
			],
			"min":[
				-0.6263991594314575,
				2.1137728691101074,
				0.1785363107919693
			],
			"type":"VEC3"
		},
		{
			"bufferView":57,
			"componentType":5126,
			"count":248,
			"type":"VEC3"
		},
		{
			"bufferView":58,
			"componentType":5126,
			"count":248,
			"type":"VEC2"
		},
		{
			"bufferView":59,
			"componentType":5123,
			"count":1476,
			"type":"SCALAR"
		},
		{
			"bufferView":60,
			"componentType":5126,
			"count":240,
			"max":[
				0.920387864112854,
				2.1177961826324463,
				5.6938886642456055
			],
			"min":[
				-0.8978631496429443,
				1.906434416770935,
				-5.561641216278076
			],
			"type":"VEC3"
		},
		{
			"bufferView":61,
			"componentType":5126,
			"count":240,
			"type":"VEC3"
		},
		{
			"bufferView":62,
			"componentType":5126,
			"count":240,
			"type":"VEC2"
		},
		{
			"bufferView":63,
			"componentType":5123,
			"count":1368,
			"type":"SCALAR"
		},
		{
			"bufferView":64,
			"componentType":5126,
			"count":112,
			"max":[
				0.7572438716888428,
				0.7939679026603699,
				2.751164436340332
			],
			"min":[
				-0.7347201704978943,
				0.631644606590271,
				-2.6188735961914062
			],
			"type":"VEC3"
		},
		{
			"bufferView":65,
			"componentType":5126,
			"count":112,
			"type":"VEC3"
		},
		{
			"bufferView":66,
			"componentType":5126,
			"count":112,
			"type":"VEC2"
		},
		{
			"bufferView":67,
			"componentType":5123,
			"count":624,
			"type":"SCALAR"
		},
		{
			"bufferView":68,
			"componentType":5126,
			"count":60,
			"max":[
				0.679459810256958,
				0.6462658047676086,
				0.6632754802703857
			],
			"min":[
				-0.6828611493110657,
				0.1044757068157196,
				-0.5411335825920105
			],
			"type":"VEC3"
		},
		{
			"bufferView":69,
			"componentType":5126,
			"count":60,
			"type":"VEC3"
		},
		{
			"bufferView":70,
			"componentType":5126,
			"count":60,
			"type":"VEC2"
		},
		{
			"bufferView":71,
			"componentType":5123,
			"count":348,
			"type":"SCALAR"
		},
		{
			"bufferView":72,
			"componentType":5126,
			"count":304,
			"max":[
				0.878963828086853,
				0.588369607925415,
				1.6435045003890991
			],
			"min":[
				-0.82911217212677,
				0.12463982403278351,
				-1.5339725017547607
			],
			"type":"VEC3"
		},
		{
			"bufferView":73,
			"componentType":5126,
			"count":304,
			"type":"VEC3"
		},
		{
			"bufferView":74,
			"componentType":5126,
			"count":304,
			"type":"VEC2"
		},
		{
			"bufferView":75,
			"componentType":5123,
			"count":1896,
			"type":"SCALAR"
		},
		{
			"bufferView":76,
			"componentType":5126,
			"count":80,
			"max":[
				0.6952178478240967,
				0.6102986931800842,
				0.8345704078674316
			],
			"min":[
				-0.6494741439819336,
				0.42766880989074707,
				-0.7050805687904358
			],
			"type":"VEC3"
		},
		{
			"bufferView":77,
			"componentType":5126,
			"count":80,
			"type":"VEC3"
		},
		{
			"bufferView":78,
			"componentType":5126,
			"count":80,
			"type":"VEC2"
		},
		{
			"bufferView":79,
			"componentType":5123,
			"count":456,
			"type":"SCALAR"
		},
		{
			"bufferView":80,
			"componentType":5126,
			"count":288,
			"max":[
				0.9296687841415405,
				0.781785786151886,
				1.0820084810256958
			],
			"min":[
				-0.9194391369819641,
				0.695366621017456,
				-1.2441165447235107
			],
			"type":"VEC3"
		},
		{
			"bufferView":81,
			"componentType":5126,
			"count":288,
			"type":"VEC3"
		},
		{
			"bufferView":82,
			"componentType":5126,
			"count":288,
			"type":"VEC2"
		},
		{
			"bufferView":83,
			"componentType":5123,
			"count":1728,
			"type":"SCALAR"
		},
		{
			"bufferView":84,
			"componentType":5126,
			"count":328,
			"max":[
				0.06231284141540527,
				2.5288610458374023,
				4.863056659698486
			],
			"min":[
				-0.031482160091400146,
				2.4350645542144775,
				-4.730793476104736
			],
			"type":"VEC3"
		},
		{
			"bufferView":85,
			"componentType":5126,
			"count":328,
			"type":"VEC3"
		},
		{
			"bufferView":86,
			"componentType":5126,
			"count":328,
			"type":"VEC2"
		},
		{
			"bufferView":87,
			"componentType":5123,
			"count":1944,
			"type":"SCALAR"
		},
		{
			"bufferView":88,
			"componentType":5126,
			"count":656,
			"max":[
				0.5914537906646729,
				1.5978730916976929,
				5.141511917114258
			],
			"min":[
				-0.6233571767807007,
				0.941866397857666,
				-5.021857261657715
			],
			"type":"VEC3"
		},
		{
			"bufferView":89,
			"componentType":5126,
			"count":656,
			"type":"VEC3"
		},
		{
			"bufferView":90,
			"componentType":5126,
			"count":656,
			"type":"VEC2"
		},
		{
			"bufferView":91,
			"componentType":5123,
			"count":3288,
			"type":"SCALAR"
		},
		{
			"bufferView":92,
			"componentType":5126,
			"count":1245,
			"max":[
				0.5341588258743286,
				0.6634353399276733,
				5.099127769470215
			],
			"min":[
				-0.5116351842880249,
				0.15726737678050995,
				-4.996594429016113
			],
			"type":"VEC3"
		},
		{
			"bufferView":93,
			"componentType":5126,
			"count":1245,
			"type":"VEC3"
		},
		{
			"bufferView":94,
			"componentType":5126,
			"count":1245,
			"type":"VEC2"
		},
		{
			"bufferView":95,
			"componentType":5123,
			"count":7074,
			"type":"SCALAR"
		},
		{
			"bufferView":96,
			"componentType":5126,
			"count":768,
			"max":[
				0.2565288543701172,
				2.4706876277923584,
				4.79119873046875
			],
			"min":[
				0.10824882984161377,
				2.3186821937561035,
				-4.658934116363525
			],
			"type":"VEC3"
		},
		{
			"bufferView":97,
			"componentType":5126,
			"count":768,
			"type":"VEC3"
		},
		{
			"bufferView":98,
			"componentType":5126,
			"count":768,
			"type":"VEC2"
		},
		{
			"bufferView":99,
			"componentType":5123,
			"count":4200,
			"type":"SCALAR"
		},
		{
			"bufferView":100,
			"componentType":5126,
			"count":800,
			"max":[
				-0.08504313230514526,
				2.4809999465942383,
				4.5941596031188965
			],
			"min":[
				-0.233329176902771,
				2.332364320755005,
				-4.461885452270508
			],
			"type":"VEC3"
		},
		{
			"bufferView":101,
			"componentType":5126,
			"count":800,
			"type":"VEC3"
		},
		{
			"bufferView":102,
			"componentType":5126,
			"count":800,
			"type":"VEC2"
		},
		{
			"bufferView":103,
			"componentType":5123,
			"count":4200,
			"type":"SCALAR"
		},
		{
			"bufferView":104,
			"componentType":5126,
			"count":864,
			"max":[
				0.1595238447189331,
				1.3916501998901367,
				5.884072780609131
			],
			"min":[
				-0.1045331358909607,
				1.228379249572754,
				-5.751784324645996
			],
			"type":"VEC3"
		},
		{
			"bufferView":105,
			"componentType":5126,
			"count":864,
			"type":"VEC3"
		},
		{
			"bufferView":106,
			"componentType":5126,
			"count":864,
			"type":"VEC2"
		},
		{
			"bufferView":107,
			"componentType":5123,
			"count":5136,
			"type":"SCALAR"
		},
		{
			"bufferView":108,
			"componentType":5126,
			"count":640,
			"max":[
				0.6860588788986206,
				1.3921802043914795,
				5.861051559448242
			],
			"min":[
				-0.6635381579399109,
				1.2930532693862915,
				-5.728800296783447
			],
			"type":"VEC3"
		},
		{
			"bufferView":109,
			"componentType":5126,
			"count":640,
			"type":"VEC3"
		},
		{
			"bufferView":110,
			"componentType":5126,
			"count":640,
			"type":"VEC2"
		},
		{
			"bufferView":111,
			"componentType":5123,
			"count":3792,
			"type":"SCALAR"
		},
		{
			"bufferView":112,
			"componentType":5126,
			"count":640,
			"max":[
				0.6860588788986206,
				1.2806302309036255,
				5.861051559448242
			],
			"min":[
				-0.6635381579399109,
				1.1815032958984375,
				-5.728800296783447
			],
			"type":"VEC3"
		},
		{
			"bufferView":113,
			"componentType":5126,
			"count":640,
			"type":"VEC3"
		},
		{
			"bufferView":114,
			"componentType":5126,
			"count":640,
			"type":"VEC2"
		},
		{
			"bufferView":115,
			"componentType":5126,
			"count":14848,
			"max":[
				0.8193848133087158,
				2.5546677112579346,
				3.9522271156311035
			],
			"min":[
				-0.770811140537262,
				2.121386766433716,
				-3.8941657543182373
			],
			"type":"VEC3"
		},
		{
			"bufferView":116,
			"componentType":5126,
			"count":14848,
			"type":"VEC3"
		},
		{
			"bufferView":117,
			"componentType":5126,
			"count":14848,
			"type":"VEC2"
		},
		{
			"bufferView":118,
			"componentType":5123,
			"count":88824,
			"type":"SCALAR"
		},
		{
			"bufferView":119,
			"componentType":5126,
			"count":788,
			"max":[
				0.4485408067703247,
				0.6551751494407654,
				5.937402725219727
			],
			"min":[
				0.3364248275756836,
				0.5393742918968201,
				-5.805144309997559
			],
			"type":"VEC3"
		},
		{
			"bufferView":120,
			"componentType":5126,
			"count":788,
			"type":"VEC3"
		},
		{
			"bufferView":121,
			"componentType":5126,
			"count":788,
			"type":"VEC2"
		},
		{
			"bufferView":122,
			"componentType":5123,
			"count":4704,
			"type":"SCALAR"
		},
		{
			"bufferView":123,
			"componentType":5126,
			"count":788,
			"max":[
				0.30827581882476807,
				0.5978361368179321,
				5.937402725219727
			],
			"min":[
				0.19471979141235352,
				0.46657127141952515,
				-5.805144309997559
			],
			"type":"VEC3"
		},
		{
			"bufferView":124,
			"componentType":5126,
			"count":788,
			"type":"VEC3"
		},
		{
			"bufferView":125,
			"componentType":5126,
			"count":788,
			"type":"VEC2"
		},
		{
			"bufferView":126,
			"componentType":5123,
			"count":4704,
			"type":"SCALAR"
		},
		{
			"bufferView":127,
			"componentType":5126,
			"count":1748,
			"max":[
				-0.20724713802337646,
				0.6244373321533203,
				5.95566987991333
			],
			"min":[
				-0.7076821327209473,
				0.1814601719379425,
				-5.823381423950195
			],
			"type":"VEC3"
		},
		{
			"bufferView":128,
			"componentType":5126,
			"count":1748,
			"type":"VEC3"
		},
		{
			"bufferView":129,
			"componentType":5126,
			"count":1748,
			"type":"VEC2"
		},
		{
			"bufferView":130,
			"componentType":5123,
			"count":10464,
			"type":"SCALAR"
		},
		{
			"bufferView":131,
			"componentType":5126,
			"count":2004,
			"max":[
				-0.33292317390441895,
				0.693023145198822,
				5.952737808227539
			],
			"min":[
				-0.755398154258728,
				0.20075426995754242,
				-5.820478439331055
			],
			"type":"VEC3"
		},
		{
			"bufferView":132,
			"componentType":5126,
			"count":2004,
			"type":"VEC3"
		},
		{
			"bufferView":133,
			"componentType":5126,
			"count":2004,
			"type":"VEC2"
		},
		{
			"bufferView":134,
			"componentType":5123,
			"count":12000,
			"type":"SCALAR"
		},
		{
			"bufferView":135,
			"componentType":5126,
			"count":224,
			"max":[
				0.886664867401123,
				0.7917020320892334,
				3.741492509841919
			],
			"min":[
				-0.8641411662101746,
				0.5250313878059387,
				-3.636995553970337
			],
			"type":"VEC3"
		},
		{
			"bufferView":136,
			"componentType":5126,
			"count":224,
			"type":"VEC3"
		},
		{
			"bufferView":137,
			"componentType":5126,
			"count":224,
			"type":"VEC2"
		},
		{
			"bufferView":138,
			"componentType":5123,
			"count":1296,
			"type":"SCALAR"
		},
		{
			"bufferView":139,
			"componentType":5126,
			"count":2112,
			"max":[
				0.8928937911987305,
				2.068355083465576,
				5.593516826629639
			],
			"min":[
				-0.8732581734657288,
				1.8910843133926392,
				-5.458193302154541
			],
			"type":"VEC3"
		},
		{
			"bufferView":140,
			"componentType":5126,
			"count":2112,
			"type":"VEC3"
		},
		{
			"bufferView":141,
			"componentType":5126,
			"count":2112,
			"type":"VEC2"
		},
		{
			"bufferView":142,
			"componentType":5123,
			"count":11376,
			"type":"SCALAR"
		},
		{
			"bufferView":143,
			"componentType":5126,
			"count":48,
			"max":[
				0.08541685342788696,
				1.927814245223999,
				5.627343654632568
			],
			"min":[
				-0.060929179191589355,
				1.720007300376892,
				-5.493581295013428
			],
			"type":"VEC3"
		},
		{
			"bufferView":144,
			"componentType":5126,
			"count":48,
			"type":"VEC3"
		},
		{
			"bufferView":145,
			"componentType":5126,
			"count":48,
			"type":"VEC2"
		},
		{
			"bufferView":146,
			"componentType":5123,
			"count":72,
			"type":"SCALAR"
		},
		{
			"bufferView":147,
			"componentType":5126,
			"count":2512,
			"max":[
				0.9115558862686157,
				0.6642507910728455,
				2.025228500366211
			],
			"min":[
				0.2860867977142334,
				0.06362783908843994,
				0.641175389289856
			],
			"type":"VEC3"
		},
		{
			"bufferView":148,
			"componentType":5126,
			"count":2512,
			"type":"VEC3"
		},
		{
			"bufferView":149,
			"componentType":5126,
			"count":2512,
			"type":"VEC2"
		},
		{
			"bufferView":150,
			"componentType":5123,
			"count":14640,
			"type":"SCALAR"
		},
		{
			"bufferView":151,
			"componentType":5126,
			"count":2512,
			"max":[
				-0.2788441777229309,
				0.6621496677398682,
				-0.4876525402069092
			],
			"min":[
				-0.9043131470680237,
				0.06362760812044144,
				-1.9064074754714966
			],
			"type":"VEC3"
		},
		{
			"bufferView":152,
			"componentType":5126,
			"count":2512,
			"type":"VEC3"
		},
		{
			"bufferView":153,
			"componentType":5126,
			"count":2512,
			"type":"VEC2"
		},
		{
			"bufferView":154,
			"componentType":5123,
			"count":14640,
			"type":"SCALAR"
		},
		{
			"bufferView":155,
			"componentType":5126,
			"count":64,
			"max":[
				0.8919928073883057,
				2.107201099395752,
				5.02166748046875
			],
			"min":[
				-0.8693341612815857,
				0.9576603770256042,
				-4.889394283294678
			],
			"type":"VEC3"
		},
		{
			"bufferView":156,
			"componentType":5126,
			"count":64,
			"type":"VEC3"
		},
		{
			"bufferView":157,
			"componentType":5126,
			"count":64,
			"type":"VEC2"
		},
		{
			"bufferView":158,
			"componentType":5123,
			"count":192,
			"type":"SCALAR"
		},
		{
			"bufferView":159,
			"componentType":5126,
			"count":10818,
			"max":[
				0.7926048040390015,
				0.4538761079311371,
				4.93614387512207
			],
			"min":[
				-0.763711154460907,
				0.3739723563194275,
				-4.83164644241333
			],
			"type":"VEC3"
		},
		{
			"bufferView":160,
			"componentType":5126,
			"count":10818,
			"type":"VEC3"
		},
		{
			"bufferView":161,
			"componentType":5126,
			"count":10818,
			"type":"VEC2"
		},
		{
			"bufferView":162,
			"componentType":5123,
			"count":64440,
			"type":"SCALAR"
		},
		{
			"bufferView":163,
			"componentType":5126,
			"count":9740,
			"max":[
				0.791658878326416,
				0.805609405040741,
				4.838231563568115
			],
			"min":[
				-0.7691421508789062,
				0.6482844948768616,
				-4.733735084533691
			],
			"type":"VEC3"
		},
		{
			"bufferView":164,
			"componentType":5126,
			"count":9740,
			"type":"VEC3"
		},
		{
			"bufferView":165,
			"componentType":5126,
			"count":9740,
			"type":"VEC2"
		},
		{
			"bufferView":166,
			"componentType":5123,
			"count":53520,
			"type":"SCALAR"
		},
		{
			"bufferView":167,
			"componentType":5126,
			"count":1840,
			"max":[
				0.8610538244247437,
				0.7910750508308411,
				3.936969518661499
			],
			"min":[
				-0.8385311365127563,
				0.43023741245269775,
				-3.8324716091156006
			],
			"type":"VEC3"
		},
		{
			"bufferView":168,
			"componentType":5126,
			"count":1840,
			"type":"VEC3"
		},
		{
			"bufferView":169,
			"componentType":5126,
			"count":1840,
			"type":"VEC2"
		},
		{
			"bufferView":170,
			"componentType":5123,
			"count":10944,
			"type":"SCALAR"
		},
		{
			"bufferView":171,
			"componentType":5126,
			"count":4226,
			"max":[
				0.5376448631286621,
				0.6555809378623962,
				5.016495704650879
			],
			"min":[
				-0.51422119140625,
				0.0071785347536206245,
				-4.912947177886963
			],
			"type":"VEC3"
		},
		{
			"bufferView":172,
			"componentType":5126,
			"count":4226,
			"type":"VEC3"
		},
		{
			"bufferView":173,
			"componentType":5126,
			"count":4226,
			"type":"VEC2"
		},
		{
			"bufferView":174,
			"componentType":5123,
			"count":15984,
			"type":"SCALAR"
		},
		{
			"bufferView":175,
			"componentType":5126,
			"count":747,
			"max":[
				0.9161118268966675,
				2.3314473628997803,
				5.957903861999512
			],
			"min":[
				-0.8935871720314026,
				0.7472283244132996,
				-5.8256330490112305
			],
			"type":"VEC3"
		},
		{
			"bufferView":176,
			"componentType":5126,
			"count":747,
			"type":"VEC3"
		},
		{
			"bufferView":177,
			"componentType":5126,
			"count":747,
			"type":"VEC2"
		},
		{
			"bufferView":178,
			"componentType":5123,
			"count":2850,
			"type":"SCALAR"
		}
	],
	"bufferViews":[
		{
			"buffer":0,
			"byteLength":11328,
			"byteOffset":0,
			"target":34962
		},
		{
			"buffer":0,
			"byteLength":11328,
			"byteOffset":11328,
			"target":34962
		},
		{
			"buffer":0,
			"byteLength":7552,
			"byteOffset":22656,
			"target":34962
		},
		{
			"buffer":0,
			"byteLength":10896,
			"byteOffset":30208,
			"target":34963
		},
		{
			"buffer":0,
			"byteLength":234252,
			"byteOffset":41104,
			"target":34962
		},
		{
			"buffer":0,
			"byteLength":234252,
			"byteOffset":275356,
			"target":34962
		},
		{
			"buffer":0,
			"byteLength":156168,
			"byteOffset":509608,
			"target":34962
		},
		{
			"buffer":0,
			"byteLength":205824,
			"byteOffset":665776,
			"target":34963
		},
		{
			"buffer":0,
			"byteLength":10752,
			"byteOffset":871600,
			"target":34962
		},
		{
			"buffer":0,
			"byteLength":10752,
			"byteOffset":882352,
			"target":34962
		},
		{
			"buffer":0,
			"byteLength":7168,
			"byteOffset":893104,
			"target":34962
		},
		{
			"buffer":0,
			"byteLength":9120,
			"byteOffset":900272,
			"target":34963
		},
		{
			"buffer":0,
			"byteLength":3936,
			"byteOffset":909392,
			"target":34962
		},
		{
			"buffer":0,
			"byteLength":3936,
			"byteOffset":913328,
			"target":34962
		},
		{
			"buffer":0,
			"byteLength":2624,
			"byteOffset":917264,
			"target":34962
		},
		{
			"buffer":0,
			"byteLength":2496,
			"byteOffset":919888,
			"target":34963
		},
		{
			"buffer":0,
			"byteLength":58944,
			"byteOffset":922384,
			"target":34962
		},
		{
			"buffer":0,
			"byteLength":58944,
			"byteOffset":981328,
			"target":34962
		},
		{
			"buffer":0,
			"byteLength":39296,
			"byteOffset":1040272,
			"target":34962
		},
		{
			"buffer":0,
			"byteLength":50352,
			"byteOffset":1079568,
			"target":34963
		},
		{
			"buffer":0,
			"byteLength":3840,
			"byteOffset":1129920,
			"target":34962
		},
		{
			"buffer":0,
			"byteLength":3840,
			"byteOffset":1133760,
			"target":34962
		},
		{
			"buffer":0,
			"byteLength":2560,
			"byteOffset":1137600,
			"target":34962
		},
		{
			"buffer":0,
			"byteLength":3648,
			"byteOffset":1140160,
			"target":34963
		},
		{
			"buffer":0,
			"byteLength":42624,
			"byteOffset":1143808,
			"target":34962
		},
		{
			"buffer":0,
			"byteLength":42624,
			"byteOffset":1186432,
			"target":34962
		},
		{
			"buffer":0,
			"byteLength":28416,
			"byteOffset":1229056,
			"target":34962
		},
		{
			"buffer":0,
			"byteLength":41952,
			"byteOffset":1257472,
			"target":34963
		},
		{
			"buffer":0,
			"byteLength":39648,
			"byteOffset":1299424,
			"target":34962
		},
		{
			"buffer":0,
			"byteLength":39648,
			"byteOffset":1339072,
			"target":34962
		},
		{
			"buffer":0,
			"byteLength":26432,
			"byteOffset":1378720,
			"target":34962
		},
		{
			"buffer":0,
			"byteLength":38832,
			"byteOffset":1405152,
			"target":34963
		},
		{
			"buffer":0,
			"byteLength":1632,
			"byteOffset":1443984,
			"target":34962
		},
		{
			"buffer":0,
			"byteLength":1632,
			"byteOffset":1445616,
			"target":34962
		},
		{
			"buffer":0,
			"byteLength":1088,
			"byteOffset":1447248,
			"target":34962
		},
		{
			"buffer":0,
			"byteLength":1584,
			"byteOffset":1448336,
			"target":34963
		},
		{
			"buffer":0,
			"byteLength":576,
			"byteOffset":1449920,
			"target":34962
		},
		{
			"buffer":0,
			"byteLength":576,
			"byteOffset":1450496,
			"target":34962
		},
		{
			"buffer":0,
			"byteLength":384,
			"byteOffset":1451072,
			"target":34962
		},
		{
			"buffer":0,
			"byteLength":288,
			"byteOffset":1451456,
			"target":34963
		},
		{
			"buffer":0,
			"byteLength":2688,
			"byteOffset":1451744,
			"target":34962
		},
		{
			"buffer":0,
			"byteLength":2688,
			"byteOffset":1454432,
			"target":34962
		},
		{
			"buffer":0,
			"byteLength":1792,
			"byteOffset":1457120,
			"target":34962
		},
		{
			"buffer":0,
			"byteLength":2400,
			"byteOffset":1458912,
			"target":34963
		},
		{
			"buffer":0,
			"byteLength":1152,
			"byteOffset":1461312,
			"target":34962
		},
		{
			"buffer":0,
			"byteLength":1152,
			"byteOffset":1462464,
			"target":34962
		},
		{
			"buffer":0,
			"byteLength":768,
			"byteOffset":1463616,
			"target":34962
		},
		{
			"buffer":0,
			"byteLength":960,
			"byteOffset":1464384,
			"target":34963
		},
		{
			"buffer":0,
			"byteLength":55464,
			"byteOffset":1465344,
			"target":34962
		},
		{
			"buffer":0,
			"byteLength":55464,
			"byteOffset":1520808,
			"target":34962
		},
		{
			"buffer":0,
			"byteLength":36976,
			"byteOffset":1576272,
			"target":34962
		},
		{
			"buffer":0,
			"byteLength":52584,
			"byteOffset":1613248,
			"target":34963
		},
		{
			"buffer":0,
			"byteLength":1920,
			"byteOffset":1665832,
			"target":34962
		},
		{
			"buffer":0,
			"byteLength":1920,
			"byteOffset":1667752,
			"target":34962
		},
		{
			"buffer":0,
			"byteLength":1280,
			"byteOffset":1669672,
			"target":34962
		},
		{
			"buffer":0,
			"byteLength":1872,
			"byteOffset":1670952,
			"target":34963
		},
		{
			"buffer":0,
			"byteLength":2976,
			"byteOffset":1672824,
			"target":34962
		},
		{
			"buffer":0,
			"byteLength":2976,
			"byteOffset":1675800,
			"target":34962
		},
		{
			"buffer":0,
			"byteLength":1984,
			"byteOffset":1678776,
			"target":34962
		},
		{
			"buffer":0,
			"byteLength":2952,
			"byteOffset":1680760,
			"target":34963
		},
		{
			"buffer":0,
			"byteLength":2880,
			"byteOffset":1683712,
			"target":34962
		},
		{
			"buffer":0,
			"byteLength":2880,
			"byteOffset":1686592,
			"target":34962
		},
		{
			"buffer":0,
			"byteLength":1920,
			"byteOffset":1689472,
			"target":34962
		},
		{
			"buffer":0,
			"byteLength":2736,
			"byteOffset":1691392,
			"target":34963
		},
		{
			"buffer":0,
			"byteLength":1344,
			"byteOffset":1694128,
			"target":34962
		},
		{
			"buffer":0,
			"byteLength":1344,
			"byteOffset":1695472,
			"target":34962
		},
		{
			"buffer":0,
			"byteLength":896,
			"byteOffset":1696816,
			"target":34962
		},
		{
			"buffer":0,
			"byteLength":1248,
			"byteOffset":1697712,
			"target":34963
		},
		{
			"buffer":0,
			"byteLength":720,
			"byteOffset":1698960,
			"target":34962
		},
		{
			"buffer":0,
			"byteLength":720,
			"byteOffset":1699680,
			"target":34962
		},
		{
			"buffer":0,
			"byteLength":480,
			"byteOffset":1700400,
			"target":34962
		},
		{
			"buffer":0,
			"byteLength":696,
			"byteOffset":1700880,
			"target":34963
		},
		{
			"buffer":0,
			"byteLength":3648,
			"byteOffset":1701576,
			"target":34962
		},
		{
			"buffer":0,
			"byteLength":3648,
			"byteOffset":1705224,
			"target":34962
		},
		{
			"buffer":0,
			"byteLength":2432,
			"byteOffset":1708872,
			"target":34962
		},
		{
			"buffer":0,
			"byteLength":3792,
			"byteOffset":1711304,
			"target":34963
		},
		{
			"buffer":0,
			"byteLength":960,
			"byteOffset":1715096,
			"target":34962
		},
		{
			"buffer":0,
			"byteLength":960,
			"byteOffset":1716056,
			"target":34962
		},
		{
			"buffer":0,
			"byteLength":640,
			"byteOffset":1717016,
			"target":34962
		},
		{
			"buffer":0,
			"byteLength":912,
			"byteOffset":1717656,
			"target":34963
		},
		{
			"buffer":0,
			"byteLength":3456,
			"byteOffset":1718568,
			"target":34962
		},
		{
			"buffer":0,
			"byteLength":3456,
			"byteOffset":1722024,
			"target":34962
		},
		{
			"buffer":0,
			"byteLength":2304,
			"byteOffset":1725480,
			"target":34962
		},
		{
			"buffer":0,
			"byteLength":3456,
			"byteOffset":1727784,
			"target":34963
		},
		{
			"buffer":0,
			"byteLength":3936,
			"byteOffset":1731240,
			"target":34962
		},
		{
			"buffer":0,
			"byteLength":3936,
			"byteOffset":1735176,
			"target":34962
		},
		{
			"buffer":0,
			"byteLength":2624,
			"byteOffset":1739112,
			"target":34962
		},
		{
			"buffer":0,
			"byteLength":3888,
			"byteOffset":1741736,
			"target":34963
		},
		{
			"buffer":0,
			"byteLength":7872,
			"byteOffset":1745624,
			"target":34962
		},
		{
			"buffer":0,
			"byteLength":7872,
			"byteOffset":1753496,
			"target":34962
		},
		{
			"buffer":0,
			"byteLength":5248,
			"byteOffset":1761368,
			"target":34962
		},
		{
			"buffer":0,
			"byteLength":6576,
			"byteOffset":1766616,
			"target":34963
		},
		{
			"buffer":0,
			"byteLength":14940,
			"byteOffset":1773192,
			"target":34962
		},
		{
			"buffer":0,
			"byteLength":14940,
			"byteOffset":1788132,
			"target":34962
		},
		{
			"buffer":0,
			"byteLength":9960,
			"byteOffset":1803072,
			"target":34962
		},
		{
			"buffer":0,
			"byteLength":14148,
			"byteOffset":1813032,
			"target":34963
		},
		{
			"buffer":0,
			"byteLength":9216,
			"byteOffset":1827180,
			"target":34962
		},
		{
			"buffer":0,
			"byteLength":9216,
			"byteOffset":1836396,
			"target":34962
		},
		{
			"buffer":0,
			"byteLength":6144,
			"byteOffset":1845612,
			"target":34962
		},
		{
			"buffer":0,
			"byteLength":8400,
			"byteOffset":1851756,
			"target":34963
		},
		{
			"buffer":0,
			"byteLength":9600,
			"byteOffset":1860156,
			"target":34962
		},
		{
			"buffer":0,
			"byteLength":9600,
			"byteOffset":1869756,
			"target":34962
		},
		{
			"buffer":0,
			"byteLength":6400,
			"byteOffset":1879356,
			"target":34962
		},
		{
			"buffer":0,
			"byteLength":8400,
			"byteOffset":1885756,
			"target":34963
		},
		{
			"buffer":0,
			"byteLength":10368,
			"byteOffset":1894156,
			"target":34962
		},
		{
			"buffer":0,
			"byteLength":10368,
			"byteOffset":1904524,
			"target":34962
		},
		{
			"buffer":0,
			"byteLength":6912,
			"byteOffset":1914892,
			"target":34962
		},
		{
			"buffer":0,
			"byteLength":10272,
			"byteOffset":1921804,
			"target":34963
		},
		{
			"buffer":0,
			"byteLength":7680,
			"byteOffset":1932076,
			"target":34962
		},
		{
			"buffer":0,
			"byteLength":7680,
			"byteOffset":1939756,
			"target":34962
		},
		{
			"buffer":0,
			"byteLength":5120,
			"byteOffset":1947436,
			"target":34962
		},
		{
			"buffer":0,
			"byteLength":7584,
			"byteOffset":1952556,
			"target":34963
		},
		{
			"buffer":0,
			"byteLength":7680,
			"byteOffset":1960140,
			"target":34962
		},
		{
			"buffer":0,
			"byteLength":7680,
			"byteOffset":1967820,
			"target":34962
		},
		{
			"buffer":0,
			"byteLength":5120,
			"byteOffset":1975500,
			"target":34962
		},
		{
			"buffer":0,
			"byteLength":178176,
			"byteOffset":1980620,
			"target":34962
		},
		{
			"buffer":0,
			"byteLength":178176,
			"byteOffset":2158796,
			"target":34962
		},
		{
			"buffer":0,
			"byteLength":118784,
			"byteOffset":2336972,
			"target":34962
		},
		{
			"buffer":0,
			"byteLength":177648,
			"byteOffset":2455756,
			"target":34963
		},
		{
			"buffer":0,
			"byteLength":9456,
			"byteOffset":2633404,
			"target":34962
		},
		{
			"buffer":0,
			"byteLength":9456,
			"byteOffset":2642860,
			"target":34962
		},
		{
			"buffer":0,
			"byteLength":6304,
			"byteOffset":2652316,
			"target":34962
		},
		{
			"buffer":0,
			"byteLength":9408,
			"byteOffset":2658620,
			"target":34963
		},
		{
			"buffer":0,
			"byteLength":9456,
			"byteOffset":2668028,
			"target":34962
		},
		{
			"buffer":0,
			"byteLength":9456,
			"byteOffset":2677484,
			"target":34962
		},
		{
			"buffer":0,
			"byteLength":6304,
			"byteOffset":2686940,
			"target":34962
		},
		{
			"buffer":0,
			"byteLength":9408,
			"byteOffset":2693244,
			"target":34963
		},
		{
			"buffer":0,
			"byteLength":20976,
			"byteOffset":2702652,
			"target":34962
		},
		{
			"buffer":0,
			"byteLength":20976,
			"byteOffset":2723628,
			"target":34962
		},
		{
			"buffer":0,
			"byteLength":13984,
			"byteOffset":2744604,
			"target":34962
		},
		{
			"buffer":0,
			"byteLength":20928,
			"byteOffset":2758588,
			"target":34963
		},
		{
			"buffer":0,
			"byteLength":24048,
			"byteOffset":2779516,
			"target":34962
		},
		{
			"buffer":0,
			"byteLength":24048,
			"byteOffset":2803564,
			"target":34962
		},
		{
			"buffer":0,
			"byteLength":16032,
			"byteOffset":2827612,
			"target":34962
		},
		{
			"buffer":0,
			"byteLength":24000,
			"byteOffset":2843644,
			"target":34963
		},
		{
			"buffer":0,
			"byteLength":2688,
			"byteOffset":2867644,
			"target":34962
		},
		{
			"buffer":0,
			"byteLength":2688,
			"byteOffset":2870332,
			"target":34962
		},
		{
			"buffer":0,
			"byteLength":1792,
			"byteOffset":2873020,
			"target":34962
		},
		{
			"buffer":0,
			"byteLength":2592,
			"byteOffset":2874812,
			"target":34963
		},
		{
			"buffer":0,
			"byteLength":25344,
			"byteOffset":2877404,
			"target":34962
		},
		{
			"buffer":0,
			"byteLength":25344,
			"byteOffset":2902748,
			"target":34962
		},
		{
			"buffer":0,
			"byteLength":16896,
			"byteOffset":2928092,
			"target":34962
		},
		{
			"buffer":0,
			"byteLength":22752,
			"byteOffset":2944988,
			"target":34963
		},
		{
			"buffer":0,
			"byteLength":576,
			"byteOffset":2967740,
			"target":34962
		},
		{
			"buffer":0,
			"byteLength":576,
			"byteOffset":2968316,
			"target":34962
		},
		{
			"buffer":0,
			"byteLength":384,
			"byteOffset":2968892,
			"target":34962
		},
		{
			"buffer":0,
			"byteLength":144,
			"byteOffset":2969276,
			"target":34963
		},
		{
			"buffer":0,
			"byteLength":30144,
			"byteOffset":2969420,
			"target":34962
		},
		{
			"buffer":0,
			"byteLength":30144,
			"byteOffset":2999564,
			"target":34962
		},
		{
			"buffer":0,
			"byteLength":20096,
			"byteOffset":3029708,
			"target":34962
		},
		{
			"buffer":0,
			"byteLength":29280,
			"byteOffset":3049804,
			"target":34963
		},
		{
			"buffer":0,
			"byteLength":30144,
			"byteOffset":3079084,
			"target":34962
		},
		{
			"buffer":0,
			"byteLength":30144,
			"byteOffset":3109228,
			"target":34962
		},
		{
			"buffer":0,
			"byteLength":20096,
			"byteOffset":3139372,
			"target":34962
		},
		{
			"buffer":0,
			"byteLength":29280,
			"byteOffset":3159468,
			"target":34963
		},
		{
			"buffer":0,
			"byteLength":768,
			"byteOffset":3188748,
			"target":34962
		},
		{
			"buffer":0,
			"byteLength":768,
			"byteOffset":3189516,
			"target":34962
		},
		{
			"buffer":0,
			"byteLength":512,
			"byteOffset":3190284,
			"target":34962
		},
		{
			"buffer":0,
			"byteLength":384,
			"byteOffset":3190796,
			"target":34963
		},
		{
			"buffer":0,
			"byteLength":129816,
			"byteOffset":3191180,
			"target":34962
		},
		{
			"buffer":0,
			"byteLength":129816,
			"byteOffset":3320996,
			"target":34962
		},
		{
			"buffer":0,
			"byteLength":86544,
			"byteOffset":3450812,
			"target":34962
		},
		{
			"buffer":0,
			"byteLength":128880,
			"byteOffset":3537356,
			"target":34963
		},
		{
			"buffer":0,
			"byteLength":116880,
			"byteOffset":3666236,
			"target":34962
		},
		{
			"buffer":0,
			"byteLength":116880,
			"byteOffset":3783116,
			"target":34962
		},
		{
			"buffer":0,
			"byteLength":77920,
			"byteOffset":3899996,
			"target":34962
		},
		{
			"buffer":0,
			"byteLength":107040,
			"byteOffset":3977916,
			"target":34963
		},
		{
			"buffer":0,
			"byteLength":22080,
			"byteOffset":4084956,
			"target":34962
		},
		{
			"buffer":0,
			"byteLength":22080,
			"byteOffset":4107036,
			"target":34962
		},
		{
			"buffer":0,
			"byteLength":14720,
			"byteOffset":4129116,
			"target":34962
		},
		{
			"buffer":0,
			"byteLength":21888,
			"byteOffset":4143836,
			"target":34963
		},
		{
			"buffer":0,
			"byteLength":50712,
			"byteOffset":4165724,
			"target":34962
		},
		{
			"buffer":0,
			"byteLength":50712,
			"byteOffset":4216436,
			"target":34962
		},
		{
			"buffer":0,
			"byteLength":33808,
			"byteOffset":4267148,
			"target":34962
		},
		{
			"buffer":0,
			"byteLength":31968,
			"byteOffset":4300956,
			"target":34963
		},
		{
			"buffer":0,
			"byteLength":8964,
			"byteOffset":4332924,
			"target":34962
		},
		{
			"buffer":0,
			"byteLength":8964,
			"byteOffset":4341888,
			"target":34962
		},
		{
			"buffer":0,
			"byteLength":5976,
			"byteOffset":4350852,
			"target":34962
		},
		{
			"buffer":0,
			"byteLength":5700,
			"byteOffset":4356828,
			"target":34963
		}
	],
	"samplers":[
		{
			"magFilter":9729,
			"minFilter":9987
		}
	],
	"buffers":[
		{
			"byteLength":4362528,
			"uri":"train-engine.bin"
		}
	]
}
