{
	"asset":{
		"generator":"Khronos glTF Blender I/O v4.2.60",
		"version":"2.0"
	},
	"extensionsUsed":[
		"KHR_materials_specular"
	],
	"scene":0,
	"scenes":[
		{
			"name":"Scene",
			"nodes":[
				25
			]
		}
	],
	"nodes":[
		{
			"mesh":0,
			"name":"BushBig2_bush2_0"
		},
		{
			"children":[
				0
			],
			"name":"BushBig2",
			"rotation":[
				-0.16905662417411804,
				0.9832870364189148,
				-0.006091506220400333,
				0.06730037927627563
			],
			"scale":[
				3.5865859985351562,
				2.844895601272583,
				4.141076564788818
			],
			"translation":[
				6.627200126647949,
				1.4492729902267456,
				-17.377037048339844
			]
		},
		{
			"mesh":1,
			"name":"BushFlowerSmall_bushflower_0"
		},
		{
			"children":[
				2
			],
			"name":"BushFlowerSmall",
			"rotation":[
				-0.10145546495914459,
				0.6997905373573303,
				0.101455457508564,
				0.6997905969619751
			],
			"scale":[
				2.994863986968994,
				3.691757917404175,
				3.002606153488159
			],
			"translation":[
				12.482490539550781,
				0.8183259963989258,
				-0.558401346206665
			]
		},
		{
			"mesh":2,
			"name":"BushMed_bushType1_0"
		},
		{
			"children":[
				4
			],
			"name":"BushMed",
			"rotation":[
				0.011889115907251835,
				0.05772547796368599,
				-0.2013750523328781,
				0.9777395129203796
			],
			"scale":[
				3.5865859985351562,
				2.844895839691162,
				4.141077041625977
			],
			"translation":[
				-1.1231366395950317,
				1.3296140432357788,
				-7.541936874389648
			]
		},
		{
			"mesh":3,
			"name":"BushMed2_bush2_0"
		},
		{
			"children":[
				6
			],
			"name":"BushMed2",
			"rotation":[
				0.008394544012844563,
				0.9954550266265869,
				0.026308149099349976,
				0.09114141017198563
			],
			"scale":[
				3.58273983001709,
				3.86625337600708,
				3.50258469581604
			],
			"translation":[
				6.38912296295166,
				1.2644258737564087,
				-5.0797553062438965
			]
		},
		{
			"mesh":4,
			"name":"BushSmall_bushType1_0"
		},
		{
			"children":[
				8
			],
			"name":"BushSmall",
			"rotation":[
				0,
				0.7071066498756409,
				0,
				0.70710688829422
			],
			"scale":[
				2.2862796783447266,
				2.2862799167633057,
				2.2862796783447266
			],
			"translation":[
				0,
				0.8183259963989258,
				0
			]
		},
		{
			"mesh":5,
			"name":"BushSmall2_bush2_0"
		},
		{
			"children":[
				10
			],
			"name":"BushSmall2",
			"rotation":[
				0,
				0.7071066498756409,
				0,
				0.70710688829422
			],
			"scale":[
				2.994863510131836,
				2.2862799167633057,
				2.2862796783447266
			],
			"translation":[
				6.763645648956299,
				0.8183259963989258,
				0
			]
		},
		{
			"mesh":6,
			"name":"MushBig_bushType1_0"
		},
		{
			"children":[
				12
			],
			"name":"MushBig",
			"rotation":[
				0.011889115907251835,
				0.05772547796368599,
				-0.2013750523328781,
				0.9777395129203796
			],
			"scale":[
				3.5865859985351562,
				2.844895839691162,
				4.141077041625977
			],
			"translation":[
				-0.43884456157684326,
				1.3296140432357788,
				-15.53179931640625
			]
		},
		{
			"mesh":7,
			"name":"pine1_pine2_0"
		},
		{
			"children":[
				14
			],
			"name":"pine1",
			"scale":[
				43.478599548339844,
				43.478599548339844,
				43.478599548339844
			],
			"translation":[
				-15.713628768920898,
				17.380687713623047,
				-26.766429901123047
			]
		},
		{
			"mesh":8,
			"name":"Pine2_pine3_0"
		},
		{
			"mesh":9,
			"name":"Pine2_Trunk_0"
		},
		{
			"children":[
				16,
				17
			],
			"name":"Pine2",
			"scale":[
				43.478599548339844,
				43.478599548339844,
				43.478599548339844
			],
			"translation":[
				10.195343017578125,
				21.202762603759766,
				-45.551246643066406
			]
		},
		{
			"mesh":10,
			"name":"tree2_tree2_0"
		},
		{
			"children":[
				19
			],
			"name":"tree2",
			"scale":[
				19.33415985107422,
				19.33415985107422,
				19.33415985107422
			],
			"translation":[
				19.765853881835938,
				10.127874374389648,
				-20.16025161743164
			]
		},
		{
			"mesh":11,
			"name":"TreeSmall_tree3_0"
		},
		{
			"children":[
				21
			],
			"name":"TreeSmall",
			"scale":[
				12.165437698364258,
				12.165437698364258,
				12.165437698364258
			],
			"translation":[
				22.992435455322266,
				6.340771198272705,
				0.8020095825195312
			]
		},
		{
			"children":[
				1,
				3,
				5,
				7,
				9,
				11,
				13,
				15,
				18,
				20,
				22
			],
			"name":"RootNode"
		},
		{
			"children":[
				23
			],
			"name":"973d3d7502ee46a1931f590aa1bda05b.fbx",
			"rotation":[
				0.70710688829422,
				0,
				0,
				0.7071066498756409
			]
		},
		{
			"children":[
				24
			],
			"name":"Sketchfab_model",
			"rotation":[
				-0.70710688829422,
				0,
				0,
				0.7071066498756409
			]
		}
	],
	"materials":[
		{
			"alphaMode":"BLEND",
			"doubleSided":true,
			"extensions":{
				"KHR_materials_specular":{
					"specularFactor":0
				}
			},
			"name":"bush2",
			"pbrMetallicRoughness":{
				"baseColorTexture":{
					"index":0
				},
				"metallicFactor":0
			}
		},
		{
			"alphaMode":"BLEND",
			"doubleSided":true,
			"extensions":{
				"KHR_materials_specular":{
					"specularFactor":0
				}
			},
			"name":"bushflower",
			"pbrMetallicRoughness":{
				"baseColorTexture":{
					"index":1
				},
				"metallicFactor":0
			}
		},
		{
			"alphaMode":"BLEND",
			"doubleSided":true,
			"extensions":{
				"KHR_materials_specular":{
					"specularFactor":0
				}
			},
			"name":"bushType1",
			"pbrMetallicRoughness":{
				"baseColorTexture":{
					"index":2
				},
				"metallicFactor":0
			}
		},
		{
			"alphaMode":"BLEND",
			"doubleSided":true,
			"extensions":{
				"KHR_materials_specular":{
					"specularFactor":0
				}
			},
			"name":"pine2",
			"pbrMetallicRoughness":{
				"baseColorTexture":{
					"index":3
				},
				"metallicFactor":0
			}
		},
		{
			"alphaMode":"BLEND",
			"doubleSided":true,
			"extensions":{
				"KHR_materials_specular":{
					"specularFactor":0
				}
			},
			"name":"pine3",
			"pbrMetallicRoughness":{
				"baseColorTexture":{
					"index":4
				},
				"metallicFactor":0
			}
		},
		{
			"alphaMode":"BLEND",
			"doubleSided":true,
			"name":"Trunk",
			"pbrMetallicRoughness":{
				"baseColorTexture":{
					"index":5
				},
				"metallicFactor":0,
				"roughnessFactor":0.8211145401000977
			}
		},
		{
			"alphaMode":"BLEND",
			"doubleSided":true,
			"extensions":{
				"KHR_materials_specular":{
					"specularFactor":0
				}
			},
			"name":"tree2",
			"pbrMetallicRoughness":{
				"baseColorTexture":{
					"index":6
				},
				"metallicFactor":0
			}
		},
		{
			"alphaMode":"BLEND",
			"doubleSided":true,
			"name":"tree3",
			"pbrMetallicRoughness":{
				"baseColorTexture":{
					"index":7
				},
				"metallicFactor":0
			}
		}
	],
	"meshes":[
		{
			"name":"BushBig2_bush2_0",
			"primitives":[
				{
					"attributes":{
						"POSITION":0,
						"NORMAL":1,
						"TEXCOORD_0":2
					},
					"indices":3,
					"material":0
				}
			]
		},
		{
			"name":"BushFlowerSmall_bushflower_0",
			"primitives":[
				{
					"attributes":{
						"POSITION":4,
						"NORMAL":5,
						"TEXCOORD_0":6
					},
					"indices":7,
					"material":1
				}
			]
		},
		{
			"name":"BushMed_bushType1_0",
			"primitives":[
				{
					"attributes":{
						"POSITION":8,
						"NORMAL":9,
						"TEXCOORD_0":10
					},
					"indices":11,
					"material":2
				}
			]
		},
		{
			"name":"BushMed2_bush2_0",
			"primitives":[
				{
					"attributes":{
						"POSITION":12,
						"NORMAL":13,
						"TEXCOORD_0":14
					},
					"indices":11,
					"material":0
				}
			]
		},
		{
			"name":"BushSmall_bushType1_0",
			"primitives":[
				{
					"attributes":{
						"POSITION":15,
						"NORMAL":16,
						"TEXCOORD_0":17
					},
					"indices":18,
					"material":2
				}
			]
		},
		{
			"name":"BushSmall2_bush2_0",
			"primitives":[
				{
					"attributes":{
						"POSITION":19,
						"NORMAL":20,
						"TEXCOORD_0":21
					},
					"indices":18,
					"material":0
				}
			]
		},
		{
			"name":"MushBig_bushType1_0",
			"primitives":[
				{
					"attributes":{
						"POSITION":22,
						"NORMAL":23,
						"TEXCOORD_0":24
					},
					"indices":25,
					"material":2
				}
			]
		},
		{
			"name":"pine1_pine2_0",
			"primitives":[
				{
					"attributes":{
						"POSITION":26,
						"NORMAL":27,
						"TEXCOORD_0":28
					},
					"indices":18,
					"material":3
				}
			]
		},
		{
			"name":"Pine2_pine3_0",
			"primitives":[
				{
					"attributes":{
						"POSITION":29,
						"NORMAL":30,
						"TEXCOORD_0":31
					},
					"indices":18,
					"material":4
				}
			]
		},
		{
			"name":"Pine2_Trunk_0",
			"primitives":[
				{
					"attributes":{
						"POSITION":32,
						"NORMAL":33,
						"TEXCOORD_0":34
					},
					"indices":18,
					"material":5
				}
			]
		},
		{
			"name":"tree2_tree2_0",
			"primitives":[
				{
					"attributes":{
						"POSITION":35,
						"NORMAL":36,
						"TEXCOORD_0":37
					},
					"indices":38,
					"material":6
				}
			]
		},
		{
			"name":"TreeSmall_tree3_0",
			"primitives":[
				{
					"attributes":{
						"POSITION":39,
						"NORMAL":40,
						"TEXCOORD_0":41
					},
					"indices":38,
					"material":7
				}
			]
		}
	],
	"textures":[
		{
			"sampler":0,
			"source":0
		},
		{
			"sampler":0,
			"source":1
		},
		{
			"sampler":0,
			"source":2
		},
		{
			"sampler":0,
			"source":3
		},
		{
			"sampler":0,
			"source":4
		},
		{
			"sampler":0,
			"source":4
		},
		{
			"sampler":0,
			"source":5
		},
		{
			"sampler":0,
			"source":6
		}
	],
	"images":[
		{
			"mimeType":"image/png",
			"name":"Image_0",
			"uri":"Image_0.png"
		},
		{
			"mimeType":"image/png",
			"name":"Image_1",
			"uri":"Image_1.png"
		},
		{
			"mimeType":"image/png",
			"name":"Image_2",
			"uri":"Image_2.png"
		},
		{
			"mimeType":"image/png",
			"name":"Image_3",
			"uri":"Image_3.png"
		},
		{
			"mimeType":"image/png",
			"name":"Image_4",
			"uri":"Image_4.png"
		},
		{
			"mimeType":"image/png",
			"name":"Image_5",
			"uri":"Image_5.png"
		},
		{
			"mimeType":"image/png",
			"name":"Image_6",
			"uri":"Image_6.png"
		}
	],
	"accessors":[
		{
			"bufferView":0,
			"componentType":5126,
			"count":104,
			"max":[
				1.0271224975585938,
				0.7948825359344482,
				0.7810609340667725
			],
			"min":[
				-1.1816960573196411,
				-1.4128750562667847,
				-1.6439132690429688
			],
			"type":"VEC3"
		},
		{
			"bufferView":1,
			"componentType":5126,
			"count":104,
			"type":"VEC3"
		},
		{
			"bufferView":2,
			"componentType":5126,
			"count":104,
			"type":"VEC2"
		},
		{
			"bufferView":3,
			"componentType":5123,
			"count":156,
			"type":"SCALAR"
		},
		{
			"bufferView":4,
			"componentType":5126,
			"count":20,
			"max":[
				0.7053608894348145,
				0.566465437412262,
				0.7037883400917053
			],
			"min":[
				-0.9516947865486145,
				-0.5848321318626404,
				-0.8181548118591309
			],
			"type":"VEC3"
		},
		{
			"bufferView":5,
			"componentType":5126,
			"count":20,
			"type":"VEC3"
		},
		{
			"bufferView":6,
			"componentType":5126,
			"count":20,
			"type":"VEC2"
		},
		{
			"bufferView":7,
			"componentType":5123,
			"count":30,
			"type":"SCALAR"
		},
		{
			"bufferView":8,
			"componentType":5126,
			"count":36,
			"max":[
				0.7284576296806335,
				0.7208207845687866,
				1.3367979526519775
			],
			"min":[
				-0.8701050281524658,
				-0.900118887424469,
				-0.7132944464683533
			],
			"type":"VEC3"
		},
		{
			"bufferView":9,
			"componentType":5126,
			"count":36,
			"type":"VEC3"
		},
		{
			"bufferView":10,
			"componentType":5126,
			"count":36,
			"type":"VEC2"
		},
		{
			"bufferView":11,
			"componentType":5123,
			"count":54,
			"type":"SCALAR"
		},
		{
			"bufferView":12,
			"componentType":5126,
			"count":36,
			"max":[
				0.7280356287956238,
				0.6471356153488159,
				1.3215932846069336
			],
			"min":[
				-0.9504179954528809,
				-0.7206300497055054,
				-0.7132976055145264
			],
			"type":"VEC3"
		},
		{
			"bufferView":13,
			"componentType":5126,
			"count":36,
			"type":"VEC3"
		},
		{
			"bufferView":14,
			"componentType":5126,
			"count":36,
			"type":"VEC2"
		},
		{
			"bufferView":15,
			"componentType":5126,
			"count":16,
			"max":[
				0.7053608894348145,
				0.5380264520645142,
				0.7037883400917053
			],
			"min":[
				-0.8701050281524658,
				-0.5380264520645142,
				-0.8181548118591309
			],
			"type":"VEC3"
		},
		{
			"bufferView":16,
			"componentType":5126,
			"count":16,
			"type":"VEC3"
		},
		{
			"bufferView":17,
			"componentType":5126,
			"count":16,
			"type":"VEC2"
		},
		{
			"bufferView":18,
			"componentType":5123,
			"count":24,
			"type":"SCALAR"
		},
		{
			"bufferView":19,
			"componentType":5126,
			"count":16,
			"max":[
				0.7053608894348145,
				0.5380264520645142,
				0.7037883400917053
			],
			"min":[
				-0.9516947865486145,
				-0.5380264520645142,
				-0.8181548118591309
			],
			"type":"VEC3"
		},
		{
			"bufferView":20,
			"componentType":5126,
			"count":16,
			"type":"VEC3"
		},
		{
			"bufferView":21,
			"componentType":5126,
			"count":16,
			"type":"VEC2"
		},
		{
			"bufferView":22,
			"componentType":5126,
			"count":100,
			"max":[
				1.0271224975585938,
				0.9192483425140381,
				1.3367979526519775
			],
			"min":[
				-1.183117151260376,
				-1.37581467628479,
				-1.5256056785583496
			],
			"type":"VEC3"
		},
		{
			"bufferView":23,
			"componentType":5126,
			"count":100,
			"type":"VEC3"
		},
		{
			"bufferView":24,
			"componentType":5126,
			"count":100,
			"type":"VEC2"
		},
		{
			"bufferView":25,
			"componentType":5123,
			"count":150,
			"type":"SCALAR"
		},
		{
			"bufferView":26,
			"componentType":5126,
			"count":16,
			"max":[
				0.40397003293037415,
				0.5211437344551086,
				0.3607420325279236
			],
			"min":[
				-0.3876713812351227,
				-0.5563896298408508,
				-0.3515925407409668
			],
			"type":"VEC3"
		},
		{
			"bufferView":27,
			"componentType":5126,
			"count":16,
			"type":"VEC3"
		},
		{
			"bufferView":28,
			"componentType":5126,
			"count":16,
			"type":"VEC2"
		},
		{
			"bufferView":29,
			"componentType":5126,
			"count":16,
			"max":[
				0.30247247219085693,
				0.4999999403953552,
				0.3607420325279236
			],
			"min":[
				-0.3216698169708252,
				-0.4054378271102905,
				-0.3515925407409668
			],
			"type":"VEC3"
		},
		{
			"bufferView":30,
			"componentType":5126,
			"count":16,
			"type":"VEC3"
		},
		{
			"bufferView":31,
			"componentType":5126,
			"count":16,
			"type":"VEC2"
		},
		{
			"bufferView":32,
			"componentType":5126,
			"count":16,
			"max":[
				0.31073009967803955,
				-0.3887910842895508,
				0.36074191331863403
			],
			"min":[
				-0.320965975522995,
				-0.5136656165122986,
				-0.3571788966655731
			],
			"type":"VEC3"
		},
		{
			"bufferView":33,
			"componentType":5126,
			"count":16,
			"type":"VEC3"
		},
		{
			"bufferView":34,
			"componentType":5126,
			"count":16,
			"type":"VEC2"
		},
		{
			"bufferView":35,
			"componentType":5126,
			"count":22,
			"max":[
				0.554015040397644,
				0.5000001192092896,
				0.5613909363746643
			],
			"min":[
				-0.554015040397644,
				-0.5000000596046448,
				-0.5062937140464783
			],
			"type":"VEC3"
		},
		{
			"bufferView":36,
			"componentType":5126,
			"count":22,
			"type":"VEC3"
		},
		{
			"bufferView":37,
			"componentType":5126,
			"count":22,
			"type":"VEC2"
		},
		{
			"bufferView":38,
			"componentType":5123,
			"count":36,
			"type":"SCALAR"
		},
		{
			"bufferView":39,
			"componentType":5126,
			"count":22,
			"max":[
				0.554015040397644,
				0.5000001192092896,
				0.5062931180000305
			],
			"min":[
				-0.554015040397644,
				-0.5000000596046448,
				-0.585137128829956
			],
			"type":"VEC3"
		},
		{
			"bufferView":40,
			"componentType":5126,
			"count":22,
			"type":"VEC3"
		},
		{
			"bufferView":41,
			"componentType":5126,
			"count":22,
			"type":"VEC2"
		}
	],
	"bufferViews":[
		{
			"buffer":0,
			"byteLength":1248,
			"byteOffset":0,
			"target":34962
		},
		{
			"buffer":0,
			"byteLength":1248,
			"byteOffset":1248,
			"target":34962
		},
		{
			"buffer":0,
			"byteLength":832,
			"byteOffset":2496,
			"target":34962
		},
		{
			"buffer":0,
			"byteLength":312,
			"byteOffset":3328,
			"target":34963
		},
		{
			"buffer":0,
			"byteLength":240,
			"byteOffset":3640,
			"target":34962
		},
		{
			"buffer":0,
			"byteLength":240,
			"byteOffset":3880,
			"target":34962
		},
		{
			"buffer":0,
			"byteLength":160,
			"byteOffset":4120,
			"target":34962
		},
		{
			"buffer":0,
			"byteLength":60,
			"byteOffset":4280,
			"target":34963
		},
		{
			"buffer":0,
			"byteLength":432,
			"byteOffset":4340,
			"target":34962
		},
		{
			"buffer":0,
			"byteLength":432,
			"byteOffset":4772,
			"target":34962
		},
		{
			"buffer":0,
			"byteLength":288,
			"byteOffset":5204,
			"target":34962
		},
		{
			"buffer":0,
			"byteLength":108,
			"byteOffset":5492,
			"target":34963
		},
		{
			"buffer":0,
			"byteLength":432,
			"byteOffset":5600,
			"target":34962
		},
		{
			"buffer":0,
			"byteLength":432,
			"byteOffset":6032,
			"target":34962
		},
		{
			"buffer":0,
			"byteLength":288,
			"byteOffset":6464,
			"target":34962
		},
		{
			"buffer":0,
			"byteLength":192,
			"byteOffset":6752,
			"target":34962
		},
		{
			"buffer":0,
			"byteLength":192,
			"byteOffset":6944,
			"target":34962
		},
		{
			"buffer":0,
			"byteLength":128,
			"byteOffset":7136,
			"target":34962
		},
		{
			"buffer":0,
			"byteLength":48,
			"byteOffset":7264,
			"target":34963
		},
		{
			"buffer":0,
			"byteLength":192,
			"byteOffset":7312,
			"target":34962
		},
		{
			"buffer":0,
			"byteLength":192,
			"byteOffset":7504,
			"target":34962
		},
		{
			"buffer":0,
			"byteLength":128,
			"byteOffset":7696,
			"target":34962
		},
		{
			"buffer":0,
			"byteLength":1200,
			"byteOffset":7824,
			"target":34962
		},
		{
			"buffer":0,
			"byteLength":1200,
			"byteOffset":9024,
			"target":34962
		},
		{
			"buffer":0,
			"byteLength":800,
			"byteOffset":10224,
			"target":34962
		},
		{
			"buffer":0,
			"byteLength":300,
			"byteOffset":11024,
			"target":34963
		},
		{
			"buffer":0,
			"byteLength":192,
			"byteOffset":11324,
			"target":34962
		},
		{
			"buffer":0,
			"byteLength":192,
			"byteOffset":11516,
			"target":34962
		},
		{
			"buffer":0,
			"byteLength":128,
			"byteOffset":11708,
			"target":34962
		},
		{
			"buffer":0,
			"byteLength":192,
			"byteOffset":11836,
			"target":34962
		},
		{
			"buffer":0,
			"byteLength":192,
			"byteOffset":12028,
			"target":34962
		},
		{
			"buffer":0,
			"byteLength":128,
			"byteOffset":12220,
			"target":34962
		},
		{
			"buffer":0,
			"byteLength":192,
			"byteOffset":12348,
			"target":34962
		},
		{
			"buffer":0,
			"byteLength":192,
			"byteOffset":12540,
			"target":34962
		},
		{
			"buffer":0,
			"byteLength":128,
			"byteOffset":12732,
			"target":34962
		},
		{
			"buffer":0,
			"byteLength":264,
			"byteOffset":12860,
			"target":34962
		},
		{
			"buffer":0,
			"byteLength":264,
			"byteOffset":13124,
			"target":34962
		},
		{
			"buffer":0,
			"byteLength":176,
			"byteOffset":13388,
			"target":34962
		},
		{
			"buffer":0,
			"byteLength":72,
			"byteOffset":13564,
			"target":34963
		},
		{
			"buffer":0,
			"byteLength":264,
			"byteOffset":13636,
			"target":34962
		},
		{
			"buffer":0,
			"byteLength":264,
			"byteOffset":13900,
			"target":34962
		},
		{
			"buffer":0,
			"byteLength":176,
			"byteOffset":14164,
			"target":34962
		}
	],
	"samplers":[
		{
			"magFilter":9729,
			"minFilter":9987,
			"wrapS":33071,
			"wrapT":33071
		}
	],
	"buffers":[
		{
			"byteLength":14340,
			"uri":"trees-bushes.bin"
		}
	]
}
