{
	"asset":{
		"generator":"Khronos glTF Blender I/O v4.2.60",
		"version":"2.0"
	},
	"scene":0,
	"scenes":[
		{
			"name":"Scene",
			"nodes":[
				0,
				1,
				2,
				3,
				4,
				5,
				6,
				7,
				8,
				9,
				10,
				11,
				12,
				13,
				14,
				15,
				16,
				17,
				18,
				19,
				20,
				21,
				22,
				23,
				24,
				25
			]
		}
	],
	"nodes":[
		{
			"mesh":0,
			"name":"YellowLight",
			"rotation":[
				0,
				0,
				-0.7071068286895752,
				0.7071068286895752
			],
			"scale":[
				0.07140409201383591,
				0.039984654635190964,
				0.07140409201383591
			],
			"translation":[
				0.14158117771148682,
				5.126258850097656,
				-0.007296720985323191
			]
		},
		{
			"mesh":1,
			"name":"RedLight",
			"rotation":[
				0,
				0,
				-0.7071068286895752,
				0.7071068286895752
			],
			"scale":[
				0.07140409201383591,
				0.039984654635190964,
				0.07140409201383591
			],
			"translation":[
				0.1445176750421524,
				4.77226448059082,
				0.004041754174977541
			]
		},
		{
			"mesh":2,
			"name":"GreenLight",
			"rotation":[
				0,
				0,
				-0.7071068286895752,
				0.7071068286895752
			],
			"scale":[
				0.07140409201383591,
				0.039984654635190964,
				0.07140409201383591
			],
			"translation":[
				0.14184243977069855,
				5.510336875915527,
				0.004041754174977541
			]
		},
		{
			"mesh":3,
			"name":"BEG_Light_2.002",
			"translation":[
				0.21548990905284882,
				5.144346714019775,
				-0.008180856704711914
			]
		},
		{
			"mesh":4,
			"name":"board.005",
			"translation":[
				0.35891926288604736,
				2.310722589492798,
				-0.011075496673583984
			]
		},
		{
			"mesh":5,
			"name":"cube.003",
			"translation":[
				0.44780224561691284,
				2.6507303714752197,
				-0.010320425033569336
			]
		},
		{
			"mesh":6,
			"name":"FS_2.005",
			"translation":[
				0,
				2.2247278690338135,
				-0.010322093963623047
			]
		},
		{
			"mesh":7,
			"name":"FS_3.003",
			"translation":[
				-0.009690769948065281,
				3.3930957317352295,
				0.00985574722290039
			]
		},
		{
			"mesh":8,
			"name":"hs_16.003",
			"translation":[
				0.5590028762817383,
				2.350433826446533,
				-0.010321378707885742
			]
		},
		{
			"mesh":9,
			"name":"hs_17.003",
			"translation":[
				0.6007055640220642,
				3.037599563598633,
				-0.010322093963623047
			]
		},
		{
			"mesh":10,
			"name":"hs_18.003",
			"translation":[
				0.20415842533111572,
				4.008301734924316,
				0.007538318634033203
			]
		},
		{
			"mesh":11,
			"name":"Lights_1.003",
			"translation":[
				0.06295138597488403,
				4.606224060058594,
				0.039896249771118164
			]
		},
		{
			"mesh":12,
			"name":"nut_1.003",
			"translation":[
				0.11950156092643738,
				0.6938737034797668,
				-0.11138296127319336
			]
		},
		{
			"mesh":13,
			"name":"nut_2.003",
			"translation":[
				0.11950154602527618,
				0.6938736438751221,
				0.11508440971374512
			]
		},
		{
			"mesh":14,
			"name":"nut_3.003",
			"translation":[
				-0.10696429014205933,
				0.6938736438751221,
				0.11508440971374512
			]
		},
		{
			"mesh":15,
			"name":"nut_4.003",
			"translation":[
				-0.10696429014205933,
				0.6938737034797668,
				-0.11138296127319336
			]
		},
		{
			"mesh":16,
			"name":"pipe_1.002",
			"translation":[
				0.6277461647987366,
				2.871159791946411,
				-0.011138200759887695
			]
		},
		{
			"mesh":17,
			"name":"pipe_2.002",
			"translation":[
				0.6277461647987366,
				2.73860502243042,
				-0.07607054710388184
			]
		},
		{
			"mesh":18,
			"name":"pipe_3.002",
			"translation":[
				0.6277461647987366,
				2.73860502243042,
				0.05382943153381348
			]
		},
		{
			"mesh":19,
			"name":"pole.003",
			"translation":[
				0.0072927651926875114,
				2.4103457927703857,
				0.0011932849884033203
			]
		},
		{
			"mesh":20,
			"name":"SS_1.005",
			"translation":[
				0.054059404879808426,
				4.222095012664795,
				-0.13279438018798828
			]
		},
		{
			"mesh":21,
			"name":"SS_2.005",
			"translation":[
				0.054059404879808426,
				4.222095012664795,
				0.14940714836120605
			]
		},
		{
			"mesh":22,
			"name":"SS_3.005",
			"translation":[
				-0.10900963842868805,
				4.222095012664795,
				0.0018532276153564453
			]
		},
		{
			"mesh":23,
			"name":"st_1.003",
			"translation":[
				0.05009293183684349,
				4.13440465927124,
				0.0018515586853027344
			]
		},
		{
			"mesh":24,
			"name":"Stairs.003",
			"translation":[
				-0.7868817448616028,
				3.1277854442596436,
				0.008633852005004883
			]
		},
		{
			"mesh":25,
			"name":"stand.003",
			"translation":[
				0,
				0.3259297311306,
				0.007775545120239258
			]
		}
	],
	"materials":[
		{
			"doubleSided":true,
			"name":"YellowLight",
			"pbrMetallicRoughness":{
				"baseColorFactor":[
					0.09084117412567139,
					0.09084182977676392,
					0,
					1
				],
				"metallicFactor":0,
				"roughnessFactor":0.5
			}
		},
		{
			"doubleSided":true,
			"name":"RedLight",
			"pbrMetallicRoughness":{
				"baseColorFactor":[
					0.09084124863147736,
					0,
					0,
					1
				],
				"metallicFactor":0,
				"roughnessFactor":0.5
			}
		},
		{
			"doubleSided":true,
			"name":"GreenLight",
			"pbrMetallicRoughness":{
				"baseColorFactor":[
					0,
					0.09084183722734451,
					0,
					1
				],
				"metallicFactor":0,
				"roughnessFactor":0.5
			}
		},
		{
			"doubleSided":true,
			"name":"Material.020",
			"pbrMetallicRoughness":{
				"baseColorFactor":[
					0,
					0,
					0,
					1
				],
				"metallicFactor":0.5039370059967041,
				"roughnessFactor":0.36000001430511475
			}
		},
		{
			"doubleSided":true,
			"name":"Material.016",
			"pbrMetallicRoughness":{
				"baseColorFactor":[
					0,
					0,
					0,
					1
				],
				"metallicFactor":0.5039370059967041,
				"roughnessFactor":0.36000001430511475
			}
		},
		{
			"doubleSided":true,
			"name":"Material.011",
			"pbrMetallicRoughness":{
				"baseColorFactor":[
					0,
					0,
					0,
					1
				],
				"metallicFactor":0.5039370059967041,
				"roughnessFactor":0.36000001430511475
			}
		},
		{
			"doubleSided":true,
			"name":"Material.014",
			"pbrMetallicRoughness":{
				"baseColorFactor":[
					0.003538780612871051,
					0.003538780612871051,
					0.003538780612871051,
					1
				],
				"metallicFactor":0,
				"roughnessFactor":0.5
			}
		},
		{
			"doubleSided":true,
			"name":"Material.013",
			"pbrMetallicRoughness":{
				"baseColorFactor":[
					0.3771159052848816,
					0.3771159052848816,
					0.3771159052848816,
					1
				],
				"metallicFactor":0,
				"roughnessFactor":0.5
			}
		},
		{
			"doubleSided":true,
			"name":"Material.015",
			"pbrMetallicRoughness":{
				"baseColorFactor":[
					0.17434632778167725,
					0.17434632778167725,
					0.17434632778167725,
					1
				],
				"metallicFactor":0
			}
		}
	],
	"meshes":[
		{
			"name":"YellowLight",
			"primitives":[
				{
					"attributes":{
						"POSITION":0,
						"NORMAL":1,
						"TEXCOORD_0":2
					},
					"indices":3,
					"material":0
				}
			]
		},
		{
			"name":"RedLight",
			"primitives":[
				{
					"attributes":{
						"POSITION":4,
						"NORMAL":5,
						"TEXCOORD_0":6
					},
					"indices":3,
					"material":1
				}
			]
		},
		{
			"name":"GreenLight",
			"primitives":[
				{
					"attributes":{
						"POSITION":7,
						"NORMAL":8,
						"TEXCOORD_0":9
					},
					"indices":3,
					"material":2
				}
			]
		},
		{
			"name":"Mesh.051",
			"primitives":[
				{
					"attributes":{
						"POSITION":10,
						"NORMAL":11,
						"TEXCOORD_0":12
					},
					"indices":13,
					"material":3
				}
			]
		},
		{
			"name":"Mesh.033",
			"primitives":[
				{
					"attributes":{
						"POSITION":14,
						"NORMAL":15,
						"TEXCOORD_0":16
					},
					"indices":17,
					"material":4
				}
			]
		},
		{
			"name":"Mesh.035",
			"primitives":[
				{
					"attributes":{
						"POSITION":18,
						"NORMAL":19,
						"TEXCOORD_0":20
					},
					"indices":21,
					"material":4
				}
			]
		},
		{
			"name":"Mesh.030",
			"primitives":[
				{
					"attributes":{
						"POSITION":22,
						"NORMAL":23,
						"TEXCOORD_0":24
					},
					"indices":25,
					"material":4
				}
			]
		},
		{
			"name":"Mesh.001",
			"primitives":[
				{
					"attributes":{
						"POSITION":26,
						"NORMAL":27,
						"TEXCOORD_0":28
					},
					"indices":29,
					"material":5
				}
			]
		},
		{
			"name":"Mesh.050",
			"primitives":[
				{
					"attributes":{
						"POSITION":30,
						"NORMAL":31,
						"TEXCOORD_0":32
					},
					"indices":33,
					"material":3
				}
			]
		},
		{
			"name":"Mesh.036",
			"primitives":[
				{
					"attributes":{
						"POSITION":34,
						"NORMAL":35,
						"TEXCOORD_0":36
					},
					"indices":37,
					"material":3
				}
			]
		},
		{
			"name":"Mesh.003",
			"primitives":[
				{
					"attributes":{
						"POSITION":38,
						"NORMAL":39,
						"TEXCOORD_0":40
					},
					"indices":41,
					"material":3
				}
			]
		},
		{
			"name":"Mesh.002",
			"primitives":[
				{
					"attributes":{
						"POSITION":42,
						"NORMAL":43,
						"TEXCOORD_0":44
					},
					"indices":45,
					"material":5
				}
			]
		},
		{
			"name":"Mesh.005",
			"primitives":[
				{
					"attributes":{
						"POSITION":46,
						"NORMAL":47,
						"TEXCOORD_0":48
					},
					"indices":49,
					"material":5
				}
			]
		},
		{
			"name":"Mesh.006",
			"primitives":[
				{
					"attributes":{
						"POSITION":50,
						"NORMAL":51,
						"TEXCOORD_0":52
					},
					"indices":53,
					"material":5
				}
			]
		},
		{
			"name":"Mesh.007",
			"primitives":[
				{
					"attributes":{
						"POSITION":54,
						"NORMAL":55,
						"TEXCOORD_0":56
					},
					"indices":53,
					"material":5
				}
			]
		},
		{
			"name":"Mesh.008",
			"primitives":[
				{
					"attributes":{
						"POSITION":57,
						"NORMAL":58,
						"TEXCOORD_0":59
					},
					"indices":60,
					"material":6
				}
			]
		},
		{
			"name":"Mesh.037",
			"primitives":[
				{
					"attributes":{
						"POSITION":61,
						"NORMAL":62,
						"TEXCOORD_0":63
					},
					"indices":64,
					"material":4
				}
			]
		},
		{
			"name":"Mesh.038",
			"primitives":[
				{
					"attributes":{
						"POSITION":65,
						"NORMAL":66,
						"TEXCOORD_0":67
					},
					"indices":64,
					"material":4
				}
			]
		},
		{
			"name":"Mesh.041",
			"primitives":[
				{
					"attributes":{
						"POSITION":68,
						"NORMAL":69,
						"TEXCOORD_0":70
					},
					"indices":64,
					"material":4
				}
			]
		},
		{
			"name":"Mesh.004",
			"primitives":[
				{
					"attributes":{
						"POSITION":71,
						"NORMAL":72,
						"TEXCOORD_0":73,
						"TEXCOORD_1":74
					},
					"indices":75,
					"material":7
				},
				{
					"attributes":{
						"POSITION":76,
						"NORMAL":77,
						"TEXCOORD_0":78,
						"TEXCOORD_1":79
					},
					"indices":80,
					"material":5
				}
			]
		},
		{
			"name":"Mesh.009",
			"primitives":[
				{
					"attributes":{
						"POSITION":81,
						"NORMAL":82,
						"TEXCOORD_0":83
					},
					"indices":84,
					"material":5
				}
			]
		},
		{
			"name":"Mesh.010",
			"primitives":[
				{
					"attributes":{
						"POSITION":85,
						"NORMAL":86,
						"TEXCOORD_0":87
					},
					"indices":84,
					"material":5
				}
			]
		},
		{
			"name":"Mesh.011",
			"primitives":[
				{
					"attributes":{
						"POSITION":88,
						"NORMAL":89,
						"TEXCOORD_0":90
					},
					"indices":84,
					"material":5
				}
			]
		},
		{
			"name":"Mesh.016",
			"primitives":[
				{
					"attributes":{
						"POSITION":91,
						"NORMAL":92,
						"TEXCOORD_0":93
					},
					"indices":94,
					"material":5
				}
			]
		},
		{
			"name":"Mesh.024",
			"primitives":[
				{
					"attributes":{
						"POSITION":95,
						"NORMAL":96,
						"TEXCOORD_0":97
					},
					"indices":98,
					"material":5
				}
			]
		},
		{
			"name":"Mesh.029",
			"primitives":[
				{
					"attributes":{
						"POSITION":99,
						"NORMAL":100,
						"TEXCOORD_0":101
					},
					"indices":102,
					"material":8
				}
			]
		}
	],
	"accessors":[
		{
			"bufferView":0,
			"componentType":5126,
			"count":160,
			"max":[
				1.1189169883728027,
				0.8897302746772766,
				0.8722985982894897
			],
			"min":[
				-0.8810830116271973,
				-0.010283954441547394,
				-1.1277012825012207
			],
			"type":"VEC3"
		},
		{
			"bufferView":1,
			"componentType":5126,
			"count":160,
			"type":"VEC3"
		},
		{
			"bufferView":2,
			"componentType":5126,
			"count":160,
			"type":"VEC2"
		},
		{
			"bufferView":3,
			"componentType":5123,
			"count":192,
			"type":"SCALAR"
		},
		{
			"bufferView":4,
			"componentType":5126,
			"count":160,
			"max":[
				1.1189169883728027,
				0.8897302746772766,
				0.8722985982894897
			],
			"min":[
				-0.8810830116271973,
				-0.010283954441547394,
				-1.1277012825012207
			],
			"type":"VEC3"
		},
		{
			"bufferView":5,
			"componentType":5126,
			"count":160,
			"type":"VEC3"
		},
		{
			"bufferView":6,
			"componentType":5126,
			"count":160,
			"type":"VEC2"
		},
		{
			"bufferView":7,
			"componentType":5126,
			"count":160,
			"max":[
				1.1189169883728027,
				0.8897302746772766,
				0.8722985982894897
			],
			"min":[
				-0.8810830116271973,
				-0.010283954441547394,
				-1.1277012825012207
			],
			"type":"VEC3"
		},
		{
			"bufferView":8,
			"componentType":5126,
			"count":160,
			"type":"VEC3"
		},
		{
			"bufferView":9,
			"componentType":5126,
			"count":160,
			"type":"VEC2"
		},
		{
			"bufferView":10,
			"componentType":5126,
			"count":751,
			"max":[
				0.21321164071559906,
				0.4514131546020508,
				0.10163259506225586
			],
			"min":[
				-0.07920582592487335,
				-0.4790973663330078,
				-0.10380053520202637
			],
			"type":"VEC3"
		},
		{
			"bufferView":11,
			"componentType":5126,
			"count":751,
			"type":"VEC3"
		},
		{
			"bufferView":12,
			"componentType":5126,
			"count":751,
			"type":"VEC2"
		},
		{
			"bufferView":13,
			"componentType":5123,
			"count":1404,
			"type":"SCALAR"
		},
		{
			"bufferView":14,
			"componentType":5126,
			"count":381,
			"max":[
				0.2000836730003357,
				0.2552056312561035,
				0.12113022804260254
			],
			"min":[
				-0.2504591941833496,
				-0.22829365730285645,
				-0.11962223052978516
			],
			"type":"VEC3"
		},
		{
			"bufferView":15,
			"componentType":5126,
			"count":381,
			"type":"VEC3"
		},
		{
			"bufferView":16,
			"componentType":5126,
			"count":381,
			"type":"VEC2"
		},
		{
			"bufferView":17,
			"componentType":5123,
			"count":600,
			"type":"SCALAR"
		},
		{
			"bufferView":18,
			"componentType":5126,
			"count":106,
			"max":[
				0.1539897322654724,
				0.3155689239501953,
				0.14951062202453613
			],
			"min":[
				-0.1068616509437561,
				-0.08480286598205566,
				-0.14951300621032715
			],
			"type":"VEC3"
		},
		{
			"bufferView":19,
			"componentType":5126,
			"count":106,
			"type":"VEC3"
		},
		{
			"bufferView":20,
			"componentType":5126,
			"count":106,
			"type":"VEC2"
		},
		{
			"bufferView":21,
			"componentType":5123,
			"count":180,
			"type":"SCALAR"
		},
		{
			"bufferView":22,
			"componentType":5126,
			"count":128,
			"max":[
				0.10846003890037537,
				0.1303701400756836,
				0.1084604263305664
			],
			"min":[
				-0.10846003890037537,
				-0.13037419319152832,
				-0.10846185684204102
			],
			"type":"VEC3"
		},
		{
			"bufferView":23,
			"componentType":5126,
			"count":128,
			"type":"VEC3"
		},
		{
			"bufferView":24,
			"componentType":5126,
			"count":128,
			"type":"VEC2"
		},
		{
			"bufferView":25,
			"componentType":5123,
			"count":192,
			"type":"SCALAR"
		},
		{
			"bufferView":26,
			"componentType":5126,
			"count":254,
			"max":[
				0.11815081536769867,
				0.13036727905273438,
				0.28891801834106445
			],
			"min":[
				-0.1222887858748436,
				-0.13037705421447754,
				-0.29308176040649414
			],
			"type":"VEC3"
		},
		{
			"bufferView":27,
			"componentType":5126,
			"count":254,
			"type":"VEC3"
		},
		{
			"bufferView":28,
			"componentType":5126,
			"count":254,
			"type":"VEC2"
		},
		{
			"bufferView":29,
			"componentType":5123,
			"count":372,
			"type":"SCALAR"
		},
		{
			"bufferView":30,
			"componentType":5126,
			"count":24,
			"max":[
				0.0010865330696105957,
				0.1086435317993164,
				0.2172861099243164
			],
			"min":[
				-0.0010865330696105957,
				-0.1086430549621582,
				-0.2172868251800537
			],
			"type":"VEC3"
		},
		{
			"bufferView":31,
			"componentType":5126,
			"count":24,
			"type":"VEC3"
		},
		{
			"bufferView":32,
			"componentType":5126,
			"count":24,
			"type":"VEC2"
		},
		{
			"bufferView":33,
			"componentType":5123,
			"count":36,
			"type":"SCALAR"
		},
		{
			"bufferView":34,
			"componentType":5126,
			"count":24,
			"max":[
				0.0010863542556762695,
				0.07130026817321777,
				0.14951229095458984
			],
			"min":[
				-0.0010864734649658203,
				-0.07130026817321777,
				-0.14951133728027344
			],
			"type":"VEC3"
		},
		{
			"bufferView":35,
			"componentType":5126,
			"count":24,
			"type":"VEC3"
		},
		{
			"bufferView":36,
			"componentType":5126,
			"count":24,
			"type":"VEC2"
		},
		{
			"bufferView":37,
			"componentType":5123,
			"count":36,
			"type":"SCALAR"
		},
		{
			"bufferView":38,
			"componentType":5126,
			"count":24,
			"max":[
				0.001873105764389038,
				0.12439107894897461,
				0.20447230339050293
			],
			"min":[
				-0.001873105764389038,
				-0.12439203262329102,
				-0.20447134971618652
			],
			"type":"VEC3"
		},
		{
			"bufferView":39,
			"componentType":5126,
			"count":24,
			"type":"VEC3"
		},
		{
			"bufferView":40,
			"componentType":5126,
			"count":24,
			"type":"VEC2"
		},
		{
			"bufferView":41,
			"componentType":5123,
			"count":36,
			"type":"SCALAR"
		},
		{
			"bufferView":42,
			"componentType":5126,
			"count":961,
			"max":[
				0.12506699562072754,
				1.1336169242858887,
				0.234849214553833
			],
			"min":[
				-0.26990169286727905,
				-0.4219169616699219,
				-0.32334327697753906
			],
			"type":"VEC3"
		},
		{
			"bufferView":43,
			"componentType":5126,
			"count":961,
			"type":"VEC3"
		},
		{
			"bufferView":44,
			"componentType":5126,
			"count":961,
			"type":"VEC2"
		},
		{
			"bufferView":45,
			"componentType":5123,
			"count":1560,
			"type":"SCALAR"
		},
		{
			"bufferView":46,
			"componentType":5126,
			"count":119,
			"max":[
				0.030574187636375427,
				0.011287987232208252,
				0.02647995948791504
			],
			"min":[
				-0.03057423233985901,
				-0.02707219123840332,
				-0.026476383209228516
			],
			"type":"VEC3"
		},
		{
			"bufferView":47,
			"componentType":5126,
			"count":119,
			"type":"VEC3"
		},
		{
			"bufferView":48,
			"componentType":5126,
			"count":119,
			"type":"VEC2"
		},
		{
			"bufferView":49,
			"componentType":5123,
			"count":198,
			"type":"SCALAR"
		},
		{
			"bufferView":50,
			"componentType":5126,
			"count":117,
			"max":[
				0.03057420253753662,
				0.011287927627563477,
				0.026478290557861328
			],
			"min":[
				-0.030574247241020203,
				-0.02707219123840332,
				-0.026477813720703125
			],
			"type":"VEC3"
		},
		{
			"bufferView":51,
			"componentType":5126,
			"count":117,
			"type":"VEC3"
		},
		{
			"bufferView":52,
			"componentType":5126,
			"count":117,
			"type":"VEC2"
		},
		{
			"bufferView":53,
			"componentType":5123,
			"count":198,
			"type":"SCALAR"
		},
		{
			"bufferView":54,
			"componentType":5126,
			"count":117,
			"max":[
				0.030574209988117218,
				0.011287927627563477,
				0.026478290557861328
			],
			"min":[
				-0.030574217438697815,
				-0.02707219123840332,
				-0.026477813720703125
			],
			"type":"VEC3"
		},
		{
			"bufferView":55,
			"componentType":5126,
			"count":117,
			"type":"VEC3"
		},
		{
			"bufferView":56,
			"componentType":5126,
			"count":117,
			"type":"VEC2"
		},
		{
			"bufferView":57,
			"componentType":5126,
			"count":121,
			"max":[
				0.030574209988117218,
				0.011287987232208252,
				0.02647995948791504
			],
			"min":[
				-0.030574217438697815,
				-0.02707219123840332,
				-0.026476383209228516
			],
			"type":"VEC3"
		},
		{
			"bufferView":58,
			"componentType":5126,
			"count":121,
			"type":"VEC3"
		},
		{
			"bufferView":59,
			"componentType":5126,
			"count":121,
			"type":"VEC2"
		},
		{
			"bufferView":60,
			"componentType":5123,
			"count":198,
			"type":"SCALAR"
		},
		{
			"bufferView":61,
			"componentType":5126,
			"count":150,
			"max":[
				0.0240858793258667,
				0.04297757148742676,
				0.04409599304199219
			],
			"min":[
				-0.025954246520996094,
				-0.045212745666503906,
				-0.04409456253051758
			],
			"type":"VEC3"
		},
		{
			"bufferView":62,
			"componentType":5126,
			"count":150,
			"type":"VEC3"
		},
		{
			"bufferView":63,
			"componentType":5126,
			"count":150,
			"type":"VEC2"
		},
		{
			"bufferView":64,
			"componentType":5123,
			"count":288,
			"type":"SCALAR"
		},
		{
			"bufferView":65,
			"componentType":5126,
			"count":150,
			"max":[
				0.0240858793258667,
				0.04297924041748047,
				0.04409480094909668
			],
			"min":[
				-0.025954246520996094,
				-0.045211076736450195,
				-0.044095754623413086
			],
			"type":"VEC3"
		},
		{
			"bufferView":66,
			"componentType":5126,
			"count":150,
			"type":"VEC3"
		},
		{
			"bufferView":67,
			"componentType":5126,
			"count":150,
			"type":"VEC2"
		},
		{
			"bufferView":68,
			"componentType":5126,
			"count":150,
			"max":[
				0.0240858793258667,
				0.04297924041748047,
				0.04409646987915039
			],
			"min":[
				-0.025954246520996094,
				-0.045211076736450195,
				-0.044094085693359375
			],
			"type":"VEC3"
		},
		{
			"bufferView":69,
			"componentType":5126,
			"count":150,
			"type":"VEC3"
		},
		{
			"bufferView":70,
			"componentType":5126,
			"count":150,
			"type":"VEC2"
		},
		{
			"bufferView":71,
			"componentType":5126,
			"count":510,
			"max":[
				0.210603728890419,
				1.8874289989471436,
				0.21228623390197754
			],
			"min":[
				-0.21265198290348053,
				-1.7647266387939453,
				-0.2109694480895996
			],
			"type":"VEC3"
		},
		{
			"bufferView":72,
			"componentType":5126,
			"count":510,
			"type":"VEC3"
		},
		{
			"bufferView":73,
			"componentType":5126,
			"count":510,
			"type":"VEC2"
		},
		{
			"bufferView":74,
			"componentType":5126,
			"count":510,
			"type":"VEC2"
		},
		{
			"bufferView":75,
			"componentType":5123,
			"count":936,
			"type":"SCALAR"
		},
		{
			"bufferView":76,
			"componentType":5126,
			"count":84,
			"max":[
				0.21641142666339874,
				-1.2525049448013306,
				0.22595000267028809
			],
			"min":[
				-0.23388077318668365,
				-1.7600653171539307,
				-0.23066258430480957
			],
			"type":"VEC3"
		},
		{
			"bufferView":77,
			"componentType":5126,
			"count":84,
			"type":"VEC3"
		},
		{
			"bufferView":78,
			"componentType":5126,
			"count":84,
			"type":"VEC2"
		},
		{
			"bufferView":79,
			"componentType":5126,
			"count":84,
			"type":"VEC2"
		},
		{
			"bufferView":80,
			"componentType":5123,
			"count":144,
			"type":"SCALAR"
		},
		{
			"bufferView":81,
			"componentType":5126,
			"count":50,
			"max":[
				0.014758851379156113,
				0.13171625137329102,
				0.014758586883544922
			],
			"min":[
				-0.0147588811814785,
				-0.1317119598388672,
				-0.014759302139282227
			],
			"type":"VEC3"
		},
		{
			"bufferView":82,
			"componentType":5126,
			"count":50,
			"type":"VEC3"
		},
		{
			"bufferView":83,
			"componentType":5126,
			"count":50,
			"type":"VEC2"
		},
		{
			"bufferView":84,
			"componentType":5123,
			"count":96,
			"type":"SCALAR"
		},
		{
			"bufferView":85,
			"componentType":5126,
			"count":50,
			"max":[
				0.014758851379156113,
				0.13171625137329102,
				0.014759540557861328
			],
			"min":[
				-0.0147588811814785,
				-0.1317119598388672,
				-0.01475834846496582
			],
			"type":"VEC3"
		},
		{
			"bufferView":86,
			"componentType":5126,
			"count":50,
			"type":"VEC3"
		},
		{
			"bufferView":87,
			"componentType":5126,
			"count":50,
			"type":"VEC2"
		},
		{
			"bufferView":88,
			"componentType":5126,
			"count":50,
			"max":[
				0.014758884906768799,
				0.13171625137329102,
				0.01475834846496582
			],
			"min":[
				-0.014758825302124023,
				-0.1317119598388672,
				-0.014759302139282227
			],
			"type":"VEC3"
		},
		{
			"bufferView":89,
			"componentType":5126,
			"count":50,
			"type":"VEC3"
		},
		{
			"bufferView":90,
			"componentType":5126,
			"count":50,
			"type":"VEC2"
		},
		{
			"bufferView":91,
			"componentType":5126,
			"count":62,
			"max":[
				0.14435142278671265,
				0.012015342712402344,
				0.20340585708618164
			],
			"min":[
				-0.23200002312660217,
				-0.011092662811279297,
				-0.20340347290039062
			],
			"type":"VEC3"
		},
		{
			"bufferView":92,
			"componentType":5126,
			"count":62,
			"type":"VEC3"
		},
		{
			"bufferView":93,
			"componentType":5126,
			"count":62,
			"type":"VEC2"
		},
		{
			"bufferView":94,
			"componentType":5123,
			"count":108,
			"type":"SCALAR"
		},
		{
			"bufferView":95,
			"componentType":5126,
			"count":999,
			"max":[
				0.8862401843070984,
				2.1686136722564697,
				0.41117072105407715
			],
			"min":[
				-0.5494207739830017,
				-3.9968068599700928,
				-0.4128885269165039
			],
			"type":"VEC3"
		},
		{
			"bufferView":96,
			"componentType":5126,
			"count":999,
			"type":"VEC3"
		},
		{
			"bufferView":97,
			"componentType":5126,
			"count":999,
			"type":"VEC2"
		},
		{
			"bufferView":98,
			"componentType":5123,
			"count":2400,
			"type":"SCALAR"
		},
		{
			"bufferView":99,
			"componentType":5126,
			"count":24,
			"max":[
				0.41274526715278625,
				0.32592979073524475,
				0.41274476051330566
			],
			"min":[
				-0.41274526715278625,
				-0.3259297311306,
				-0.41274571418762207
			],
			"type":"VEC3"
		},
		{
			"bufferView":100,
			"componentType":5126,
			"count":24,
			"type":"VEC3"
		},
		{
			"bufferView":101,
			"componentType":5126,
			"count":24,
			"type":"VEC2"
		},
		{
			"bufferView":102,
			"componentType":5123,
			"count":36,
			"type":"SCALAR"
		}
	],
	"bufferViews":[
		{
			"buffer":0,
			"byteLength":1920,
			"byteOffset":0,
			"target":34962
		},
		{
			"buffer":0,
			"byteLength":1920,
			"byteOffset":1920,
			"target":34962
		},
		{
			"buffer":0,
			"byteLength":1280,
			"byteOffset":3840,
			"target":34962
		},
		{
			"buffer":0,
			"byteLength":384,
			"byteOffset":5120,
			"target":34963
		},
		{
			"buffer":0,
			"byteLength":1920,
			"byteOffset":5504,
			"target":34962
		},
		{
			"buffer":0,
			"byteLength":1920,
			"byteOffset":7424,
			"target":34962
		},
		{
			"buffer":0,
			"byteLength":1280,
			"byteOffset":9344,
			"target":34962
		},
		{
			"buffer":0,
			"byteLength":1920,
			"byteOffset":10624,
			"target":34962
		},
		{
			"buffer":0,
			"byteLength":1920,
			"byteOffset":12544,
			"target":34962
		},
		{
			"buffer":0,
			"byteLength":1280,
			"byteOffset":14464,
			"target":34962
		},
		{
			"buffer":0,
			"byteLength":9012,
			"byteOffset":15744,
			"target":34962
		},
		{
			"buffer":0,
			"byteLength":9012,
			"byteOffset":24756,
			"target":34962
		},
		{
			"buffer":0,
			"byteLength":6008,
			"byteOffset":33768,
			"target":34962
		},
		{
			"buffer":0,
			"byteLength":2808,
			"byteOffset":39776,
			"target":34963
		},
		{
			"buffer":0,
			"byteLength":4572,
			"byteOffset":42584,
			"target":34962
		},
		{
			"buffer":0,
			"byteLength":4572,
			"byteOffset":47156,
			"target":34962
		},
		{
			"buffer":0,
			"byteLength":3048,
			"byteOffset":51728,
			"target":34962
		},
		{
			"buffer":0,
			"byteLength":1200,
			"byteOffset":54776,
			"target":34963
		},
		{
			"buffer":0,
			"byteLength":1272,
			"byteOffset":55976,
			"target":34962
		},
		{
			"buffer":0,
			"byteLength":1272,
			"byteOffset":57248,
			"target":34962
		},
		{
			"buffer":0,
			"byteLength":848,
			"byteOffset":58520,
			"target":34962
		},
		{
			"buffer":0,
			"byteLength":360,
			"byteOffset":59368,
			"target":34963
		},
		{
			"buffer":0,
			"byteLength":1536,
			"byteOffset":59728,
			"target":34962
		},
		{
			"buffer":0,
			"byteLength":1536,
			"byteOffset":61264,
			"target":34962
		},
		{
			"buffer":0,
			"byteLength":1024,
			"byteOffset":62800,
			"target":34962
		},
		{
			"buffer":0,
			"byteLength":384,
			"byteOffset":63824,
			"target":34963
		},
		{
			"buffer":0,
			"byteLength":3048,
			"byteOffset":64208,
			"target":34962
		},
		{
			"buffer":0,
			"byteLength":3048,
			"byteOffset":67256,
			"target":34962
		},
		{
			"buffer":0,
			"byteLength":2032,
			"byteOffset":70304,
			"target":34962
		},
		{
			"buffer":0,
			"byteLength":744,
			"byteOffset":72336,
			"target":34963
		},
		{
			"buffer":0,
			"byteLength":288,
			"byteOffset":73080,
			"target":34962
		},
		{
			"buffer":0,
			"byteLength":288,
			"byteOffset":73368,
			"target":34962
		},
		{
			"buffer":0,
			"byteLength":192,
			"byteOffset":73656,
			"target":34962
		},
		{
			"buffer":0,
			"byteLength":72,
			"byteOffset":73848,
			"target":34963
		},
		{
			"buffer":0,
			"byteLength":288,
			"byteOffset":73920,
			"target":34962
		},
		{
			"buffer":0,
			"byteLength":288,
			"byteOffset":74208,
			"target":34962
		},
		{
			"buffer":0,
			"byteLength":192,
			"byteOffset":74496,
			"target":34962
		},
		{
			"buffer":0,
			"byteLength":72,
			"byteOffset":74688,
			"target":34963
		},
		{
			"buffer":0,
			"byteLength":288,
			"byteOffset":74760,
			"target":34962
		},
		{
			"buffer":0,
			"byteLength":288,
			"byteOffset":75048,
			"target":34962
		},
		{
			"buffer":0,
			"byteLength":192,
			"byteOffset":75336,
			"target":34962
		},
		{
			"buffer":0,
			"byteLength":72,
			"byteOffset":75528,
			"target":34963
		},
		{
			"buffer":0,
			"byteLength":11532,
			"byteOffset":75600,
			"target":34962
		},
		{
			"buffer":0,
			"byteLength":11532,
			"byteOffset":87132,
			"target":34962
		},
		{
			"buffer":0,
			"byteLength":7688,
			"byteOffset":98664,
			"target":34962
		},
		{
			"buffer":0,
			"byteLength":3120,
			"byteOffset":106352,
			"target":34963
		},
		{
			"buffer":0,
			"byteLength":1428,
			"byteOffset":109472,
			"target":34962
		},
		{
			"buffer":0,
			"byteLength":1428,
			"byteOffset":110900,
			"target":34962
		},
		{
			"buffer":0,
			"byteLength":952,
			"byteOffset":112328,
			"target":34962
		},
		{
			"buffer":0,
			"byteLength":396,
			"byteOffset":113280,
			"target":34963
		},
		{
			"buffer":0,
			"byteLength":1404,
			"byteOffset":113676,
			"target":34962
		},
		{
			"buffer":0,
			"byteLength":1404,
			"byteOffset":115080,
			"target":34962
		},
		{
			"buffer":0,
			"byteLength":936,
			"byteOffset":116484,
			"target":34962
		},
		{
			"buffer":0,
			"byteLength":396,
			"byteOffset":117420,
			"target":34963
		},
		{
			"buffer":0,
			"byteLength":1404,
			"byteOffset":117816,
			"target":34962
		},
		{
			"buffer":0,
			"byteLength":1404,
			"byteOffset":119220,
			"target":34962
		},
		{
			"buffer":0,
			"byteLength":936,
			"byteOffset":120624,
			"target":34962
		},
		{
			"buffer":0,
			"byteLength":1452,
			"byteOffset":121560,
			"target":34962
		},
		{
			"buffer":0,
			"byteLength":1452,
			"byteOffset":123012,
			"target":34962
		},
		{
			"buffer":0,
			"byteLength":968,
			"byteOffset":124464,
			"target":34962
		},
		{
			"buffer":0,
			"byteLength":396,
			"byteOffset":125432,
			"target":34963
		},
		{
			"buffer":0,
			"byteLength":1800,
			"byteOffset":125828,
			"target":34962
		},
		{
			"buffer":0,
			"byteLength":1800,
			"byteOffset":127628,
			"target":34962
		},
		{
			"buffer":0,
			"byteLength":1200,
			"byteOffset":129428,
			"target":34962
		},
		{
			"buffer":0,
			"byteLength":576,
			"byteOffset":130628,
			"target":34963
		},
		{
			"buffer":0,
			"byteLength":1800,
			"byteOffset":131204,
			"target":34962
		},
		{
			"buffer":0,
			"byteLength":1800,
			"byteOffset":133004,
			"target":34962
		},
		{
			"buffer":0,
			"byteLength":1200,
			"byteOffset":134804,
			"target":34962
		},
		{
			"buffer":0,
			"byteLength":1800,
			"byteOffset":136004,
			"target":34962
		},
		{
			"buffer":0,
			"byteLength":1800,
			"byteOffset":137804,
			"target":34962
		},
		{
			"buffer":0,
			"byteLength":1200,
			"byteOffset":139604,
			"target":34962
		},
		{
			"buffer":0,
			"byteLength":6120,
			"byteOffset":140804,
			"target":34962
		},
		{
			"buffer":0,
			"byteLength":6120,
			"byteOffset":146924,
			"target":34962
		},
		{
			"buffer":0,
			"byteLength":4080,
			"byteOffset":153044,
			"target":34962
		},
		{
			"buffer":0,
			"byteLength":4080,
			"byteOffset":157124,
			"target":34962
		},
		{
			"buffer":0,
			"byteLength":1872,
			"byteOffset":161204,
			"target":34963
		},
		{
			"buffer":0,
			"byteLength":1008,
			"byteOffset":163076,
			"target":34962
		},
		{
			"buffer":0,
			"byteLength":1008,
			"byteOffset":164084,
			"target":34962
		},
		{
			"buffer":0,
			"byteLength":672,
			"byteOffset":165092,
			"target":34962
		},
		{
			"buffer":0,
			"byteLength":672,
			"byteOffset":165764,
			"target":34962
		},
		{
			"buffer":0,
			"byteLength":288,
			"byteOffset":166436,
			"target":34963
		},
		{
			"buffer":0,
			"byteLength":600,
			"byteOffset":166724,
			"target":34962
		},
		{
			"buffer":0,
			"byteLength":600,
			"byteOffset":167324,
			"target":34962
		},
		{
			"buffer":0,
			"byteLength":400,
			"byteOffset":167924,
			"target":34962
		},
		{
			"buffer":0,
			"byteLength":192,
			"byteOffset":168324,
			"target":34963
		},
		{
			"buffer":0,
			"byteLength":600,
			"byteOffset":168516,
			"target":34962
		},
		{
			"buffer":0,
			"byteLength":600,
			"byteOffset":169116,
			"target":34962
		},
		{
			"buffer":0,
			"byteLength":400,
			"byteOffset":169716,
			"target":34962
		},
		{
			"buffer":0,
			"byteLength":600,
			"byteOffset":170116,
			"target":34962
		},
		{
			"buffer":0,
			"byteLength":600,
			"byteOffset":170716,
			"target":34962
		},
		{
			"buffer":0,
			"byteLength":400,
			"byteOffset":171316,
			"target":34962
		},
		{
			"buffer":0,
			"byteLength":744,
			"byteOffset":171716,
			"target":34962
		},
		{
			"buffer":0,
			"byteLength":744,
			"byteOffset":172460,
			"target":34962
		},
		{
			"buffer":0,
			"byteLength":496,
			"byteOffset":173204,
			"target":34962
		},
		{
			"buffer":0,
			"byteLength":216,
			"byteOffset":173700,
			"target":34963
		},
		{
			"buffer":0,
			"byteLength":11988,
			"byteOffset":173916,
			"target":34962
		},
		{
			"buffer":0,
			"byteLength":11988,
			"byteOffset":185904,
			"target":34962
		},
		{
			"buffer":0,
			"byteLength":7992,
			"byteOffset":197892,
			"target":34962
		},
		{
			"buffer":0,
			"byteLength":4800,
			"byteOffset":205884,
			"target":34963
		},
		{
			"buffer":0,
			"byteLength":288,
			"byteOffset":210684,
			"target":34962
		},
		{
			"buffer":0,
			"byteLength":288,
			"byteOffset":210972,
			"target":34962
		},
		{
			"buffer":0,
			"byteLength":192,
			"byteOffset":211260,
			"target":34962
		},
		{
			"buffer":0,
			"byteLength":72,
			"byteOffset":211452,
			"target":34963
		}
	],
	"buffers":[
		{
			"byteLength":211524,
			"uri":"main-starter-signal.bin"
		}
	]
}
