{
	"asset":{
		"generator":"Khronos glTF Blender I/O v4.2.60",
		"version":"2.0"
	},
	"extensionsUsed":[
		"KHR_materials_clearcoat"
	],
	"scene":0,
	"scenes":[
		{
			"name":"Scene",
			"nodes":[
				0,
				1,
				9,
				10,
				11,
				12,
				14,
				15,
				17,
				26,
				35,
				36,
				37,
				38,
				39
			]
		}
	],
	"nodes":[
		{
			"mesh":0,
			"name":"RedLight",
			"translation":[
				-0.45046788454055786,
				4.7703633308410645,
				0.005434393882751465
			]
		},
		{
			"mesh":1,
			"name":"YellowLight",
			"translation":[
				-0.4486803412437439,
				5.053119659423828,
				-0.004910343326628208
			]
		},
		{
			"mesh":2,
			"name":"hs_17"
		},
		{
			"mesh":3,
			"name":"pipe_1"
		},
		{
			"mesh":4,
			"name":"pipe_2"
		},
		{
			"mesh":5,
			"name":"pipe_3"
		},
		{
			"children":[
				2,
				3,
				4,
				5
			],
			"mesh":6,
			"name":"cube"
		},
		{
			"mesh":7,
			"name":"hs_16"
		},
		{
			"children":[
				6,
				7
			],
			"mesh":8,
			"name":"board.001"
		},
		{
			"children":[
				8
			],
			"mesh":9,
			"name":"FS_2",
			"rotation":[
				0.7071067690849304,
				0,
				0,
				0.7071068286895752
			],
			"scale":[
				0.21728649735450745,
				0.21728649735450745,
				0.21728649735450745
			],
			"translation":[
				0,
				-0.2789544463157654,
				0
			]
		},
		{
			"mesh":10,
			"name":"FS_2.002",
			"rotation":[
				0.7071067690849304,
				0,
				0,
				0.7071068286895752
			],
			"scale":[
				0.21728649735450745,
				0.21728649735450745,
				0.21728649735450745
			],
			"translation":[
				0,
				-0.2789544463157654,
				0
			]
		},
		{
			"mesh":11,
			"name":"FS_3",
			"rotation":[
				0.7071067690849304,
				0,
				0,
				0.7071068286895752
			],
			"scale":[
				0.21728649735450745,
				0.21728649735450745,
				0.21728649735450745
			]
		},
		{
			"mesh":12,
			"name":"FS_3.002",
			"rotation":[
				0.7071067690849304,
				0,
				0,
				0.7071068286895752
			],
			"scale":[
				0.21728649735450745,
				0.21728649735450745,
				0.21728649735450745
			]
		},
		{
			"mesh":13,
			"name":"hs_18",
			"translation":[
				0.11270356178283691,
				0,
				0
			]
		},
		{
			"children":[
				13
			],
			"mesh":14,
			"name":"Lights_1",
			"rotation":[
				0.7071067690849304,
				0,
				0,
				0.7071068286895752
			],
			"scale":[
				0.21728649735450745,
				0.21728649735450745,
				0.21728649735450745
			],
			"translation":[
				-0.47790825366973877,
				0.49975156784057617,
				0
			]
		},
		{
			"name":"Lights_1.005",
			"rotation":[
				0.7071069478988647,
				0,
				0,
				0.7071066498756409
			],
			"scale":[
				0.19791007041931152,
				0.19791005551815033,
				0.19791005551815033
			],
			"translation":[
				0,
				0,
				-0.12833285331726074
			]
		},
		{
			"mesh":15,
			"name":"BEG_Light_1.001",
			"translation":[
				-2.241110324859619,
				0.6231354475021362,
				-3.8734424114227295
			]
		},
		{
			"children":[
				16
			],
			"name":"Lights_1.007",
			"rotation":[
				0.7071069478988647,
				0,
				0,
				0.7071066498756409
			],
			"scale":[
				0.19791007041931152,
				0.19791005551815033,
				0.19791005551815033
			],
			"translation":[
				0,
				0,
				-0.12833285331726074
			]
		},
		{
			"mesh":16,
			"name":"nut_1"
		},
		{
			"mesh":17,
			"name":"nut_2"
		},
		{
			"mesh":18,
			"name":"nut_3"
		},
		{
			"mesh":19,
			"name":"nut_4"
		},
		{
			"mesh":20,
			"name":"SS_1.001",
			"translation":[
				0,
				0.1803218573331833,
				0
			]
		},
		{
			"mesh":21,
			"name":"SS_2.001",
			"translation":[
				0,
				-0.12091875821352005,
				0
			]
		},
		{
			"mesh":22,
			"name":"SS_3.001",
			"translation":[
				0.1355724334716797,
				0,
				0
			]
		},
		{
			"mesh":23,
			"name":"st_1"
		},
		{
			"children":[
				18,
				19,
				20,
				21,
				22,
				23,
				24,
				25
			],
			"mesh":24,
			"name":"pole",
			"rotation":[
				0.70710688829422,
				0,
				0,
				0.7071066498756409
			],
			"scale":[
				0.21728648245334625,
				0.21728646755218506,
				0.17446231842041016
			],
			"translation":[
				0.006268637720495462,
				0.12223221361637115,
				-0.005923572927713394
			]
		},
		{
			"mesh":25,
			"name":"nut_1.002"
		},
		{
			"mesh":26,
			"name":"nut_2.002"
		},
		{
			"mesh":27,
			"name":"nut_3.002"
		},
		{
			"mesh":28,
			"name":"nut_4.002"
		},
		{
			"mesh":29,
			"name":"SS_1.004",
			"translation":[
				0,
				0.1803218573331833,
				0
			]
		},
		{
			"mesh":30,
			"name":"SS_2.004",
			"translation":[
				0,
				-0.12091875821352005,
				0
			]
		},
		{
			"mesh":31,
			"name":"SS_3.004",
			"translation":[
				0.1355724334716797,
				0,
				0
			]
		},
		{
			"mesh":32,
			"name":"st_1.002"
		},
		{
			"children":[
				27,
				28,
				29,
				30,
				31,
				32,
				33,
				34
			],
			"mesh":33,
			"name":"pole.002",
			"rotation":[
				0.70710688829422,
				0,
				0,
				0.7071066498756409
			],
			"scale":[
				0.21728648245334625,
				0.21728646755218506,
				0.17446231842041016
			],
			"translation":[
				0.006268637720495462,
				0.12223221361637115,
				-0.005923572927713394
			]
		},
		{
			"mesh":34,
			"name":"Stairs",
			"rotation":[
				0.7071067690849304,
				0,
				0,
				0.7071068286895752
			],
			"scale":[
				0.21728649735450745,
				0.21728649735450745,
				0.21728649735450745
			]
		},
		{
			"mesh":35,
			"name":"Stairs.002",
			"rotation":[
				0.7071067690849304,
				0,
				0,
				0.7071068286895752
			],
			"scale":[
				0.21728649735450745,
				0.21728649735450745,
				0.21728649735450745
			]
		},
		{
			"mesh":36,
			"name":"stand",
			"rotation":[
				0.7071067690849304,
				0,
				0,
				0.7071068286895752
			],
			"scale":[
				0.21728649735450745,
				0.21728649735450745,
				0.21728649735450745
			]
		},
		{
			"mesh":37,
			"name":"stand.002",
			"rotation":[
				0.7071067690849304,
				0,
				0,
				0.7071068286895752
			],
			"scale":[
				0.21728649735450745,
				0.21728649735450745,
				0.21728649735450745
			]
		}
	],
	"materials":[
		{
			"doubleSided":true,
			"name":"RedLight",
			"pbrMetallicRoughness":{
				"baseColorFactor":[
					0.09084124863147736,
					0,
					0,
					1
				],
				"metallicFactor":0,
				"roughnessFactor":0.5
			}
		},
		{
			"doubleSided":true,
			"name":"YellowLight",
			"pbrMetallicRoughness":{
				"baseColorFactor":[
					0.09084117412567139,
					0.09084182977676392,
					0,
					1
				],
				"metallicFactor":0,
				"roughnessFactor":0.5
			}
		},
		{
			"doubleSided":true,
			"name":"Material.001",
			"pbrMetallicRoughness":{
				"baseColorFactor":[
					0,
					0,
					0,
					1
				],
				"metallicFactor":0,
				"roughnessFactor":0.5
			}
		},
		{
			"doubleSided":true,
			"extensions":{
				"KHR_materials_clearcoat":{
					"clearcoatRoughnessFactor":0
				}
			},
			"name":"main",
			"pbrMetallicRoughness":{
				"baseColorFactor":[
					0,
					0,
					0,
					1
				],
				"metallicFactor":0.5039370059967041,
				"roughnessFactor":0.36000001430511475
			}
		},
		{
			"doubleSided":true,
			"extensions":{
				"KHR_materials_clearcoat":{
					"clearcoatRoughnessFactor":0
				}
			},
			"name":"standardSurface1.002",
			"pbrMetallicRoughness":{
				"baseColorFactor":[
					0,
					0,
					0,
					1
				],
				"metallicFactor":0,
				"roughnessFactor":0.5527864098548889
			}
		},
		{
			"doubleSided":true,
			"extensions":{
				"KHR_materials_clearcoat":{
					"clearcoatRoughnessFactor":0
				}
			},
			"name":"Material.002",
			"pbrMetallicRoughness":{
				"baseColorFactor":[
					0,
					0,
					0,
					1
				],
				"metallicFactor":0.5039370059967041,
				"roughnessFactor":0.36000001430511475
			}
		},
		{
			"doubleSided":true,
			"extensions":{
				"KHR_materials_clearcoat":{
					"clearcoatRoughnessFactor":0
				}
			},
			"name":"Material.003",
			"pbrMetallicRoughness":{
				"baseColorFactor":[
					0,
					0,
					0,
					1
				],
				"metallicFactor":0,
				"roughnessFactor":0.5
			}
		},
		{
			"doubleSided":true,
			"extensions":{
				"KHR_materials_clearcoat":{
					"clearcoatRoughnessFactor":0
				}
			},
			"name":"Material.008",
			"pbrMetallicRoughness":{
				"baseColorFactor":[
					0.003538780612871051,
					0.003538780612871051,
					0.003538780612871051,
					1
				],
				"metallicFactor":0,
				"roughnessFactor":0.5
			}
		},
		{
			"doubleSided":true,
			"extensions":{
				"KHR_materials_clearcoat":{
					"clearcoatRoughnessFactor":0
				}
			},
			"name":"Material.004",
			"pbrMetallicRoughness":{
				"baseColorFactor":[
					0.3771159052848816,
					0.3771159052848816,
					0.3771159052848816,
					1
				],
				"metallicFactor":0,
				"roughnessFactor":0.5
			}
		},
		{
			"doubleSided":true,
			"extensions":{
				"KHR_materials_clearcoat":{
					"clearcoatRoughnessFactor":0
				}
			},
			"name":"Material.088",
			"pbrMetallicRoughness":{
				"baseColorFactor":[
					0,
					0,
					0,
					1
				],
				"metallicFactor":0.5039370059967041,
				"roughnessFactor":0.36000001430511475
			}
		},
		{
			"doubleSided":true,
			"extensions":{
				"KHR_materials_clearcoat":{
					"clearcoatRoughnessFactor":0
				}
			},
			"name":"Material.089",
			"pbrMetallicRoughness":{
				"baseColorFactor":[
					0.003538780612871051,
					0.003538780612871051,
					0.003538780612871051,
					1
				],
				"metallicFactor":0,
				"roughnessFactor":0.5
			}
		},
		{
			"doubleSided":true,
			"extensions":{
				"KHR_materials_clearcoat":{
					"clearcoatRoughnessFactor":0
				}
			},
			"name":"pole",
			"pbrMetallicRoughness":{
				"baseColorFactor":[
					0.3771159052848816,
					0.3771159052848816,
					0.3771159052848816,
					1
				],
				"metallicFactor":0,
				"roughnessFactor":0.5
			}
		},
		{
			"doubleSided":true,
			"extensions":{
				"KHR_materials_clearcoat":{
					"clearcoatRoughnessFactor":0
				}
			},
			"name":"Material.009",
			"pbrMetallicRoughness":{
				"baseColorFactor":[
					0.17434632778167725,
					0.17434632778167725,
					0.17434632778167725,
					1
				],
				"metallicFactor":0
			}
		},
		{
			"doubleSided":true,
			"extensions":{
				"KHR_materials_clearcoat":{
					"clearcoatRoughnessFactor":0
				}
			},
			"name":"last",
			"pbrMetallicRoughness":{
				"baseColorFactor":[
					0.17434632778167725,
					0.17434632778167725,
					0.17434632778167725,
					1
				],
				"metallicFactor":0
			}
		}
	],
	"meshes":[
		{
			"name":"RedLight",
			"primitives":[
				{
					"attributes":{
						"POSITION":0,
						"NORMAL":1,
						"TEXCOORD_0":2
					},
					"indices":3,
					"material":0
				}
			]
		},
		{
			"name":"YellowLight",
			"primitives":[
				{
					"attributes":{
						"POSITION":4,
						"NORMAL":5,
						"TEXCOORD_0":6
					},
					"indices":3,
					"material":1
				}
			]
		},
		{
			"name":"Mesh.049",
			"primitives":[
				{
					"attributes":{
						"POSITION":7,
						"NORMAL":8,
						"TEXCOORD_0":9
					},
					"indices":10,
					"material":2
				}
			]
		},
		{
			"name":"Mesh.047",
			"primitives":[
				{
					"attributes":{
						"POSITION":11,
						"NORMAL":12,
						"TEXCOORD_0":13
					},
					"indices":14,
					"material":3
				}
			]
		},
		{
			"name":"Mesh.046",
			"primitives":[
				{
					"attributes":{
						"POSITION":15,
						"NORMAL":16,
						"TEXCOORD_0":17
					},
					"indices":14,
					"material":3
				}
			]
		},
		{
			"name":"Mesh.048",
			"primitives":[
				{
					"attributes":{
						"POSITION":18,
						"NORMAL":19,
						"TEXCOORD_0":20
					},
					"indices":14,
					"material":3
				}
			]
		},
		{
			"name":"Mesh.045",
			"primitives":[
				{
					"attributes":{
						"POSITION":21,
						"NORMAL":22,
						"TEXCOORD_0":23
					},
					"indices":24,
					"material":3
				}
			]
		},
		{
			"name":"Mesh.044",
			"primitives":[
				{
					"attributes":{
						"POSITION":25,
						"NORMAL":26,
						"TEXCOORD_0":27
					},
					"indices":28,
					"material":4
				}
			]
		},
		{
			"name":"Mesh.043",
			"primitives":[
				{
					"attributes":{
						"POSITION":29,
						"NORMAL":30,
						"TEXCOORD_0":31
					},
					"indices":32,
					"material":3
				}
			]
		},
		{
			"name":"Mesh.042",
			"primitives":[
				{
					"attributes":{
						"POSITION":33,
						"NORMAL":34,
						"TEXCOORD_0":35
					},
					"indices":36,
					"material":5
				}
			]
		},
		{
			"name":"Mesh.109",
			"primitives":[
				{
					"attributes":{
						"POSITION":37,
						"NORMAL":38,
						"TEXCOORD_0":39
					},
					"indices":36,
					"material":3
				}
			]
		},
		{
			"name":"Mesh.040",
			"primitives":[
				{
					"attributes":{
						"POSITION":40,
						"NORMAL":41,
						"TEXCOORD_0":42
					},
					"indices":43,
					"material":5
				}
			]
		},
		{
			"name":"Mesh.110",
			"primitives":[
				{
					"attributes":{
						"POSITION":44,
						"NORMAL":45,
						"TEXCOORD_0":46
					},
					"indices":43,
					"material":3
				}
			]
		},
		{
			"name":"Mesh.039",
			"primitives":[
				{
					"attributes":{
						"POSITION":47,
						"NORMAL":48,
						"TEXCOORD_0":49
					},
					"indices":50,
					"material":6
				}
			]
		},
		{
			"name":"Mesh.032",
			"primitives":[
				{
					"attributes":{
						"POSITION":51,
						"NORMAL":52,
						"TEXCOORD_0":53
					},
					"indices":54,
					"material":3
				}
			]
		},
		{
			"name":"Mesh.226",
			"primitives":[
				{
					"attributes":{
						"POSITION":55,
						"NORMAL":56,
						"TEXCOORD_0":57
					},
					"indices":58,
					"material":3
				}
			]
		},
		{
			"name":"Mesh.053",
			"primitives":[
				{
					"attributes":{
						"POSITION":59,
						"NORMAL":60,
						"TEXCOORD_0":61
					},
					"indices":62,
					"material":3
				}
			]
		},
		{
			"name":"Mesh.054",
			"primitives":[
				{
					"attributes":{
						"POSITION":63,
						"NORMAL":64,
						"TEXCOORD_0":65
					},
					"indices":62,
					"material":3
				}
			]
		},
		{
			"name":"Mesh.055",
			"primitives":[
				{
					"attributes":{
						"POSITION":66,
						"NORMAL":67,
						"TEXCOORD_0":68
					},
					"indices":62,
					"material":3
				}
			]
		},
		{
			"name":"Mesh.056",
			"primitives":[
				{
					"attributes":{
						"POSITION":69,
						"NORMAL":70,
						"TEXCOORD_0":71
					},
					"indices":62,
					"material":7
				}
			]
		},
		{
			"name":"Mesh.059",
			"primitives":[
				{
					"attributes":{
						"POSITION":72,
						"NORMAL":73,
						"TEXCOORD_0":74
					},
					"indices":75,
					"material":3
				}
			]
		},
		{
			"name":"Mesh.058",
			"primitives":[
				{
					"attributes":{
						"POSITION":76,
						"NORMAL":77,
						"TEXCOORD_0":78
					},
					"indices":75,
					"material":5
				}
			]
		},
		{
			"name":"Mesh.060",
			"primitives":[
				{
					"attributes":{
						"POSITION":79,
						"NORMAL":80,
						"TEXCOORD_0":81
					},
					"indices":75,
					"material":3
				}
			]
		},
		{
			"name":"Mesh.057",
			"primitives":[
				{
					"attributes":{
						"POSITION":82,
						"NORMAL":83,
						"TEXCOORD_0":84
					},
					"indices":85,
					"material":5
				}
			]
		},
		{
			"name":"Mesh.052",
			"primitives":[
				{
					"attributes":{
						"POSITION":86,
						"NORMAL":87,
						"TEXCOORD_0":88,
						"TEXCOORD_1":89
					},
					"indices":90,
					"material":8
				},
				{
					"attributes":{
						"POSITION":91,
						"NORMAL":92,
						"TEXCOORD_0":93,
						"TEXCOORD_1":94
					},
					"indices":95,
					"material":5
				}
			]
		},
		{
			"name":"Mesh.107",
			"primitives":[
				{
					"attributes":{
						"POSITION":96,
						"NORMAL":97,
						"TEXCOORD_0":98
					},
					"indices":62,
					"material":9
				}
			]
		},
		{
			"name":"Mesh.106",
			"primitives":[
				{
					"attributes":{
						"POSITION":99,
						"NORMAL":100,
						"TEXCOORD_0":101
					},
					"indices":62,
					"material":9
				}
			]
		},
		{
			"name":"Mesh.105",
			"primitives":[
				{
					"attributes":{
						"POSITION":102,
						"NORMAL":103,
						"TEXCOORD_0":104
					},
					"indices":62,
					"material":9
				}
			]
		},
		{
			"name":"Mesh.104",
			"primitives":[
				{
					"attributes":{
						"POSITION":105,
						"NORMAL":106,
						"TEXCOORD_0":107
					},
					"indices":62,
					"material":10
				}
			]
		},
		{
			"name":"Mesh.101",
			"primitives":[
				{
					"attributes":{
						"POSITION":108,
						"NORMAL":109,
						"TEXCOORD_0":110
					},
					"indices":75,
					"material":3
				}
			]
		},
		{
			"name":"Mesh.102",
			"primitives":[
				{
					"attributes":{
						"POSITION":111,
						"NORMAL":112,
						"TEXCOORD_0":113
					},
					"indices":75,
					"material":3
				}
			]
		},
		{
			"name":"Mesh.100",
			"primitives":[
				{
					"attributes":{
						"POSITION":114,
						"NORMAL":115,
						"TEXCOORD_0":116
					},
					"indices":75,
					"material":9
				}
			]
		},
		{
			"name":"Mesh.103",
			"primitives":[
				{
					"attributes":{
						"POSITION":117,
						"NORMAL":118,
						"TEXCOORD_0":119
					},
					"indices":85,
					"material":3
				}
			]
		},
		{
			"name":"Mesh.108",
			"primitives":[
				{
					"attributes":{
						"POSITION":120,
						"NORMAL":121,
						"TEXCOORD_0":122,
						"TEXCOORD_1":123
					},
					"indices":124,
					"material":11
				}
			]
		},
		{
			"name":"Mesh.064",
			"primitives":[
				{
					"attributes":{
						"POSITION":125,
						"NORMAL":126,
						"TEXCOORD_0":127
					},
					"indices":128,
					"material":5
				}
			]
		},
		{
			"name":"Mesh.098",
			"primitives":[
				{
					"attributes":{
						"POSITION":129,
						"NORMAL":130,
						"TEXCOORD_0":131
					},
					"indices":128,
					"material":3
				}
			]
		},
		{
			"name":"Mesh.063",
			"primitives":[
				{
					"attributes":{
						"POSITION":132,
						"NORMAL":133,
						"TEXCOORD_0":134
					},
					"indices":135,
					"material":12
				}
			]
		},
		{
			"name":"Mesh.099",
			"primitives":[
				{
					"attributes":{
						"POSITION":136,
						"NORMAL":137,
						"TEXCOORD_0":138
					},
					"indices":135,
					"material":13
				}
			]
		}
	],
	"accessors":[
		{
			"bufferView":0,
			"componentType":5126,
			"count":258,
			"max":[
				0.5908706188201904,
				0.07490134239196777,
				0.07334615290164948
			],
			"min":[
				0.5568578243255615,
				-0.07319855690002441,
				-0.07475398480892181
			],
			"type":"VEC3"
		},
		{
			"bufferView":1,
			"componentType":5126,
			"count":258,
			"type":"VEC3"
		},
		{
			"bufferView":2,
			"componentType":5126,
			"count":258,
			"type":"VEC2"
		},
		{
			"bufferView":3,
			"componentType":5123,
			"count":384,
			"type":"SCALAR"
		},
		{
			"bufferView":4,
			"componentType":5126,
			"count":258,
			"max":[
				0.5908706188201904,
				0.07490134239196777,
				0.07334615290164948
			],
			"min":[
				0.5568578243255615,
				-0.07319855690002441,
				-0.07475398480892181
			],
			"type":"VEC3"
		},
		{
			"bufferView":5,
			"componentType":5126,
			"count":258,
			"type":"VEC3"
		},
		{
			"bufferView":6,
			"componentType":5126,
			"count":258,
			"type":"VEC2"
		},
		{
			"bufferView":7,
			"componentType":5126,
			"count":24,
			"max":[
				2.769577980041504,
				0.6880860328674316,
				-14.935367584228516
			],
			"min":[
				2.759578227996826,
				-0.6880865097045898,
				-15.591647148132324
			],
			"type":"VEC3"
		},
		{
			"bufferView":8,
			"componentType":5126,
			"count":24,
			"type":"VEC3"
		},
		{
			"bufferView":9,
			"componentType":5126,
			"count":24,
			"type":"VEC2"
		},
		{
			"bufferView":10,
			"componentType":5123,
			"count":36,
			"type":"SCALAR"
		},
		{
			"bufferView":11,
			"componentType":5126,
			"count":150,
			"max":[
				2.999873638153076,
				0.19918060302734375,
				-14.289436340332031
			],
			"min":[
				2.769577980041504,
				-0.20669126510620117,
				-14.695307731628418
			],
			"type":"VEC3"
		},
		{
			"bufferView":12,
			"componentType":5126,
			"count":150,
			"type":"VEC3"
		},
		{
			"bufferView":13,
			"componentType":5126,
			"count":150,
			"type":"VEC2"
		},
		{
			"bufferView":14,
			"componentType":5123,
			"count":288,
			"type":"SCALAR"
		},
		{
			"bufferView":15,
			"componentType":5126,
			"count":150,
			"max":[
				2.999873638153076,
				-0.09965753555297852,
				-13.679397583007812
			],
			"min":[
				2.769577980041504,
				-0.5055294036865234,
				-14.0852689743042
			],
			"type":"VEC3"
		},
		{
			"bufferView":16,
			"componentType":5126,
			"count":150,
			"type":"VEC3"
		},
		{
			"bufferView":17,
			"componentType":5126,
			"count":150,
			"type":"VEC2"
		},
		{
			"bufferView":18,
			"componentType":5126,
			"count":150,
			"max":[
				2.999873638153076,
				0.49817800521850586,
				-13.679397583007812
			],
			"min":[
				2.769577980041504,
				0.09230613708496094,
				-14.0852689743042
			],
			"type":"VEC3"
		},
		{
			"bufferView":19,
			"componentType":5126,
			"count":150,
			"type":"VEC3"
		},
		{
			"bufferView":20,
			"componentType":5126,
			"count":150,
			"type":"VEC2"
		},
		{
			"bufferView":21,
			"componentType":5126,
			"count":106,
			"max":[
				2.769578218460083,
				0.6880860328674316,
				-13.092769622802734
			],
			"min":[
				1.5690832138061523,
				-0.6880865097045898,
				-14.935367584228516
			],
			"type":"VEC3"
		},
		{
			"bufferView":22,
			"componentType":5126,
			"count":106,
			"type":"VEC3"
		},
		{
			"bufferView":23,
			"componentType":5126,
			"count":106,
			"type":"VEC2"
		},
		{
			"bufferView":24,
			"componentType":5123,
			"count":180,
			"type":"SCALAR"
		},
		{
			"bufferView":25,
			"componentType":5126,
			"count":24,
			"max":[
				2.5776538848876953,
				0.9999985694885254,
				-11.601020812988281
			],
			"min":[
				2.567653179168701,
				-1.0000014305114746,
				-12.601021766662598
			],
			"type":"VEC3"
		},
		{
			"bufferView":26,
			"componentType":5126,
			"count":24,
			"type":"VEC3"
		},
		{
			"bufferView":27,
			"componentType":5126,
			"count":24,
			"type":"VEC2"
		},
		{
			"bufferView":28,
			"componentType":5123,
			"count":36,
			"type":"SCALAR"
		},
		{
			"bufferView":29,
			"componentType":5126,
			"count":375,
			"max":[
				2.5726537704467773,
				0.5539977550506592,
				-10.867603302001953
			],
			"min":[
				0.4991569519042969,
				-0.5539975166320801,
				-13.092772483825684
			],
			"type":"VEC3"
		},
		{
			"bufferView":30,
			"componentType":5126,
			"count":375,
			"type":"VEC3"
		},
		{
			"bufferView":31,
			"componentType":5126,
			"count":375,
			"type":"VEC2"
		},
		{
			"bufferView":32,
			"componentType":5123,
			"count":600,
			"type":"SCALAR"
		},
		{
			"bufferView":33,
			"componentType":5126,
			"count":128,
			"max":[
				0.4991568624973297,
				0.4991558790206909,
				-10.922483444213867
			],
			"min":[
				-0.49915680289268494,
				-0.49916836619377136,
				-12.122486114501953
			],
			"type":"VEC3"
		},
		{
			"bufferView":34,
			"componentType":5126,
			"count":128,
			"type":"VEC3"
		},
		{
			"bufferView":35,
			"componentType":5126,
			"count":128,
			"type":"VEC2"
		},
		{
			"bufferView":36,
			"componentType":5123,
			"count":192,
			"type":"SCALAR"
		},
		{
			"bufferView":37,
			"componentType":5126,
			"count":128,
			"max":[
				0.4991568624973297,
				0.4991558790206909,
				-10.922483444213867
			],
			"min":[
				-0.49915680289268494,
				-0.49916836619377136,
				-12.122486114501953
			],
			"type":"VEC3"
		},
		{
			"bufferView":38,
			"componentType":5126,
			"count":128,
			"type":"VEC3"
		},
		{
			"bufferView":39,
			"componentType":5126,
			"count":128,
			"type":"VEC2"
		},
		{
			"bufferView":40,
			"componentType":5126,
			"count":254,
			"max":[
				0.4991568624973297,
				1.3392407894134521,
				-15.015745162963867
			],
			"min":[
				-0.6073988080024719,
				-1.3392503261566162,
				-16.215747833251953
			],
			"type":"VEC3"
		},
		{
			"bufferView":41,
			"componentType":5126,
			"count":254,
			"type":"VEC3"
		},
		{
			"bufferView":42,
			"componentType":5126,
			"count":254,
			"type":"VEC2"
		},
		{
			"bufferView":43,
			"componentType":5123,
			"count":372,
			"type":"SCALAR"
		},
		{
			"bufferView":44,
			"componentType":5126,
			"count":254,
			"max":[
				0.4991568624973297,
				1.3392407894134521,
				-15.015745162963867
			],
			"min":[
				-0.6073988080024719,
				-1.3392503261566162,
				-16.215747833251953
			],
			"type":"VEC3"
		},
		{
			"bufferView":45,
			"componentType":5126,
			"count":254,
			"type":"VEC3"
		},
		{
			"bufferView":46,
			"componentType":5126,
			"count":254,
			"type":"VEC2"
		},
		{
			"bufferView":47,
			"componentType":5126,
			"count":24,
			"max":[
				2.9884748458862305,
				0.9361133575439453,
				-15.591646194458008
			],
			"min":[
				2.9784746170043945,
				-0.9361128807067871,
				-16.720224380493164
			],
			"type":"VEC3"
		},
		{
			"bufferView":48,
			"componentType":5126,
			"count":24,
			"type":"VEC3"
		},
		{
			"bufferView":49,
			"componentType":5126,
			"count":24,
			"type":"VEC2"
		},
		{
			"bufferView":50,
			"componentType":5123,
			"count":36,
			"type":"SCALAR"
		},
		{
			"bufferView":51,
			"componentType":5126,
			"count":860,
			"max":[
				2.881345272064209,
				1.0074410438537598,
				-17.042612075805664
			],
			"min":[
				1.4722647666931152,
				-0.9630773067474365,
				-22.049028396606445
			],
			"type":"VEC3"
		},
		{
			"bufferView":52,
			"componentType":5126,
			"count":860,
			"type":"VEC3"
		},
		{
			"bufferView":53,
			"componentType":5126,
			"count":860,
			"type":"VEC2"
		},
		{
			"bufferView":54,
			"componentType":5123,
			"count":1560,
			"type":"SCALAR"
		},
		{
			"bufferView":55,
			"componentType":5126,
			"count":2784,
			"max":[
				4.229874610900879,
				1.1313798427581787,
				-17.36287498474121
			],
			"min":[
				1.442743182182312,
				-1.0320626497268677,
				-22.859445571899414
			],
			"type":"VEC3"
		},
		{
			"bufferView":56,
			"componentType":5126,
			"count":2784,
			"type":"VEC3"
		},
		{
			"bufferView":57,
			"componentType":5126,
			"count":2784,
			"type":"VEC2"
		},
		{
			"bufferView":58,
			"componentType":5123,
			"count":2784,
			"type":"SCALAR"
		},
		{
			"bufferView":59,
			"componentType":5126,
			"count":115,
			"max":[
				0.6618318557739258,
				-0.3992648124694824,
				-3.1214146614074707
			],
			"min":[
				0.3804134130477905,
				-0.6429805755615234,
				-3.3412909507751465
			],
			"type":"VEC3"
		},
		{
			"bufferView":60,
			"componentType":5126,
			"count":115,
			"type":"VEC3"
		},
		{
			"bufferView":61,
			"componentType":5126,
			"count":115,
			"type":"VEC2"
		},
		{
			"bufferView":62,
			"componentType":5123,
			"count":198,
			"type":"SCALAR"
		},
		{
			"bufferView":63,
			"componentType":5126,
			"count":115,
			"max":[
				0.6618318557739258,
				0.6429800987243652,
				-3.1214146614074707
			],
			"min":[
				0.380413293838501,
				0.3992652893066406,
				-3.3412909507751465
			],
			"type":"VEC3"
		},
		{
			"bufferView":64,
			"componentType":5126,
			"count":115,
			"type":"VEC3"
		},
		{
			"bufferView":65,
			"componentType":5126,
			"count":115,
			"type":"VEC2"
		},
		{
			"bufferView":66,
			"componentType":5126,
			"count":115,
			"max":[
				-0.3804135322570801,
				0.6429800987243652,
				-3.1214146614074707
			],
			"min":[
				-0.6618319749832153,
				0.3992652893066406,
				-3.3412909507751465
			],
			"type":"VEC3"
		},
		{
			"bufferView":67,
			"componentType":5126,
			"count":115,
			"type":"VEC3"
		},
		{
			"bufferView":68,
			"componentType":5126,
			"count":115,
			"type":"VEC2"
		},
		{
			"bufferView":69,
			"componentType":5126,
			"count":115,
			"max":[
				-0.3804135322570801,
				-0.3992648124694824,
				-3.1214146614074707
			],
			"min":[
				-0.6618319749832153,
				-0.6429805755615234,
				-3.3412909507751465
			],
			"type":"VEC3"
		},
		{
			"bufferView":70,
			"componentType":5126,
			"count":115,
			"type":"VEC3"
		},
		{
			"bufferView":71,
			"componentType":5126,
			"count":115,
			"type":"VEC2"
		},
		{
			"bufferView":72,
			"componentType":5126,
			"count":50,
			"max":[
				0.28786706924438477,
				-0.7320766448974609,
				-22.74502944946289
			],
			"min":[
				0.15201997756958008,
				-0.8679238557815552,
				-24.25497055053711
			],
			"type":"VEC3"
		},
		{
			"bufferView":73,
			"componentType":5126,
			"count":50,
			"type":"VEC3"
		},
		{
			"bufferView":74,
			"componentType":5126,
			"count":50,
			"type":"VEC2"
		},
		{
			"bufferView":75,
			"componentType":5123,
			"count":96,
			"type":"SCALAR"
		},
		{
			"bufferView":76,
			"componentType":5126,
			"count":50,
			"max":[
				0.28786706924438477,
				0.867923378944397,
				-22.74502944946289
			],
			"min":[
				0.15201997756958008,
				0.7320761680603027,
				-24.25497055053711
			],
			"type":"VEC3"
		},
		{
			"bufferView":77,
			"componentType":5126,
			"count":50,
			"type":"VEC3"
		},
		{
			"bufferView":78,
			"componentType":5126,
			"count":50,
			"type":"VEC2"
		},
		{
			"bufferView":79,
			"componentType":5126,
			"count":50,
			"max":[
				-0.5981847047805786,
				0.06792330741882324,
				-22.74502944946289
			],
			"min":[
				-0.7340316772460938,
				-0.06792378425598145,
				-24.25497055053711
			],
			"type":"VEC3"
		},
		{
			"bufferView":80,
			"componentType":5126,
			"count":50,
			"type":"VEC3"
		},
		{
			"bufferView":81,
			"componentType":5126,
			"count":50,
			"type":"VEC2"
		},
		{
			"bufferView":82,
			"componentType":5126,
			"count":62,
			"max":[
				0.8660259246826172,
				0.9361131191253662,
				-22.933773040771484
			],
			"min":[
				-0.8660259246826172,
				-0.9361131191253662,
				-23.066226959228516
			],
			"type":"VEC3"
		},
		{
			"bufferView":83,
			"componentType":5126,
			"count":62,
			"type":"VEC3"
		},
		{
			"bufferView":84,
			"componentType":5126,
			"count":62,
			"type":"VEC2"
		},
		{
			"bufferView":85,
			"componentType":5123,
			"count":108,
			"type":"SCALAR"
		},
		{
			"bufferView":86,
			"componentType":5126,
			"count":510,
			"max":[
				0.9739577770233154,
				0.9739577174186707,
				-3
			],
			"min":[
				-0.9739577770233154,
				-0.9739577174186707,
				-23.933773040771484
			],
			"type":"VEC3"
		},
		{
			"bufferView":87,
			"componentType":5126,
			"count":510,
			"type":"VEC3"
		},
		{
			"bufferView":88,
			"componentType":5126,
			"count":510,
			"type":"VEC2"
		},
		{
			"bufferView":89,
			"componentType":5126,
			"count":510,
			"type":"VEC2"
		},
		{
			"bufferView":90,
			"componentType":5123,
			"count":936,
			"type":"SCALAR"
		},
		{
			"bufferView":91,
			"componentType":5126,
			"count":84,
			"max":[
				1.0006860494613647,
				1.0368409156799316,
				-3.0267181396484375
			],
			"min":[
				-1.0716572999954224,
				-1.0645896196365356,
				-5.936000823974609
			],
			"type":"VEC3"
		},
		{
			"bufferView":92,
			"componentType":5126,
			"count":84,
			"type":"VEC3"
		},
		{
			"bufferView":93,
			"componentType":5126,
			"count":84,
			"type":"VEC2"
		},
		{
			"bufferView":94,
			"componentType":5126,
			"count":84,
			"type":"VEC2"
		},
		{
			"bufferView":95,
			"componentType":5123,
			"count":144,
			"type":"SCALAR"
		},
		{
			"bufferView":96,
			"componentType":5126,
			"count":115,
			"max":[
				0.6618318557739258,
				-0.3992648124694824,
				-3.1214146614074707
			],
			"min":[
				0.3804134130477905,
				-0.6429805755615234,
				-3.3412909507751465
			],
			"type":"VEC3"
		},
		{
			"bufferView":97,
			"componentType":5126,
			"count":115,
			"type":"VEC3"
		},
		{
			"bufferView":98,
			"componentType":5126,
			"count":115,
			"type":"VEC2"
		},
		{
			"bufferView":99,
			"componentType":5126,
			"count":115,
			"max":[
				0.6618318557739258,
				0.6429800987243652,
				-3.1214146614074707
			],
			"min":[
				0.380413293838501,
				0.3992652893066406,
				-3.3412909507751465
			],
			"type":"VEC3"
		},
		{
			"bufferView":100,
			"componentType":5126,
			"count":115,
			"type":"VEC3"
		},
		{
			"bufferView":101,
			"componentType":5126,
			"count":115,
			"type":"VEC2"
		},
		{
			"bufferView":102,
			"componentType":5126,
			"count":115,
			"max":[
				-0.3804135322570801,
				0.6429800987243652,
				-3.1214146614074707
			],
			"min":[
				-0.6618319749832153,
				0.3992652893066406,
				-3.3412909507751465
			],
			"type":"VEC3"
		},
		{
			"bufferView":103,
			"componentType":5126,
			"count":115,
			"type":"VEC3"
		},
		{
			"bufferView":104,
			"componentType":5126,
			"count":115,
			"type":"VEC2"
		},
		{
			"bufferView":105,
			"componentType":5126,
			"count":115,
			"max":[
				-0.3804135322570801,
				-0.3992648124694824,
				-3.1214146614074707
			],
			"min":[
				-0.6618319749832153,
				-0.6429805755615234,
				-3.3412909507751465
			],
			"type":"VEC3"
		},
		{
			"bufferView":106,
			"componentType":5126,
			"count":115,
			"type":"VEC3"
		},
		{
			"bufferView":107,
			"componentType":5126,
			"count":115,
			"type":"VEC2"
		},
		{
			"bufferView":108,
			"componentType":5126,
			"count":50,
			"max":[
				0.28786706924438477,
				-0.7320766448974609,
				-22.74502944946289
			],
			"min":[
				0.15201997756958008,
				-0.8679238557815552,
				-24.25497055053711
			],
			"type":"VEC3"
		},
		{
			"bufferView":109,
			"componentType":5126,
			"count":50,
			"type":"VEC3"
		},
		{
			"bufferView":110,
			"componentType":5126,
			"count":50,
			"type":"VEC2"
		},
		{
			"bufferView":111,
			"componentType":5126,
			"count":50,
			"max":[
				0.28786706924438477,
				0.867923378944397,
				-22.74502944946289
			],
			"min":[
				0.15201997756958008,
				0.7320761680603027,
				-24.25497055053711
			],
			"type":"VEC3"
		},
		{
			"bufferView":112,
			"componentType":5126,
			"count":50,
			"type":"VEC3"
		},
		{
			"bufferView":113,
			"componentType":5126,
			"count":50,
			"type":"VEC2"
		},
		{
			"bufferView":114,
			"componentType":5126,
			"count":50,
			"max":[
				-0.5981847047805786,
				0.06792330741882324,
				-22.74502944946289
			],
			"min":[
				-0.7340316772460938,
				-0.06792378425598145,
				-24.25497055053711
			],
			"type":"VEC3"
		},
		{
			"bufferView":115,
			"componentType":5126,
			"count":50,
			"type":"VEC3"
		},
		{
			"bufferView":116,
			"componentType":5126,
			"count":50,
			"type":"VEC2"
		},
		{
			"bufferView":117,
			"componentType":5126,
			"count":62,
			"max":[
				0.8660259246826172,
				0.9361131191253662,
				-22.933773040771484
			],
			"min":[
				-0.8660259246826172,
				-0.9361131191253662,
				-23.066226959228516
			],
			"type":"VEC3"
		},
		{
			"bufferView":118,
			"componentType":5126,
			"count":62,
			"type":"VEC3"
		},
		{
			"bufferView":119,
			"componentType":5126,
			"count":62,
			"type":"VEC2"
		},
		{
			"bufferView":120,
			"componentType":5126,
			"count":594,
			"max":[
				1.0006860494613647,
				1.0368409156799316,
				-3
			],
			"min":[
				-1.0716572999954224,
				-1.0645896196365356,
				-23.933773040771484
			],
			"type":"VEC3"
		},
		{
			"bufferView":121,
			"componentType":5126,
			"count":594,
			"type":"VEC3"
		},
		{
			"bufferView":122,
			"componentType":5126,
			"count":594,
			"type":"VEC2"
		},
		{
			"bufferView":123,
			"componentType":5126,
			"count":594,
			"type":"VEC2"
		},
		{
			"bufferView":124,
			"componentType":5123,
			"count":1080,
			"type":"SCALAR"
		},
		{
			"bufferView":125,
			"componentType":5126,
			"count":999,
			"max":[
				0.45726916193962097,
				1.8962502479553223,
				3.99942684173584
			],
			"min":[
				-6.149956703186035,
				-1.8962502479553223,
				-24.375186920166016
			],
			"type":"VEC3"
		},
		{
			"bufferView":126,
			"componentType":5126,
			"count":999,
			"type":"VEC3"
		},
		{
			"bufferView":127,
			"componentType":5126,
			"count":999,
			"type":"VEC2"
		},
		{
			"bufferView":128,
			"componentType":5123,
			"count":2400,
			"type":"SCALAR"
		},
		{
			"bufferView":129,
			"componentType":5126,
			"count":999,
			"max":[
				0.45726916193962097,
				1.8962502479553223,
				3.99942684173584
			],
			"min":[
				-6.149956703186035,
				-1.8962502479553223,
				-24.375186920166016
			],
			"type":"VEC3"
		},
		{
			"bufferView":130,
			"componentType":5126,
			"count":999,
			"type":"VEC3"
		},
		{
			"bufferView":131,
			"componentType":5126,
			"count":999,
			"type":"VEC2"
		},
		{
			"bufferView":132,
			"componentType":5126,
			"count":24,
			"max":[
				1.8995440006256104,
				1.8995440006256104,
				0
			],
			"min":[
				-1.8995440006256104,
				-1.8995440006256104,
				-3
			],
			"type":"VEC3"
		},
		{
			"bufferView":133,
			"componentType":5126,
			"count":24,
			"type":"VEC3"
		},
		{
			"bufferView":134,
			"componentType":5126,
			"count":24,
			"type":"VEC2"
		},
		{
			"bufferView":135,
			"componentType":5123,
			"count":36,
			"type":"SCALAR"
		},
		{
			"bufferView":136,
			"componentType":5126,
			"count":24,
			"max":[
				1.8995440006256104,
				1.8995440006256104,
				0
			],
			"min":[
				-1.8995440006256104,
				-1.8995440006256104,
				-3
			],
			"type":"VEC3"
		},
		{
			"bufferView":137,
			"componentType":5126,
			"count":24,
			"type":"VEC3"
		},
		{
			"bufferView":138,
			"componentType":5126,
			"count":24,
			"type":"VEC2"
		}
	],
	"bufferViews":[
		{
			"buffer":0,
			"byteLength":3096,
			"byteOffset":0,
			"target":34962
		},
		{
			"buffer":0,
			"byteLength":3096,
			"byteOffset":3096,
			"target":34962
		},
		{
			"buffer":0,
			"byteLength":2064,
			"byteOffset":6192,
			"target":34962
		},
		{
			"buffer":0,
			"byteLength":768,
			"byteOffset":8256,
			"target":34963
		},
		{
			"buffer":0,
			"byteLength":3096,
			"byteOffset":9024,
			"target":34962
		},
		{
			"buffer":0,
			"byteLength":3096,
			"byteOffset":12120,
			"target":34962
		},
		{
			"buffer":0,
			"byteLength":2064,
			"byteOffset":15216,
			"target":34962
		},
		{
			"buffer":0,
			"byteLength":288,
			"byteOffset":17280,
			"target":34962
		},
		{
			"buffer":0,
			"byteLength":288,
			"byteOffset":17568,
			"target":34962
		},
		{
			"buffer":0,
			"byteLength":192,
			"byteOffset":17856,
			"target":34962
		},
		{
			"buffer":0,
			"byteLength":72,
			"byteOffset":18048,
			"target":34963
		},
		{
			"buffer":0,
			"byteLength":1800,
			"byteOffset":18120,
			"target":34962
		},
		{
			"buffer":0,
			"byteLength":1800,
			"byteOffset":19920,
			"target":34962
		},
		{
			"buffer":0,
			"byteLength":1200,
			"byteOffset":21720,
			"target":34962
		},
		{
			"buffer":0,
			"byteLength":576,
			"byteOffset":22920,
			"target":34963
		},
		{
			"buffer":0,
			"byteLength":1800,
			"byteOffset":23496,
			"target":34962
		},
		{
			"buffer":0,
			"byteLength":1800,
			"byteOffset":25296,
			"target":34962
		},
		{
			"buffer":0,
			"byteLength":1200,
			"byteOffset":27096,
			"target":34962
		},
		{
			"buffer":0,
			"byteLength":1800,
			"byteOffset":28296,
			"target":34962
		},
		{
			"buffer":0,
			"byteLength":1800,
			"byteOffset":30096,
			"target":34962
		},
		{
			"buffer":0,
			"byteLength":1200,
			"byteOffset":31896,
			"target":34962
		},
		{
			"buffer":0,
			"byteLength":1272,
			"byteOffset":33096,
			"target":34962
		},
		{
			"buffer":0,
			"byteLength":1272,
			"byteOffset":34368,
			"target":34962
		},
		{
			"buffer":0,
			"byteLength":848,
			"byteOffset":35640,
			"target":34962
		},
		{
			"buffer":0,
			"byteLength":360,
			"byteOffset":36488,
			"target":34963
		},
		{
			"buffer":0,
			"byteLength":288,
			"byteOffset":36848,
			"target":34962
		},
		{
			"buffer":0,
			"byteLength":288,
			"byteOffset":37136,
			"target":34962
		},
		{
			"buffer":0,
			"byteLength":192,
			"byteOffset":37424,
			"target":34962
		},
		{
			"buffer":0,
			"byteLength":72,
			"byteOffset":37616,
			"target":34963
		},
		{
			"buffer":0,
			"byteLength":4500,
			"byteOffset":37688,
			"target":34962
		},
		{
			"buffer":0,
			"byteLength":4500,
			"byteOffset":42188,
			"target":34962
		},
		{
			"buffer":0,
			"byteLength":3000,
			"byteOffset":46688,
			"target":34962
		},
		{
			"buffer":0,
			"byteLength":1200,
			"byteOffset":49688,
			"target":34963
		},
		{
			"buffer":0,
			"byteLength":1536,
			"byteOffset":50888,
			"target":34962
		},
		{
			"buffer":0,
			"byteLength":1536,
			"byteOffset":52424,
			"target":34962
		},
		{
			"buffer":0,
			"byteLength":1024,
			"byteOffset":53960,
			"target":34962
		},
		{
			"buffer":0,
			"byteLength":384,
			"byteOffset":54984,
			"target":34963
		},
		{
			"buffer":0,
			"byteLength":1536,
			"byteOffset":55368,
			"target":34962
		},
		{
			"buffer":0,
			"byteLength":1536,
			"byteOffset":56904,
			"target":34962
		},
		{
			"buffer":0,
			"byteLength":1024,
			"byteOffset":58440,
			"target":34962
		},
		{
			"buffer":0,
			"byteLength":3048,
			"byteOffset":59464,
			"target":34962
		},
		{
			"buffer":0,
			"byteLength":3048,
			"byteOffset":62512,
			"target":34962
		},
		{
			"buffer":0,
			"byteLength":2032,
			"byteOffset":65560,
			"target":34962
		},
		{
			"buffer":0,
			"byteLength":744,
			"byteOffset":67592,
			"target":34963
		},
		{
			"buffer":0,
			"byteLength":3048,
			"byteOffset":68336,
			"target":34962
		},
		{
			"buffer":0,
			"byteLength":3048,
			"byteOffset":71384,
			"target":34962
		},
		{
			"buffer":0,
			"byteLength":2032,
			"byteOffset":74432,
			"target":34962
		},
		{
			"buffer":0,
			"byteLength":288,
			"byteOffset":76464,
			"target":34962
		},
		{
			"buffer":0,
			"byteLength":288,
			"byteOffset":76752,
			"target":34962
		},
		{
			"buffer":0,
			"byteLength":192,
			"byteOffset":77040,
			"target":34962
		},
		{
			"buffer":0,
			"byteLength":72,
			"byteOffset":77232,
			"target":34963
		},
		{
			"buffer":0,
			"byteLength":10320,
			"byteOffset":77304,
			"target":34962
		},
		{
			"buffer":0,
			"byteLength":10320,
			"byteOffset":87624,
			"target":34962
		},
		{
			"buffer":0,
			"byteLength":6880,
			"byteOffset":97944,
			"target":34962
		},
		{
			"buffer":0,
			"byteLength":3120,
			"byteOffset":104824,
			"target":34963
		},
		{
			"buffer":0,
			"byteLength":33408,
			"byteOffset":107944,
			"target":34962
		},
		{
			"buffer":0,
			"byteLength":33408,
			"byteOffset":141352,
			"target":34962
		},
		{
			"buffer":0,
			"byteLength":22272,
			"byteOffset":174760,
			"target":34962
		},
		{
			"buffer":0,
			"byteLength":5568,
			"byteOffset":197032,
			"target":34963
		},
		{
			"buffer":0,
			"byteLength":1380,
			"byteOffset":202600,
			"target":34962
		},
		{
			"buffer":0,
			"byteLength":1380,
			"byteOffset":203980,
			"target":34962
		},
		{
			"buffer":0,
			"byteLength":920,
			"byteOffset":205360,
			"target":34962
		},
		{
			"buffer":0,
			"byteLength":396,
			"byteOffset":206280,
			"target":34963
		},
		{
			"buffer":0,
			"byteLength":1380,
			"byteOffset":206676,
			"target":34962
		},
		{
			"buffer":0,
			"byteLength":1380,
			"byteOffset":208056,
			"target":34962
		},
		{
			"buffer":0,
			"byteLength":920,
			"byteOffset":209436,
			"target":34962
		},
		{
			"buffer":0,
			"byteLength":1380,
			"byteOffset":210356,
			"target":34962
		},
		{
			"buffer":0,
			"byteLength":1380,
			"byteOffset":211736,
			"target":34962
		},
		{
			"buffer":0,
			"byteLength":920,
			"byteOffset":213116,
			"target":34962
		},
		{
			"buffer":0,
			"byteLength":1380,
			"byteOffset":214036,
			"target":34962
		},
		{
			"buffer":0,
			"byteLength":1380,
			"byteOffset":215416,
			"target":34962
		},
		{
			"buffer":0,
			"byteLength":920,
			"byteOffset":216796,
			"target":34962
		},
		{
			"buffer":0,
			"byteLength":600,
			"byteOffset":217716,
			"target":34962
		},
		{
			"buffer":0,
			"byteLength":600,
			"byteOffset":218316,
			"target":34962
		},
		{
			"buffer":0,
			"byteLength":400,
			"byteOffset":218916,
			"target":34962
		},
		{
			"buffer":0,
			"byteLength":192,
			"byteOffset":219316,
			"target":34963
		},
		{
			"buffer":0,
			"byteLength":600,
			"byteOffset":219508,
			"target":34962
		},
		{
			"buffer":0,
			"byteLength":600,
			"byteOffset":220108,
			"target":34962
		},
		{
			"buffer":0,
			"byteLength":400,
			"byteOffset":220708,
			"target":34962
		},
		{
			"buffer":0,
			"byteLength":600,
			"byteOffset":221108,
			"target":34962
		},
		{
			"buffer":0,
			"byteLength":600,
			"byteOffset":221708,
			"target":34962
		},
		{
			"buffer":0,
			"byteLength":400,
			"byteOffset":222308,
			"target":34962
		},
		{
			"buffer":0,
			"byteLength":744,
			"byteOffset":222708,
			"target":34962
		},
		{
			"buffer":0,
			"byteLength":744,
			"byteOffset":223452,
			"target":34962
		},
		{
			"buffer":0,
			"byteLength":496,
			"byteOffset":224196,
			"target":34962
		},
		{
			"buffer":0,
			"byteLength":216,
			"byteOffset":224692,
			"target":34963
		},
		{
			"buffer":0,
			"byteLength":6120,
			"byteOffset":224908,
			"target":34962
		},
		{
			"buffer":0,
			"byteLength":6120,
			"byteOffset":231028,
			"target":34962
		},
		{
			"buffer":0,
			"byteLength":4080,
			"byteOffset":237148,
			"target":34962
		},
		{
			"buffer":0,
			"byteLength":4080,
			"byteOffset":241228,
			"target":34962
		},
		{
			"buffer":0,
			"byteLength":1872,
			"byteOffset":245308,
			"target":34963
		},
		{
			"buffer":0,
			"byteLength":1008,
			"byteOffset":247180,
			"target":34962
		},
		{
			"buffer":0,
			"byteLength":1008,
			"byteOffset":248188,
			"target":34962
		},
		{
			"buffer":0,
			"byteLength":672,
			"byteOffset":249196,
			"target":34962
		},
		{
			"buffer":0,
			"byteLength":672,
			"byteOffset":249868,
			"target":34962
		},
		{
			"buffer":0,
			"byteLength":288,
			"byteOffset":250540,
			"target":34963
		},
		{
			"buffer":0,
			"byteLength":1380,
			"byteOffset":250828,
			"target":34962
		},
		{
			"buffer":0,
			"byteLength":1380,
			"byteOffset":252208,
			"target":34962
		},
		{
			"buffer":0,
			"byteLength":920,
			"byteOffset":253588,
			"target":34962
		},
		{
			"buffer":0,
			"byteLength":1380,
			"byteOffset":254508,
			"target":34962
		},
		{
			"buffer":0,
			"byteLength":1380,
			"byteOffset":255888,
			"target":34962
		},
		{
			"buffer":0,
			"byteLength":920,
			"byteOffset":257268,
			"target":34962
		},
		{
			"buffer":0,
			"byteLength":1380,
			"byteOffset":258188,
			"target":34962
		},
		{
			"buffer":0,
			"byteLength":1380,
			"byteOffset":259568,
			"target":34962
		},
		{
			"buffer":0,
			"byteLength":920,
			"byteOffset":260948,
			"target":34962
		},
		{
			"buffer":0,
			"byteLength":1380,
			"byteOffset":261868,
			"target":34962
		},
		{
			"buffer":0,
			"byteLength":1380,
			"byteOffset":263248,
			"target":34962
		},
		{
			"buffer":0,
			"byteLength":920,
			"byteOffset":264628,
			"target":34962
		},
		{
			"buffer":0,
			"byteLength":600,
			"byteOffset":265548,
			"target":34962
		},
		{
			"buffer":0,
			"byteLength":600,
			"byteOffset":266148,
			"target":34962
		},
		{
			"buffer":0,
			"byteLength":400,
			"byteOffset":266748,
			"target":34962
		},
		{
			"buffer":0,
			"byteLength":600,
			"byteOffset":267148,
			"target":34962
		},
		{
			"buffer":0,
			"byteLength":600,
			"byteOffset":267748,
			"target":34962
		},
		{
			"buffer":0,
			"byteLength":400,
			"byteOffset":268348,
			"target":34962
		},
		{
			"buffer":0,
			"byteLength":600,
			"byteOffset":268748,
			"target":34962
		},
		{
			"buffer":0,
			"byteLength":600,
			"byteOffset":269348,
			"target":34962
		},
		{
			"buffer":0,
			"byteLength":400,
			"byteOffset":269948,
			"target":34962
		},
		{
			"buffer":0,
			"byteLength":744,
			"byteOffset":270348,
			"target":34962
		},
		{
			"buffer":0,
			"byteLength":744,
			"byteOffset":271092,
			"target":34962
		},
		{
			"buffer":0,
			"byteLength":496,
			"byteOffset":271836,
			"target":34962
		},
		{
			"buffer":0,
			"byteLength":7128,
			"byteOffset":272332,
			"target":34962
		},
		{
			"buffer":0,
			"byteLength":7128,
			"byteOffset":279460,
			"target":34962
		},
		{
			"buffer":0,
			"byteLength":4752,
			"byteOffset":286588,
			"target":34962
		},
		{
			"buffer":0,
			"byteLength":4752,
			"byteOffset":291340,
			"target":34962
		},
		{
			"buffer":0,
			"byteLength":2160,
			"byteOffset":296092,
			"target":34963
		},
		{
			"buffer":0,
			"byteLength":11988,
			"byteOffset":298252,
			"target":34962
		},
		{
			"buffer":0,
			"byteLength":11988,
			"byteOffset":310240,
			"target":34962
		},
		{
			"buffer":0,
			"byteLength":7992,
			"byteOffset":322228,
			"target":34962
		},
		{
			"buffer":0,
			"byteLength":4800,
			"byteOffset":330220,
			"target":34963
		},
		{
			"buffer":0,
			"byteLength":11988,
			"byteOffset":335020,
			"target":34962
		},
		{
			"buffer":0,
			"byteLength":11988,
			"byteOffset":347008,
			"target":34962
		},
		{
			"buffer":0,
			"byteLength":7992,
			"byteOffset":358996,
			"target":34962
		},
		{
			"buffer":0,
			"byteLength":288,
			"byteOffset":366988,
			"target":34962
		},
		{
			"buffer":0,
			"byteLength":288,
			"byteOffset":367276,
			"target":34962
		},
		{
			"buffer":0,
			"byteLength":192,
			"byteOffset":367564,
			"target":34962
		},
		{
			"buffer":0,
			"byteLength":72,
			"byteOffset":367756,
			"target":34963
		},
		{
			"buffer":0,
			"byteLength":288,
			"byteOffset":367828,
			"target":34962
		},
		{
			"buffer":0,
			"byteLength":288,
			"byteOffset":368116,
			"target":34962
		},
		{
			"buffer":0,
			"byteLength":192,
			"byteOffset":368404,
			"target":34962
		}
	],
	"buffers":[
		{
			"byteLength":368596,
			"uri":"starter-signal.bin"
		}
	]
}
