{
	"asset":{
		"generator":"Khronos glTF Blender I/O v4.2.60",
		"version":"2.0"
	},
	"scene":0,
	"scenes":[
		{
			"name":"Scene",
			"nodes":[
				0
			]
		}
	],
	"nodes":[
		{
			"mesh":0,
			"name":"Cube.001"
		}
	],
	"materials":[
		{
			"doubleSided":true,
			"name":"Material.004",
			"pbrMetallicRoughness":{
				"baseColorFactor":[
					0.06700964272022247,
					0.06700964272022247,
					0.06700964272022247,
					1
				],
				"metallicFactor":0
			}
		},
		{
			"doubleSided":true,
			"name":"Material.001",
			"pbrMetallicRoughness":{
				"baseColorFactor":[
					0.13485895097255707,
					0.13485895097255707,
					0.13485895097255707,
					1
				],
				"metallicFactor":0
			}
		},
		{
			"doubleSided":true,
			"name":"Material.002",
			"pbrMetallicRoughness":{
				"baseColorFactor":[
					0.058014146983623505,
					0.058014146983623505,
					0.058014146983623505,
					1
				],
				"metallicFactor":0.34545454382896423,
				"roughnessFactor":0.8772727251052856
			}
		},
		{
			"doubleSided":true,
			"name":"Material.003",
			"pbrMetallicRoughness":{
				"baseColorFactor":[
					0,
					0,
					0,
					1
				],
				"metallicFactor":0,
				"roughnessFactor":0.5
			}
		}
	],
	"meshes":[
		{
			"name":"Cube.010",
			"primitives":[
				{
					"attributes":{
						"POSITION":0,
						"NORMAL":1,
						"TEXCOORD_0":2
					},
					"indices":3,
					"material":0
				},
				{
					"attributes":{
						"POSITION":4,
						"NORMAL":5,
						"TEXCOORD_0":6
					},
					"indices":7,
					"material":1
				},
				{
					"attributes":{
						"POSITION":8,
						"NORMAL":9,
						"TEXCOORD_0":10
					},
					"indices":11,
					"material":2
				},
				{
					"attributes":{
						"POSITION":12,
						"NORMAL":13,
						"TEXCOORD_0":14
					},
					"indices":15,
					"material":3
				}
			]
		}
	],
	"accessors":[
		{
			"bufferView":0,
			"componentType":5126,
			"count":24,
			"max":[
				0.40467414259910583,
				0.3221774101257324,
				-0.8557316064834595
			],
			"min":[
				0.08467414230108261,
				0.002177369548007846,
				-1.1757316589355469
			],
			"type":"VEC3"
		},
		{
			"bufferView":1,
			"componentType":5126,
			"count":24,
			"type":"VEC3"
		},
		{
			"bufferView":2,
			"componentType":5126,
			"count":24,
			"type":"VEC2"
		},
		{
			"bufferView":3,
			"componentType":5123,
			"count":36,
			"type":"SCALAR"
		},
		{
			"bufferView":4,
			"componentType":5126,
			"count":1077,
			"max":[
				0.39091283082962036,
				2.452361822128296,
				0.08090009540319443
			],
			"min":[
				0.10943855345249176,
				0.20177483558654785,
				-1.0583018064498901
			],
			"type":"VEC3"
		},
		{
			"bufferView":5,
			"componentType":5126,
			"count":1077,
			"type":"VEC3"
		},
		{
			"bufferView":6,
			"componentType":5126,
			"count":1077,
			"type":"VEC2"
		},
		{
			"bufferView":7,
			"componentType":5123,
			"count":1812,
			"type":"SCALAR"
		},
		{
			"bufferView":8,
			"componentType":5126,
			"count":4577,
			"max":[
				0.42529821395874023,
				2.267087697982788,
				-0.35804349184036255
			],
			"min":[
				0.08263732492923737,
				1.5405452251434326,
				-1.063664436340332
			],
			"type":"VEC3"
		},
		{
			"bufferView":9,
			"componentType":5126,
			"count":4577,
			"type":"VEC3"
		},
		{
			"bufferView":10,
			"componentType":5126,
			"count":4577,
			"type":"VEC2"
		},
		{
			"bufferView":11,
			"componentType":5123,
			"count":5736,
			"type":"SCALAR"
		},
		{
			"bufferView":12,
			"componentType":5126,
			"count":15345,
			"max":[
				0.40768179297447205,
				2.265615224838257,
				0.0008738517644815147
			],
			"min":[
				0.09059473127126694,
				1.8113101720809937,
				-0.5627331137657166
			],
			"type":"VEC3"
		},
		{
			"bufferView":13,
			"componentType":5126,
			"count":15345,
			"type":"VEC3"
		},
		{
			"bufferView":14,
			"componentType":5126,
			"count":15345,
			"type":"VEC2"
		},
		{
			"bufferView":15,
			"componentType":5123,
			"count":18648,
			"type":"SCALAR"
		}
	],
	"bufferViews":[
		{
			"buffer":0,
			"byteLength":288,
			"byteOffset":0,
			"target":34962
		},
		{
			"buffer":0,
			"byteLength":288,
			"byteOffset":288,
			"target":34962
		},
		{
			"buffer":0,
			"byteLength":192,
			"byteOffset":576,
			"target":34962
		},
		{
			"buffer":0,
			"byteLength":72,
			"byteOffset":768,
			"target":34963
		},
		{
			"buffer":0,
			"byteLength":12924,
			"byteOffset":840,
			"target":34962
		},
		{
			"buffer":0,
			"byteLength":12924,
			"byteOffset":13764,
			"target":34962
		},
		{
			"buffer":0,
			"byteLength":8616,
			"byteOffset":26688,
			"target":34962
		},
		{
			"buffer":0,
			"byteLength":3624,
			"byteOffset":35304,
			"target":34963
		},
		{
			"buffer":0,
			"byteLength":54924,
			"byteOffset":38928,
			"target":34962
		},
		{
			"buffer":0,
			"byteLength":54924,
			"byteOffset":93852,
			"target":34962
		},
		{
			"buffer":0,
			"byteLength":36616,
			"byteOffset":148776,
			"target":34962
		},
		{
			"buffer":0,
			"byteLength":11472,
			"byteOffset":185392,
			"target":34963
		},
		{
			"buffer":0,
			"byteLength":184140,
			"byteOffset":196864,
			"target":34962
		},
		{
			"buffer":0,
			"byteLength":184140,
			"byteOffset":381004,
			"target":34962
		},
		{
			"buffer":0,
			"byteLength":122760,
			"byteOffset":565144,
			"target":34962
		},
		{
			"buffer":0,
			"byteLength":37296,
			"byteOffset":687904,
			"target":34963
		}
	],
	"buffers":[
		{
			"byteLength":725200,
			"uri":"electric-pole.bin"
		}
	]
}
