{
	"asset":{
		"generator":"Khronos glTF Blender I/O v4.2.60",
		"version":"2.0"
	},
	"extensionsUsed":[
		"KHR_materials_specular",
		"KHR_materials_ior"
	],
	"scene":0,
	"scenes":[
		{
			"name":"Scene",
			"nodes":[
				2
			]
		}
	],
	"nodes":[
		{
			"mesh":0,
			"name":"Object_2"
		},
		{
			"children":[
				0
			],
			"name":"irugur station.obj.cleaner.materialmerger.gles",
			"rotation":[
				-0.7071070075035095,
				0,
				0,
				0.7071065902709961
			],
			"scale":[
				0.8999999761581421,
				0.8999999165534973,
				0.8999999165534973
			],
			"translation":[
				-22.04111671447754,
				0,
				-1.0971795320510864
			]
		},
		{
			"children":[
				1
			],
			"name":"Sketchfab_model"
		}
	],
	"materials":[
		{
			"doubleSided":true,
			"extensions":{
				"KHR_materials_specular":{
					"specularTexture":{
						"index":0
					},
					"specularColorFactor":[
						0,
						0,
						0
					],
					"specularColorTexture":{
						"index":1
					}
				},
				"KHR_materials_ior":{
					"ior":1000
				}
			},
			"name":"Material.001",
			"pbrMetallicRoughness":{
				"baseColorTexture":{
					"index":2
				},
				"metallicFactor":0,
				"roughnessFactor":0.75
			}
		}
	],
	"meshes":[
		{
			"name":"Object_0",
			"primitives":[
				{
					"attributes":{
						"POSITION":0,
						"NORMAL":1,
						"TEXCOORD_0":2
					},
					"indices":3,
					"material":0
				}
			]
		}
	],
	"textures":[
		{
			"sampler":0,
			"source":0
		},
		{
			"sampler":0,
			"source":0
		},
		{
			"sampler":0,
			"source":0
		}
	],
	"images":[
		{
			"mimeType":"image/png",
			"name":"Image_1",
			"uri":"Image_1.png"
		}
	],
	"accessors":[
		{
			"bufferView":0,
			"componentType":5126,
			"count":7067,
			"max":[
				45.54941940307617,
				0.09624052047729492,
				1.678064227104187
			],
			"min":[
				2.8210320472717285,
				-2.638993501663208,
				-0.5297518968582153
			],
			"type":"VEC3"
		},
		{
			"bufferView":1,
			"componentType":5126,
			"count":7067,
			"type":"VEC3"
		},
		{
			"bufferView":2,
			"componentType":5126,
			"count":7067,
			"type":"VEC2"
		},
		{
			"bufferView":3,
			"componentType":5123,
			"count":12954,
			"type":"SCALAR"
		}
	],
	"bufferViews":[
		{
			"buffer":0,
			"byteLength":84804,
			"byteOffset":0,
			"target":34962
		},
		{
			"buffer":0,
			"byteLength":84804,
			"byteOffset":84804,
			"target":34962
		},
		{
			"buffer":0,
			"byteLength":56536,
			"byteOffset":169608,
			"target":34962
		},
		{
			"buffer":0,
			"byteLength":25908,
			"byteOffset":226144,
			"target":34963
		}
	],
	"samplers":[
		{
			"magFilter":9729,
			"minFilter":9987
		}
	],
	"buffers":[
		{
			"byteLength":252052,
			"uri":"station.bin"
		}
	]
}
