{
	"asset":{
		"generator":"Khronos glTF Blender I/O v4.2.60",
		"version":"2.0"
	},
	"scene":0,
	"scenes":[
		{
			"name":"Scene",
			"nodes":[
				9
			]
		}
	],
	"nodes":[
		{
			"mesh":0,
			"name":"signal18_arrowmonetex_0",
			"rotation":[
				-0.6583942770957947,
				-0.25790858268737793,
				-0.257908433675766,
				0.6583945751190186
			],
			"scale":[
				10.000001907348633,
				10.000004768371582,
				10.00000286102295
			]
		},
		{
			"mesh":1,
			"name":"signal18_blackmonetex_0",
			"rotation":[
				-0.6583942770957947,
				-0.25790858268737793,
				-0.257908433675766,
				0.6583945751190186
			],
			"scale":[
				10.000001907348633,
				10.000004768371582,
				10.00000286102295
			]
		},
		{
			"mesh":2,
			"name":"signal18_lensesmonetex_0",
			"rotation":[
				-0.6583942770957947,
				-0.25790858268737793,
				-0.257908433675766,
				0.6583945751190186
			],
			"scale":[
				10.000001907348633,
				10.000004768371582,
				10.00000286102295
			]
		},
		{
			"mesh":3,
			"name":"signal18_sh16monetex_0",
			"rotation":[
				-0.6583942770957947,
				-0.25790858268737793,
				-0.257908433675766,
				0.6583945751190186
			],
			"scale":[
				10.000001907348633,
				10.000004768371582,
				10.00000286102295
			]
		},
		{
			"mesh":4,
			"name":"signal18_whitemonetex_0",
			"rotation":[
				-0.6583942770957947,
				-0.25790858268737793,
				-0.257908433675766,
				0.6583945751190186
			],
			"scale":[
				10.000001907348633,
				10.000004768371582,
				10.00000286102295
			]
		},
		{
			"children":[
				0,
				1,
				2,
				3,
				4
			],
			"name":"signal18"
		},
		{
			"children":[
				5
			],
			"name":"RootNode"
		},
		{
			"children":[
				6
			],
			"name":"untitledfbx",
			"rotation":[
				0.70710688829422,
				0,
				0,
				0.7071066498756409
			],
			"scale":[
				0.009999998845160007,
				0.010000000707805157,
				0.009999999776482582
			]
		},
		{
			"children":[
				7
			],
			"name":"Sketchfab_model",
			"rotation":[
				-0.70710688829422,
				0,
				0,
				0.7071066498756409
			]
		},
		{
			"children":[
				8
			],
			"name":"Sketchfab_Scene",
			"rotation":[
				0,
				0.9143369197845459,
				0,
				0.40495431423187256
			],
			"translation":[
				0,
				0.055117856711149216,
				0
			]
		}
	],
	"materials":[
		{
			"doubleSided":true,
			"name":"arrow.m.onetex",
			"pbrMetallicRoughness":{
				"baseColorFactor":[
					0,
					0,
					0,
					1
				],
				"metallicFactor":0.5219751596450806,
				"roughnessFactor":0.840945839881897
			}
		},
		{
			"doubleSided":true,
			"name":"black.m.onetex",
			"pbrMetallicRoughness":{
				"baseColorFactor":[
					0,
					0,
					0,
					1
				],
				"metallicFactor":0,
				"roughnessFactor":0.840945839881897
			}
		},
		{
			"doubleSided":true,
			"name":"lenses.m.onetex",
			"pbrMetallicRoughness":{
				"baseColorFactor":[
					0.019382361322641373,
					0.019382361322641373,
					0.019382361322641373,
					1
				],
				"metallicFactor":0,
				"roughnessFactor":0.840945839881897
			}
		},
		{
			"doubleSided":true,
			"name":"sh16.m.onetex",
			"pbrMetallicRoughness":{
				"baseColorFactor":[
					0,
					0,
					0,
					1
				],
				"metallicFactor":0,
				"roughnessFactor":0.840945839881897
			}
		},
		{
			"doubleSided":true,
			"name":"white.m.onetex",
			"pbrMetallicRoughness":{
				"baseColorFactor":[
					0,
					0,
					0,
					1
				],
				"metallicFactor":0,
				"roughnessFactor":0.840945839881897
			}
		}
	],
	"meshes":[
		{
			"name":"Mesh_3",
			"primitives":[
				{
					"attributes":{
						"POSITION":0,
						"NORMAL":1,
						"TEXCOORD_0":2
					},
					"indices":3,
					"material":0
				}
			]
		},
		{
			"name":"Mesh_2",
			"primitives":[
				{
					"attributes":{
						"POSITION":4,
						"NORMAL":5,
						"TEXCOORD_0":6
					},
					"indices":7,
					"material":1
				}
			]
		},
		{
			"name":"Mesh_1",
			"primitives":[
				{
					"attributes":{
						"POSITION":8,
						"NORMAL":9,
						"TEXCOORD_0":10
					},
					"indices":11,
					"material":2
				}
			]
		},
		{
			"name":"Mesh_4",
			"primitives":[
				{
					"attributes":{
						"POSITION":12,
						"NORMAL":13,
						"TEXCOORD_0":14
					},
					"indices":3,
					"material":3
				}
			]
		},
		{
			"name":"Mesh_0",
			"primitives":[
				{
					"attributes":{
						"POSITION":15,
						"NORMAL":16,
						"TEXCOORD_0":17
					},
					"indices":18,
					"material":4
				}
			]
		}
	],
	"accessors":[
		{
			"bufferView":0,
			"componentType":5126,
			"count":4,
			"max":[
				0.12334399670362473,
				-0.3766700029373169,
				2.6747400760650635
			],
			"min":[
				-0.12334399670362473,
				-0.3766700029373169,
				2.563206911087036
			],
			"type":"VEC3"
		},
		{
			"bufferView":1,
			"componentType":5126,
			"count":4,
			"type":"VEC3"
		},
		{
			"bufferView":2,
			"componentType":5126,
			"count":4,
			"type":"VEC2"
		},
		{
			"bufferView":3,
			"componentType":5123,
			"count":6,
			"type":"SCALAR"
		},
		{
			"bufferView":4,
			"componentType":5126,
			"count":25899,
			"max":[
				0.3908270001411438,
				0.9714990258216858,
				5.251585006713867
			],
			"min":[
				-0.3908270001411438,
				-0.8015949726104736,
				-1.308948040008545
			],
			"type":"VEC3"
		},
		{
			"bufferView":5,
			"componentType":5126,
			"count":25899,
			"type":"VEC3"
		},
		{
			"bufferView":6,
			"componentType":5126,
			"count":25899,
			"type":"VEC2"
		},
		{
			"bufferView":7,
			"componentType":5123,
			"count":34704,
			"type":"SCALAR"
		},
		{
			"bufferView":8,
			"componentType":5126,
			"count":48,
			"max":[
				0.06996899843215942,
				-0.4881739914417267,
				3.9217300415039062
			],
			"min":[
				-0.06996999680995941,
				-0.4924750030040741,
				3.5081470012664795
			],
			"type":"VEC3"
		},
		{
			"bufferView":9,
			"componentType":5126,
			"count":48,
			"type":"VEC3"
		},
		{
			"bufferView":10,
			"componentType":5126,
			"count":48,
			"type":"VEC2"
		},
		{
			"bufferView":11,
			"componentType":5123,
			"count":72,
			"type":"SCALAR"
		},
		{
			"bufferView":12,
			"componentType":5126,
			"count":4,
			"max":[
				0.11893299967050552,
				-0.344866007566452,
				2.1614949703216553
			],
			"min":[
				-0.11893299967050552,
				-0.344866007566452,
				2.0351450443267822
			],
			"type":"VEC3"
		},
		{
			"bufferView":13,
			"componentType":5126,
			"count":4,
			"type":"VEC3"
		},
		{
			"bufferView":14,
			"componentType":5126,
			"count":4,
			"type":"VEC2"
		},
		{
			"bufferView":15,
			"componentType":5126,
			"count":619,
			"max":[
				0.5785160064697266,
				0.614093005657196,
				4.351809978485107
			],
			"min":[
				-0.5785160064697266,
				-0.614093005657196,
				-0.5377619862556458
			],
			"type":"VEC3"
		},
		{
			"bufferView":16,
			"componentType":5126,
			"count":619,
			"type":"VEC3"
		},
		{
			"bufferView":17,
			"componentType":5126,
			"count":619,
			"type":"VEC2"
		},
		{
			"bufferView":18,
			"componentType":5123,
			"count":852,
			"type":"SCALAR"
		}
	],
	"bufferViews":[
		{
			"buffer":0,
			"byteLength":48,
			"byteOffset":0,
			"target":34962
		},
		{
			"buffer":0,
			"byteLength":48,
			"byteOffset":48,
			"target":34962
		},
		{
			"buffer":0,
			"byteLength":32,
			"byteOffset":96,
			"target":34962
		},
		{
			"buffer":0,
			"byteLength":12,
			"byteOffset":128,
			"target":34963
		},
		{
			"buffer":0,
			"byteLength":310788,
			"byteOffset":140,
			"target":34962
		},
		{
			"buffer":0,
			"byteLength":310788,
			"byteOffset":310928,
			"target":34962
		},
		{
			"buffer":0,
			"byteLength":207192,
			"byteOffset":621716,
			"target":34962
		},
		{
			"buffer":0,
			"byteLength":69408,
			"byteOffset":828908,
			"target":34963
		},
		{
			"buffer":0,
			"byteLength":576,
			"byteOffset":898316,
			"target":34962
		},
		{
			"buffer":0,
			"byteLength":576,
			"byteOffset":898892,
			"target":34962
		},
		{
			"buffer":0,
			"byteLength":384,
			"byteOffset":899468,
			"target":34962
		},
		{
			"buffer":0,
			"byteLength":144,
			"byteOffset":899852,
			"target":34963
		},
		{
			"buffer":0,
			"byteLength":48,
			"byteOffset":899996,
			"target":34962
		},
		{
			"buffer":0,
			"byteLength":48,
			"byteOffset":900044,
			"target":34962
		},
		{
			"buffer":0,
			"byteLength":32,
			"byteOffset":900092,
			"target":34962
		},
		{
			"buffer":0,
			"byteLength":7428,
			"byteOffset":900124,
			"target":34962
		},
		{
			"buffer":0,
			"byteLength":7428,
			"byteOffset":907552,
			"target":34962
		},
		{
			"buffer":0,
			"byteLength":4952,
			"byteOffset":914980,
			"target":34962
		},
		{
			"buffer":0,
			"byteLength":1704,
			"byteOffset":919932,
			"target":34963
		}
	],
	"buffers":[
		{
			"byteLength":921636,
			"uri":"signal.bin"
		}
	]
}
