{
	"asset":{
		"generator":"Khronos glTF Blender I/O v4.2.60",
		"version":"2.0"
	},
	"scene":0,
	"scenes":[
		{
			"name":"Scene",
			"nodes":[
				21
			]
		}
	],
	"nodes":[
		{
			"mesh":0,
			"name":"Object_4"
		},
		{
			"mesh":1,
			"name":"Object_5"
		},
		{
			"mesh":2,
			"name":"Object_6"
		},
		{
			"mesh":3,
			"name":"Object_7"
		},
		{
			"children":[
				0,
				1,
				2,
				3
			],
			"name":"Body_0",
			"scale":[
				315.31744384765625,
				315.3174133300781,
				315.3174133300781
			],
			"translation":[
				0.31226059794425964,
				42.258419036865234,
				0.20489707589149475
			]
		},
		{
			"mesh":4,
			"name":"Object_20"
		},
		{
			"mesh":5,
			"name":"Object_21"
		},
		{
			"children":[
				5,
				6
			],
			"name":"Bogie1_6",
			"scale":[
				51.570823669433594,
				51.57081985473633,
				51.57081985473633
			],
			"translation":[
				-0.7841286659240723,
				-29.130155563354492,
				-460.0038757324219
			]
		},
		{
			"mesh":6,
			"name":"Object_17"
		},
		{
			"mesh":7,
			"name":"Object_18"
		},
		{
			"children":[
				8,
				9
			],
			"name":"Bogie2_5",
			"scale":[
				51.570823669433594,
				51.57081985473633,
				51.57081985473633
			],
			"translation":[
				-0.7841286659240723,
				-29.130157470703125,
				458.9748840332031
			]
		},
		{
			"mesh":8,
			"name":"Object_9"
		},
		{
			"children":[
				11
			],
			"name":"rod1_1",
			"scale":[
				315.31744384765625,
				315.3174133300781,
				315.3174133300781
			],
			"translation":[
				0.31226059794425964,
				42.258419036865234,
				0.20489707589149475
			]
		},
		{
			"mesh":9,
			"name":"Object_11"
		},
		{
			"children":[
				13
			],
			"name":"rod2_2",
			"scale":[
				315.31744384765625,
				315.3174133300781,
				315.3174133300781
			],
			"translation":[
				0.31226059794425964,
				42.258419036865234,
				0.20489707589149475
			]
		},
		{
			"mesh":10,
			"name":"Object_13"
		},
		{
			"children":[
				15
			],
			"name":"SidePipe_3",
			"scale":[
				315.31744384765625,
				315.3174133300781,
				315.3174133300781
			],
			"translation":[
				0.31226059794425964,
				42.258419036865234,
				0.20489707589149475
			]
		},
		{
			"mesh":11,
			"name":"Object_15"
		},
		{
			"children":[
				17
			],
			"name":"UpperPipe_4",
			"rotation":[
				0,
				0,
				-0.7071068286895752,
				0.7071067094802856
			],
			"scale":[
				315.31744384765625,
				315.3174743652344,
				315.3174133300781
			],
			"translation":[
				0.31226059794425964,
				42.258419036865234,
				0.20489707589149475
			]
		},
		{
			"children":[
				4,
				7,
				10,
				12,
				14,
				16,
				18
			],
			"name":"GLTF_SceneRootNode",
			"rotation":[
				0.70710688829422,
				0,
				0,
				0.7071066498756409
			]
		},
		{
			"children":[
				19
			],
			"name":"root"
		},
		{
			"children":[
				20
			],
			"name":"Sketchfab_model",
			"rotation":[
				-0.5,
				-0.5,
				-0.5,
				0.5
			],
			"scale":[
				0.019287550821900368,
				0.019287550821900368,
				0.019287550821900368
			]
		}
	],
	"materials":[
		{
			"doubleSided":true,
			"name":"base.001",
			"pbrMetallicRoughness":{
				"baseColorFactor":[
					0,
					0,
					0,
					1
				],
				"metallicFactor":0,
				"roughnessFactor":0.5
			}
		},
		{
			"doubleSided":true,
			"name":"white",
			"pbrMetallicRoughness":{
				"baseColorFactor":[
					0.800000011920929,
					0.800000011920929,
					0.800000011920929,
					1
				],
				"roughnessFactor":0.7962960004806519
			}
		},
		{
			"doubleSided":true,
			"name":"material",
			"pbrMetallicRoughness":{
				"baseColorFactor":[
					0.800000011920929,
					0.021453499794006348,
					0.05303629860281944,
					1
				],
				"metallicFactor":0,
				"roughnessFactor":0.5
			}
		},
		{
			"doubleSided":true,
			"name":"yellow",
			"pbrMetallicRoughness":{
				"baseColorFactor":[
					0.800000011920929,
					0.7799599766731262,
					0.026713600382208824,
					1
				],
				"metallicFactor":0,
				"roughnessFactor":0.5
			}
		},
		{
			"doubleSided":true,
			"name":"Material.001",
			"pbrMetallicRoughness":{
				"baseColorFactor":[
					0.2862737774848938,
					0.2862737774848938,
					0.2862737774848938,
					1
				],
				"metallicFactor":0,
				"roughnessFactor":0.5
			}
		},
		{
			"doubleSided":true,
			"name":"wheel.001",
			"pbrMetallicRoughness":{
				"baseColorFactor":[
					0.18781700730323792,
					0.16978299617767334,
					0.18033599853515625,
					1
				],
				"metallicFactor":0,
				"roughnessFactor":0.5
			}
		},
		{
			"doubleSided":true,
			"name":"Material.1106",
			"pbrMetallicRoughness":{
				"baseColorFactor":[
					0.30776500701904297,
					0.2915560007095337,
					0.3172929883003235,
					1
				],
				"metallicFactor":0,
				"roughnessFactor":0.5
			}
		},
		{
			"doubleSided":true,
			"name":"wheel.025",
			"pbrMetallicRoughness":{
				"baseColorFactor":[
					0.18781700730323792,
					0.16978299617767334,
					0.18033599853515625,
					1
				],
				"metallicFactor":0,
				"roughnessFactor":0.5
			}
		},
		{
			"doubleSided":true,
			"name":"yelllow",
			"pbrMetallicRoughness":{
				"baseColorFactor":[
					0.800000011920929,
					0.6661530137062073,
					0.0061338599771261215,
					1
				],
				"metallicFactor":0,
				"roughnessFactor":0.5
			}
		},
		{
			"doubleSided":true,
			"name":"yelllow.002",
			"pbrMetallicRoughness":{
				"baseColorFactor":[
					0.800000011920929,
					0.6661530137062073,
					0.0061338599771261215,
					1
				],
				"metallicFactor":0,
				"roughnessFactor":0.5
			}
		},
		{
			"doubleSided":true,
			"name":"base.002",
			"pbrMetallicRoughness":{
				"baseColorFactor":[
					0,
					0,
					0,
					1
				],
				"metallicFactor":0,
				"roughnessFactor":0.5
			}
		},
		{
			"doubleSided":true,
			"name":"base",
			"pbrMetallicRoughness":{
				"baseColorFactor":[
					0,
					0,
					0,
					1
				],
				"metallicFactor":0,
				"roughnessFactor":0.5
			}
		}
	],
	"meshes":[
		{
			"name":"Object_0",
			"primitives":[
				{
					"attributes":{
						"POSITION":0,
						"NORMAL":1,
						"TEXCOORD_0":2
					},
					"indices":3,
					"material":0
				}
			]
		},
		{
			"name":"Object_1",
			"primitives":[
				{
					"attributes":{
						"POSITION":4,
						"NORMAL":5,
						"TEXCOORD_0":6
					},
					"indices":7,
					"material":1
				}
			]
		},
		{
			"name":"Object_2",
			"primitives":[
				{
					"attributes":{
						"POSITION":8,
						"NORMAL":9,
						"TEXCOORD_0":10
					},
					"indices":11,
					"material":2
				}
			]
		},
		{
			"name":"Object_3",
			"primitives":[
				{
					"attributes":{
						"POSITION":12,
						"NORMAL":13,
						"TEXCOORD_0":14
					},
					"indices":15,
					"material":3
				}
			]
		},
		{
			"name":"Object_10",
			"primitives":[
				{
					"attributes":{
						"POSITION":16,
						"NORMAL":17,
						"TEXCOORD_0":18
					},
					"indices":19,
					"material":4
				}
			]
		},
		{
			"name":"Object_11",
			"primitives":[
				{
					"attributes":{
						"POSITION":20,
						"NORMAL":21,
						"TEXCOORD_0":22
					},
					"indices":23,
					"material":5
				}
			]
		},
		{
			"name":"Object_8",
			"primitives":[
				{
					"attributes":{
						"POSITION":24,
						"NORMAL":25,
						"TEXCOORD_0":26
					},
					"indices":19,
					"material":6
				}
			]
		},
		{
			"name":"Object_9",
			"primitives":[
				{
					"attributes":{
						"POSITION":27,
						"NORMAL":28,
						"TEXCOORD_0":29
					},
					"indices":23,
					"material":7
				}
			]
		},
		{
			"name":"Object_4",
			"primitives":[
				{
					"attributes":{
						"POSITION":30,
						"NORMAL":31,
						"TEXCOORD_0":32
					},
					"indices":33,
					"material":8
				}
			]
		},
		{
			"name":"Object_5",
			"primitives":[
				{
					"attributes":{
						"POSITION":34,
						"NORMAL":35,
						"TEXCOORD_0":36
					},
					"indices":37,
					"material":9
				}
			]
		},
		{
			"name":"Object_6",
			"primitives":[
				{
					"attributes":{
						"POSITION":38,
						"NORMAL":39,
						"TEXCOORD_0":40
					},
					"indices":41,
					"material":10
				}
			]
		},
		{
			"name":"Object_7",
			"primitives":[
				{
					"attributes":{
						"POSITION":42,
						"NORMAL":43,
						"TEXCOORD_0":44
					},
					"indices":45,
					"material":11
				}
			]
		}
	],
	"accessors":[
		{
			"bufferView":0,
			"componentType":5126,
			"count":10148,
			"max":[
				0.30808955430984497,
				0.37558674812316895,
				2.293964385986328
			],
			"min":[
				-0.30808955430984497,
				-0.1167491152882576,
				-2.293964385986328
			],
			"type":"VEC3"
		},
		{
			"bufferView":1,
			"componentType":5126,
			"count":10148,
			"type":"VEC3"
		},
		{
			"bufferView":2,
			"componentType":5126,
			"count":10148,
			"type":"VEC2"
		},
		{
			"bufferView":3,
			"componentType":5123,
			"count":14808,
			"type":"SCALAR"
		},
		{
			"bufferView":4,
			"componentType":5126,
			"count":5427,
			"max":[
				0.3049820065498352,
				0.3901841938495636,
				2.293964385986328
			],
			"min":[
				-0.3049820065498352,
				-0.28898972272872925,
				-2.293964385986328
			],
			"type":"VEC3"
		},
		{
			"bufferView":5,
			"componentType":5126,
			"count":5427,
			"type":"VEC3"
		},
		{
			"bufferView":6,
			"componentType":5126,
			"count":5427,
			"type":"VEC2"
		},
		{
			"bufferView":7,
			"componentType":5123,
			"count":11562,
			"type":"SCALAR"
		},
		{
			"bufferView":8,
			"componentType":5126,
			"count":2002,
			"max":[
				0.30105865001678467,
				0.2780720591545105,
				2.2577950954437256
			],
			"min":[
				-0.30105865001678467,
				-0.11583799868822098,
				-2.2577950954437256
			],
			"type":"VEC3"
		},
		{
			"bufferView":9,
			"componentType":5126,
			"count":2002,
			"type":"VEC3"
		},
		{
			"bufferView":10,
			"componentType":5126,
			"count":2002,
			"type":"VEC2"
		},
		{
			"bufferView":11,
			"componentType":5123,
			"count":4896,
			"type":"SCALAR"
		},
		{
			"bufferView":12,
			"componentType":5126,
			"count":72,
			"max":[
				0.30105865001678467,
				0.2780720591545105,
				2.280059576034546
			],
			"min":[
				-0.30105865001678467,
				-0.15396934747695923,
				-2.280059576034546
			],
			"type":"VEC3"
		},
		{
			"bufferView":13,
			"componentType":5126,
			"count":72,
			"type":"VEC3"
		},
		{
			"bufferView":14,
			"componentType":5126,
			"count":72,
			"type":"VEC2"
		},
		{
			"bufferView":15,
			"componentType":5123,
			"count":156,
			"type":"SCALAR"
		},
		{
			"bufferView":16,
			"componentType":5126,
			"count":6756,
			"max":[
				1.4433478116989136,
				0.5348367691040039,
				1.9685349464416504
			],
			"min":[
				-1.4433478116989136,
				-0.5925313234329224,
				-1.9685349464416504
			],
			"type":"VEC3"
		},
		{
			"bufferView":17,
			"componentType":5126,
			"count":6756,
			"type":"VEC3"
		},
		{
			"bufferView":18,
			"componentType":5126,
			"count":6756,
			"type":"VEC2"
		},
		{
			"bufferView":19,
			"componentType":5123,
			"count":11124,
			"type":"SCALAR"
		},
		{
			"bufferView":20,
			"componentType":5126,
			"count":4096,
			"max":[
				1.187218427658081,
				0.31942737102508545,
				2.0679595470428467
			],
			"min":[
				-1.187218427658081,
				-0.8437545299530029,
				-2.0679595470428467
			],
			"type":"VEC3"
		},
		{
			"bufferView":21,
			"componentType":5126,
			"count":4096,
			"type":"VEC3"
		},
		{
			"bufferView":22,
			"componentType":5126,
			"count":4096,
			"type":"VEC2"
		},
		{
			"bufferView":23,
			"componentType":5123,
			"count":6144,
			"type":"SCALAR"
		},
		{
			"bufferView":24,
			"componentType":5126,
			"count":6756,
			"max":[
				1.4433478116989136,
				0.5348367691040039,
				1.9685349464416504
			],
			"min":[
				-1.4433478116989136,
				-0.5925313234329224,
				-1.9685349464416504
			],
			"type":"VEC3"
		},
		{
			"bufferView":25,
			"componentType":5126,
			"count":6756,
			"type":"VEC3"
		},
		{
			"bufferView":26,
			"componentType":5126,
			"count":6756,
			"type":"VEC2"
		},
		{
			"bufferView":27,
			"componentType":5126,
			"count":4096,
			"max":[
				1.187218427658081,
				0.31942737102508545,
				2.0679595470428467
			],
			"min":[
				-1.187218427658081,
				-0.8437545299530029,
				-2.0679595470428467
			],
			"type":"VEC3"
		},
		{
			"bufferView":28,
			"componentType":5126,
			"count":4096,
			"type":"VEC3"
		},
		{
			"bufferView":29,
			"componentType":5126,
			"count":4096,
			"type":"VEC2"
		},
		{
			"bufferView":30,
			"componentType":5126,
			"count":1060,
			"max":[
				0.3009290397167206,
				0.19930399954319,
				1.7862945795059204
			],
			"min":[
				-0.3009290397167206,
				-0.08361312001943588,
				-1.7862945795059204
			],
			"type":"VEC3"
		},
		{
			"bufferView":31,
			"componentType":5126,
			"count":1060,
			"type":"VEC3"
		},
		{
			"bufferView":32,
			"componentType":5126,
			"count":1060,
			"type":"VEC2"
		},
		{
			"bufferView":33,
			"componentType":5123,
			"count":1392,
			"type":"SCALAR"
		},
		{
			"bufferView":34,
			"componentType":5126,
			"count":1112,
			"max":[
				0.3009290397167206,
				0.19930399954319,
				1.9754526615142822
			],
			"min":[
				-0.3009290397167206,
				-0.08361312001943588,
				-1.9754526615142822
			],
			"type":"VEC3"
		},
		{
			"bufferView":35,
			"componentType":5126,
			"count":1112,
			"type":"VEC3"
		},
		{
			"bufferView":36,
			"componentType":5126,
			"count":1112,
			"type":"VEC2"
		},
		{
			"bufferView":37,
			"componentType":5123,
			"count":1392,
			"type":"SCALAR"
		},
		{
			"bufferView":38,
			"componentType":5126,
			"count":1385,
			"max":[
				0.132887601852417,
				0.28225982189178467,
				2.333451986312866
			],
			"min":[
				-0.132887601852417,
				-0.10985837876796722,
				-2.333451986312866
			],
			"type":"VEC3"
		},
		{
			"bufferView":39,
			"componentType":5126,
			"count":1385,
			"type":"VEC3"
		},
		{
			"bufferView":40,
			"componentType":5126,
			"count":1385,
			"type":"VEC2"
		},
		{
			"bufferView":41,
			"componentType":5123,
			"count":2256,
			"type":"SCALAR"
		},
		{
			"bufferView":42,
			"componentType":5126,
			"count":384,
			"max":[
				-0.2650892436504364,
				0.13407182693481445,
				2.34234881401062
			],
			"min":[
				-0.326906681060791,
				-0.13318441808223724,
				-2.34234881401062
			],
			"type":"VEC3"
		},
		{
			"bufferView":43,
			"componentType":5126,
			"count":384,
			"type":"VEC3"
		},
		{
			"bufferView":44,
			"componentType":5126,
			"count":384,
			"type":"VEC2"
		},
		{
			"bufferView":45,
			"componentType":5123,
			"count":744,
			"type":"SCALAR"
		}
	],
	"bufferViews":[
		{
			"buffer":0,
			"byteLength":121776,
			"byteOffset":0,
			"target":34962
		},
		{
			"buffer":0,
			"byteLength":121776,
			"byteOffset":121776,
			"target":34962
		},
		{
			"buffer":0,
			"byteLength":81184,
			"byteOffset":243552,
			"target":34962
		},
		{
			"buffer":0,
			"byteLength":29616,
			"byteOffset":324736,
			"target":34963
		},
		{
			"buffer":0,
			"byteLength":65124,
			"byteOffset":354352,
			"target":34962
		},
		{
			"buffer":0,
			"byteLength":65124,
			"byteOffset":419476,
			"target":34962
		},
		{
			"buffer":0,
			"byteLength":43416,
			"byteOffset":484600,
			"target":34962
		},
		{
			"buffer":0,
			"byteLength":23124,
			"byteOffset":528016,
			"target":34963
		},
		{
			"buffer":0,
			"byteLength":24024,
			"byteOffset":551140,
			"target":34962
		},
		{
			"buffer":0,
			"byteLength":24024,
			"byteOffset":575164,
			"target":34962
		},
		{
			"buffer":0,
			"byteLength":16016,
			"byteOffset":599188,
			"target":34962
		},
		{
			"buffer":0,
			"byteLength":9792,
			"byteOffset":615204,
			"target":34963
		},
		{
			"buffer":0,
			"byteLength":864,
			"byteOffset":624996,
			"target":34962
		},
		{
			"buffer":0,
			"byteLength":864,
			"byteOffset":625860,
			"target":34962
		},
		{
			"buffer":0,
			"byteLength":576,
			"byteOffset":626724,
			"target":34962
		},
		{
			"buffer":0,
			"byteLength":312,
			"byteOffset":627300,
			"target":34963
		},
		{
			"buffer":0,
			"byteLength":81072,
			"byteOffset":627612,
			"target":34962
		},
		{
			"buffer":0,
			"byteLength":81072,
			"byteOffset":708684,
			"target":34962
		},
		{
			"buffer":0,
			"byteLength":54048,
			"byteOffset":789756,
			"target":34962
		},
		{
			"buffer":0,
			"byteLength":22248,
			"byteOffset":843804,
			"target":34963
		},
		{
			"buffer":0,
			"byteLength":49152,
			"byteOffset":866052,
			"target":34962
		},
		{
			"buffer":0,
			"byteLength":49152,
			"byteOffset":915204,
			"target":34962
		},
		{
			"buffer":0,
			"byteLength":32768,
			"byteOffset":964356,
			"target":34962
		},
		{
			"buffer":0,
			"byteLength":12288,
			"byteOffset":997124,
			"target":34963
		},
		{
			"buffer":0,
			"byteLength":81072,
			"byteOffset":1009412,
			"target":34962
		},
		{
			"buffer":0,
			"byteLength":81072,
			"byteOffset":1090484,
			"target":34962
		},
		{
			"buffer":0,
			"byteLength":54048,
			"byteOffset":1171556,
			"target":34962
		},
		{
			"buffer":0,
			"byteLength":49152,
			"byteOffset":1225604,
			"target":34962
		},
		{
			"buffer":0,
			"byteLength":49152,
			"byteOffset":1274756,
			"target":34962
		},
		{
			"buffer":0,
			"byteLength":32768,
			"byteOffset":1323908,
			"target":34962
		},
		{
			"buffer":0,
			"byteLength":12720,
			"byteOffset":1356676,
			"target":34962
		},
		{
			"buffer":0,
			"byteLength":12720,
			"byteOffset":1369396,
			"target":34962
		},
		{
			"buffer":0,
			"byteLength":8480,
			"byteOffset":1382116,
			"target":34962
		},
		{
			"buffer":0,
			"byteLength":2784,
			"byteOffset":1390596,
			"target":34963
		},
		{
			"buffer":0,
			"byteLength":13344,
			"byteOffset":1393380,
			"target":34962
		},
		{
			"buffer":0,
			"byteLength":13344,
			"byteOffset":1406724,
			"target":34962
		},
		{
			"buffer":0,
			"byteLength":8896,
			"byteOffset":1420068,
			"target":34962
		},
		{
			"buffer":0,
			"byteLength":2784,
			"byteOffset":1428964,
			"target":34963
		},
		{
			"buffer":0,
			"byteLength":16620,
			"byteOffset":1431748,
			"target":34962
		},
		{
			"buffer":0,
			"byteLength":16620,
			"byteOffset":1448368,
			"target":34962
		},
		{
			"buffer":0,
			"byteLength":11080,
			"byteOffset":1464988,
			"target":34962
		},
		{
			"buffer":0,
			"byteLength":4512,
			"byteOffset":1476068,
			"target":34963
		},
		{
			"buffer":0,
			"byteLength":4608,
			"byteOffset":1480580,
			"target":34962
		},
		{
			"buffer":0,
			"byteLength":4608,
			"byteOffset":1485188,
			"target":34962
		},
		{
			"buffer":0,
			"byteLength":3072,
			"byteOffset":1489796,
			"target":34962
		},
		{
			"buffer":0,
			"byteLength":1488,
			"byteOffset":1492868,
			"target":34963
		}
	],
	"buffers":[
		{
			"byteLength":1494356,
			"uri":"train-coach.bin"
		}
	]
}
